<mxfile host="Electron" modified="2024-04-14T00:25:14.921Z" agent="Mozilla/5.0 (Windows NT 10.0; Win64; x64) AppleWebKit/537.36 (KHTML, like Gecko) draw.io/24.2.5 Chrome/120.0.6099.109 Electron/28.1.0 Safari/537.36" etag="dWQAdd62jDIUv4TQ97Hh" version="24.2.5" type="device">
  <diagram name="ページ1" id="LE8fIzdrHe0wcv1LTvfw">
    <mxGraphModel dx="866" dy="518" grid="1" gridSize="10" guides="1" tooltips="1" connect="1" arrows="1" fold="1" page="1" pageScale="1" pageWidth="1600" pageHeight="1200" math="0" shadow="0">
      <root>
        <mxCell id="0" />
        <mxCell id="cFaB45KztUIKXS-_cTrr-4" value="背景" style="locked=1;" parent="0" visible="0" />
        <mxCell id="cFaB45KztUIKXS-_cTrr-5" value="" style="rounded=0;whiteSpace=wrap;html=1;strokeWidth=3;" parent="cFaB45KztUIKXS-_cTrr-4" vertex="1">
          <mxGeometry x="1" y="1" width="1595" height="1180" as="geometry" />
        </mxCell>
        <mxCell id="cFaB45KztUIKXS-_cTrr-6" value="" style="rounded=0;whiteSpace=wrap;html=1;fillColor=#B3B3B3;fontColor=#333333;strokeColor=#666666;" parent="cFaB45KztUIKXS-_cTrr-4" vertex="1">
          <mxGeometry width="1595" height="60" as="geometry" />
        </mxCell>
        <mxCell id="cFaB45KztUIKXS-_cTrr-7" value="&lt;font style=&quot;font-size: 48px;&quot;&gt;×&lt;/font&gt;" style="rounded=0;whiteSpace=wrap;html=1;" parent="cFaB45KztUIKXS-_cTrr-4" vertex="1">
          <mxGeometry x="1550" y="10" width="40" height="40" as="geometry" />
        </mxCell>
        <mxCell id="cFaB45KztUIKXS-_cTrr-8" value="" style="rounded=0;whiteSpace=wrap;html=1;" parent="cFaB45KztUIKXS-_cTrr-4" vertex="1">
          <mxGeometry x="830" y="670" width="120" height="60" as="geometry" />
        </mxCell>
        <mxCell id="cFaB45KztUIKXS-_cTrr-9" value="ウインドウ" style="locked=1;" parent="0" />
        <mxCell id="cFaB45KztUIKXS-_cTrr-10" value="" style="rounded=0;whiteSpace=wrap;html=1;strokeWidth=3;" parent="cFaB45KztUIKXS-_cTrr-9" vertex="1">
          <mxGeometry x="1" y="1" width="3909" height="2889" as="geometry" />
        </mxCell>
        <mxCell id="4FIBXKB_Xe-70q_h3tGT-0" value="" style="line;strokeWidth=2;direction=south;html=1;dashed=1;dashPattern=12 12;" parent="cFaB45KztUIKXS-_cTrr-9" vertex="1">
          <mxGeometry x="1543" y="10" width="11.76" height="2800" as="geometry" />
        </mxCell>
        <mxCell id="cFaB45KztUIKXS-_cTrr-11" value="" style="rounded=0;whiteSpace=wrap;html=1;fillColor=#B3B3B3;fontColor=#333333;strokeColor=#666666;" parent="cFaB45KztUIKXS-_cTrr-9" vertex="1">
          <mxGeometry width="1595" height="60" as="geometry" />
        </mxCell>
        <mxCell id="cFaB45KztUIKXS-_cTrr-12" value="&lt;font style=&quot;font-size: 48px;&quot;&gt;×&lt;/font&gt;" style="rounded=0;whiteSpace=wrap;html=1;" parent="cFaB45KztUIKXS-_cTrr-9" vertex="1">
          <mxGeometry x="1550" y="10" width="40" height="40" as="geometry" />
        </mxCell>
        <mxCell id="cFaB45KztUIKXS-_cTrr-14" value="名称未設定レイヤ" style="" parent="0" />
        <mxCell id="-CHNA03FvEnSMKmcBDrK-0" value="&lt;span style=&quot;font-size: 30px;&quot;&gt;&lt;b&gt;個人総枠検証&lt;/b&gt;&lt;/span&gt;" style="rounded=0;whiteSpace=wrap;html=1;align=left;dashed=1;dashPattern=8 8;verticalAlign=bottom;" parent="cFaB45KztUIKXS-_cTrr-14" vertex="1">
          <mxGeometry x="20" y="75" width="600" height="46" as="geometry" />
        </mxCell>
        <mxCell id="yVRLo9RjWcmBAKcRKdF0-20" value="" style="childLayout=tableLayout;recursiveResize=0;shadow=0;fillColor=none;align=left;" parent="cFaB45KztUIKXS-_cTrr-14" vertex="1">
          <mxGeometry x="30" y="920" width="3550" height="663" as="geometry" />
        </mxCell>
        <mxCell id="yVRLo9RjWcmBAKcRKdF0-21" value="" style="shape=tableRow;horizontal=0;startSize=0;swimlaneHead=0;swimlaneBody=0;top=0;left=0;bottom=0;right=0;dropTarget=0;collapsible=0;recursiveResize=0;expand=0;fontStyle=0;fillColor=none;strokeColor=inherit;" parent="yVRLo9RjWcmBAKcRKdF0-20" vertex="1">
          <mxGeometry width="3550" height="50" as="geometry" />
        </mxCell>
        <mxCell id="yVRLo9RjWcmBAKcRKdF0-55" value="&lt;span style=&quot;font-size: 30px;&quot;&gt;収支報告書&lt;/span&gt;" style="connectable=0;recursiveResize=0;strokeColor=inherit;fillColor=none;align=center;whiteSpace=wrap;html=1;" parent="yVRLo9RjWcmBAKcRKdF0-21" vertex="1">
          <mxGeometry width="460" height="50" as="geometry">
            <mxRectangle width="460" height="50" as="alternateBounds" />
          </mxGeometry>
        </mxCell>
        <mxCell id="yVRLo9RjWcmBAKcRKdF0-25" value="&lt;font style=&quot;font-size: 30px;&quot;&gt;団体区分&lt;/font&gt;" style="connectable=0;recursiveResize=0;strokeColor=inherit;fillColor=none;align=center;whiteSpace=wrap;html=1;" parent="yVRLo9RjWcmBAKcRKdF0-21" vertex="1">
          <mxGeometry x="460" width="220" height="50" as="geometry">
            <mxRectangle width="220" height="50" as="alternateBounds" />
          </mxGeometry>
        </mxCell>
        <mxCell id="yVRLo9RjWcmBAKcRKdF0-133" value="&lt;font style=&quot;font-size: 30px;&quot;&gt;資金管理指定&lt;/font&gt;" style="connectable=0;recursiveResize=0;strokeColor=inherit;fillColor=none;align=center;whiteSpace=wrap;html=1;" parent="yVRLo9RjWcmBAKcRKdF0-21" vertex="1">
          <mxGeometry x="680" width="200" height="50" as="geometry">
            <mxRectangle width="200" height="50" as="alternateBounds" />
          </mxGeometry>
        </mxCell>
        <mxCell id="yVRLo9RjWcmBAKcRKdF0-160" value="&lt;font style=&quot;font-size: 30px;&quot;&gt;代表者&lt;/font&gt;" style="connectable=0;recursiveResize=0;strokeColor=inherit;fillColor=none;align=center;whiteSpace=wrap;html=1;" parent="yVRLo9RjWcmBAKcRKdF0-21" vertex="1">
          <mxGeometry x="880" width="330" height="50" as="geometry">
            <mxRectangle width="330" height="50" as="alternateBounds" />
          </mxGeometry>
        </mxCell>
        <mxCell id="yVRLo9RjWcmBAKcRKdF0-178" value="&lt;font style=&quot;font-size: 30px;&quot;&gt;公職&lt;/font&gt;" style="connectable=0;recursiveResize=0;strokeColor=inherit;fillColor=default;align=center;whiteSpace=wrap;html=1;" parent="yVRLo9RjWcmBAKcRKdF0-21" vertex="1">
          <mxGeometry x="1210" width="120" height="50" as="geometry">
            <mxRectangle width="120" height="50" as="alternateBounds" />
          </mxGeometry>
        </mxCell>
        <mxCell id="yVRLo9RjWcmBAKcRKdF0-151" value="&lt;font style=&quot;font-size: 30px;&quot;&gt;様式区分&lt;/font&gt;" style="connectable=0;recursiveResize=0;strokeColor=inherit;fillColor=none;align=center;whiteSpace=wrap;html=1;" parent="yVRLo9RjWcmBAKcRKdF0-21" vertex="1">
          <mxGeometry x="1330" width="230" height="50" as="geometry">
            <mxRectangle width="230" height="50" as="alternateBounds" />
          </mxGeometry>
        </mxCell>
        <mxCell id="yVRLo9RjWcmBAKcRKdF0-142" value="&lt;font style=&quot;font-size: 30px;&quot;&gt;行&lt;/font&gt;" style="connectable=0;recursiveResize=0;strokeColor=inherit;fillColor=none;align=center;whiteSpace=wrap;html=1;" parent="yVRLo9RjWcmBAKcRKdF0-21" vertex="1">
          <mxGeometry x="1560" width="60" height="50" as="geometry">
            <mxRectangle width="60" height="50" as="alternateBounds" />
          </mxGeometry>
        </mxCell>
        <mxCell id="r01p0lLt0XGwaa7xkesd-8" value="&lt;span style=&quot;font-size: 30px;&quot;&gt;コード&lt;/span&gt;" style="connectable=0;recursiveResize=0;strokeColor=inherit;fillColor=none;align=center;whiteSpace=wrap;html=1;" parent="yVRLo9RjWcmBAKcRKdF0-21" vertex="1">
          <mxGeometry x="1620" width="150" height="50" as="geometry">
            <mxRectangle width="150" height="50" as="alternateBounds" />
          </mxGeometry>
        </mxCell>
        <mxCell id="yVRLo9RjWcmBAKcRKdF0-26" value="&lt;br&gt;&lt;div&gt;&lt;span style=&quot;font-size: 30px;&quot;&gt;寄付者の氏名&lt;/span&gt;&lt;/div&gt;" style="connectable=0;recursiveResize=0;strokeColor=inherit;fillColor=none;align=center;whiteSpace=wrap;html=1;" parent="yVRLo9RjWcmBAKcRKdF0-21" vertex="1">
          <mxGeometry x="1770" width="280" height="50" as="geometry">
            <mxRectangle width="280" height="50" as="alternateBounds" />
          </mxGeometry>
        </mxCell>
        <mxCell id="yVRLo9RjWcmBAKcRKdF0-27" value="&lt;font style=&quot;font-size: 30px;&quot;&gt;金額&lt;/font&gt;" style="connectable=0;recursiveResize=0;strokeColor=inherit;fillColor=none;align=center;whiteSpace=wrap;html=1;" parent="yVRLo9RjWcmBAKcRKdF0-21" vertex="1">
          <mxGeometry x="2050" width="240" height="50" as="geometry">
            <mxRectangle width="240" height="50" as="alternateBounds" />
          </mxGeometry>
        </mxCell>
        <mxCell id="yVRLo9RjWcmBAKcRKdF0-28" value="&lt;font style=&quot;font-size: 30px;&quot;&gt;年月日&lt;/font&gt;" style="connectable=0;recursiveResize=0;strokeColor=inherit;fillColor=none;align=center;whiteSpace=wrap;html=1;" parent="yVRLo9RjWcmBAKcRKdF0-21" vertex="1">
          <mxGeometry x="2290" width="180" height="50" as="geometry">
            <mxRectangle width="180" height="50" as="alternateBounds" />
          </mxGeometry>
        </mxCell>
        <mxCell id="yVRLo9RjWcmBAKcRKdF0-29" value="&lt;font style=&quot;font-size: 30px;&quot;&gt;住所&lt;/font&gt;" style="connectable=0;recursiveResize=0;strokeColor=inherit;fillColor=none;align=center;whiteSpace=wrap;html=1;" parent="yVRLo9RjWcmBAKcRKdF0-21" vertex="1">
          <mxGeometry x="2470" width="540" height="50" as="geometry">
            <mxRectangle width="540" height="50" as="alternateBounds" />
          </mxGeometry>
        </mxCell>
        <mxCell id="yVRLo9RjWcmBAKcRKdF0-30" value="&lt;font style=&quot;font-size: 30px;&quot;&gt;(職業)&lt;/font&gt;" style="connectable=0;recursiveResize=0;strokeColor=inherit;fillColor=default;align=center;whiteSpace=wrap;html=1;" parent="yVRLo9RjWcmBAKcRKdF0-21" vertex="1">
          <mxGeometry x="3010" width="240" height="50" as="geometry">
            <mxRectangle width="240" height="50" as="alternateBounds" />
          </mxGeometry>
        </mxCell>
        <mxCell id="yVRLo9RjWcmBAKcRKdF0-31" value="&lt;font style=&quot;font-size: 30px;&quot;&gt;備考&lt;/font&gt;" style="connectable=0;recursiveResize=0;strokeColor=inherit;fillColor=none;align=center;whiteSpace=wrap;html=1;" parent="yVRLo9RjWcmBAKcRKdF0-21" vertex="1">
          <mxGeometry x="3250" width="300" height="50" as="geometry">
            <mxRectangle width="300" height="50" as="alternateBounds" />
          </mxGeometry>
        </mxCell>
        <mxCell id="yVRLo9RjWcmBAKcRKdF0-32" style="shape=tableRow;horizontal=0;startSize=0;swimlaneHead=0;swimlaneBody=0;top=0;left=0;bottom=0;right=0;dropTarget=0;collapsible=0;recursiveResize=0;expand=0;fontStyle=0;fillColor=none;strokeColor=inherit;" parent="yVRLo9RjWcmBAKcRKdF0-20" vertex="1">
          <mxGeometry y="50" width="3550" height="60" as="geometry" />
        </mxCell>
        <mxCell id="yVRLo9RjWcmBAKcRKdF0-56" value="&lt;font style=&quot;font-size: 30px;&quot;&gt;烏合の衆の党&lt;/font&gt;" style="connectable=0;recursiveResize=0;strokeColor=inherit;fillColor=none;align=left;whiteSpace=wrap;html=1;" parent="yVRLo9RjWcmBAKcRKdF0-32" vertex="1">
          <mxGeometry width="460" height="60" as="geometry">
            <mxRectangle width="460" height="60" as="alternateBounds" />
          </mxGeometry>
        </mxCell>
        <mxCell id="yVRLo9RjWcmBAKcRKdF0-36" value="&lt;font style=&quot;font-size: 30px;&quot;&gt;政党&lt;/font&gt;" style="connectable=0;recursiveResize=0;strokeColor=inherit;fillColor=none;align=left;whiteSpace=wrap;html=1;" parent="yVRLo9RjWcmBAKcRKdF0-32" vertex="1">
          <mxGeometry x="460" width="220" height="60" as="geometry">
            <mxRectangle width="220" height="60" as="alternateBounds" />
          </mxGeometry>
        </mxCell>
        <mxCell id="yVRLo9RjWcmBAKcRKdF0-134" style="connectable=0;recursiveResize=0;strokeColor=inherit;fillColor=none;align=left;whiteSpace=wrap;html=1;" parent="yVRLo9RjWcmBAKcRKdF0-32" vertex="1">
          <mxGeometry x="680" width="200" height="60" as="geometry">
            <mxRectangle width="200" height="60" as="alternateBounds" />
          </mxGeometry>
        </mxCell>
        <mxCell id="yVRLo9RjWcmBAKcRKdF0-161" value="&lt;span style=&quot;font-size: 30px;&quot;&gt;烏合の衆　茂&lt;/span&gt;" style="connectable=0;recursiveResize=0;strokeColor=inherit;fillColor=none;align=left;whiteSpace=wrap;html=1;" parent="yVRLo9RjWcmBAKcRKdF0-32" vertex="1">
          <mxGeometry x="880" width="330" height="60" as="geometry">
            <mxRectangle width="330" height="60" as="alternateBounds" />
          </mxGeometry>
        </mxCell>
        <mxCell id="yVRLo9RjWcmBAKcRKdF0-179" style="connectable=0;recursiveResize=0;strokeColor=inherit;fillColor=default;align=left;whiteSpace=wrap;html=1;" parent="yVRLo9RjWcmBAKcRKdF0-32" vertex="1">
          <mxGeometry x="1210" width="120" height="60" as="geometry">
            <mxRectangle width="120" height="60" as="alternateBounds" />
          </mxGeometry>
        </mxCell>
        <mxCell id="yVRLo9RjWcmBAKcRKdF0-152" value="&lt;font style=&quot;font-size: 30px;&quot;&gt;7.寄付-1.個人&lt;/font&gt;" style="connectable=0;recursiveResize=0;strokeColor=inherit;fillColor=none;align=left;whiteSpace=wrap;html=1;" parent="yVRLo9RjWcmBAKcRKdF0-32" vertex="1">
          <mxGeometry x="1330" width="230" height="60" as="geometry">
            <mxRectangle width="230" height="60" as="alternateBounds" />
          </mxGeometry>
        </mxCell>
        <mxCell id="yVRLo9RjWcmBAKcRKdF0-143" value="&lt;br&gt;&lt;span style=&quot;color: rgb(0, 0, 0); font-family: Helvetica; font-size: 30px; font-style: normal; font-variant-ligatures: normal; font-variant-caps: normal; font-weight: 400; letter-spacing: normal; orphans: 2; text-indent: 0px; text-transform: none; widows: 2; word-spacing: 0px; -webkit-text-stroke-width: 0px; white-space: normal; text-decoration-thickness: initial; text-decoration-style: initial; text-decoration-color: initial; float: none; display: inline !important;&quot;&gt;11&lt;/span&gt;&lt;div&gt;&lt;br/&gt;&lt;/div&gt;" style="connectable=0;recursiveResize=0;strokeColor=inherit;fillColor=none;align=right;whiteSpace=wrap;html=1;verticalAlign=middle;" parent="yVRLo9RjWcmBAKcRKdF0-32" vertex="1">
          <mxGeometry x="1560" width="60" height="60" as="geometry">
            <mxRectangle width="60" height="60" as="alternateBounds" />
          </mxGeometry>
        </mxCell>
        <mxCell id="r01p0lLt0XGwaa7xkesd-9" value="&lt;span style=&quot;font-size: 30px;&quot;&gt;7351&lt;/span&gt;" style="connectable=0;recursiveResize=0;strokeColor=inherit;fillColor=none;align=right;whiteSpace=wrap;html=1;" parent="yVRLo9RjWcmBAKcRKdF0-32" vertex="1">
          <mxGeometry x="1620" width="150" height="60" as="geometry">
            <mxRectangle width="150" height="60" as="alternateBounds" />
          </mxGeometry>
        </mxCell>
        <mxCell id="yVRLo9RjWcmBAKcRKdF0-37" value="&lt;span style=&quot;font-size: 30px;&quot;&gt;個人名太郎&lt;/span&gt;" style="connectable=0;recursiveResize=0;strokeColor=inherit;fillColor=none;align=left;whiteSpace=wrap;html=1;" parent="yVRLo9RjWcmBAKcRKdF0-32" vertex="1">
          <mxGeometry x="1770" width="280" height="60" as="geometry">
            <mxRectangle width="280" height="60" as="alternateBounds" />
          </mxGeometry>
        </mxCell>
        <mxCell id="yVRLo9RjWcmBAKcRKdF0-38" value="&lt;font style=&quot;font-size: 30px;&quot;&gt;3,000,000&lt;/font&gt;" style="connectable=0;recursiveResize=0;strokeColor=inherit;fillColor=none;align=right;whiteSpace=wrap;html=1;" parent="yVRLo9RjWcmBAKcRKdF0-32" vertex="1">
          <mxGeometry x="2050" width="240" height="60" as="geometry">
            <mxRectangle width="240" height="60" as="alternateBounds" />
          </mxGeometry>
        </mxCell>
        <mxCell id="yVRLo9RjWcmBAKcRKdF0-39" value="&lt;font style=&quot;font-size: 30px;&quot;&gt;2022-12-05&lt;/font&gt;" style="connectable=0;recursiveResize=0;strokeColor=inherit;fillColor=none;align=right;whiteSpace=wrap;html=1;" parent="yVRLo9RjWcmBAKcRKdF0-32" vertex="1">
          <mxGeometry x="2290" width="180" height="60" as="geometry">
            <mxRectangle width="180" height="60" as="alternateBounds" />
          </mxGeometry>
        </mxCell>
        <mxCell id="yVRLo9RjWcmBAKcRKdF0-40" value="&lt;span style=&quot;font-size: 30px;&quot;&gt;宮城県架空1市&lt;/span&gt;&lt;span style=&quot;font-size: 30px;&quot;&gt;水田町3丁目4番地9&lt;/span&gt;" style="connectable=0;recursiveResize=0;strokeColor=inherit;fillColor=none;align=left;whiteSpace=wrap;html=1;" parent="yVRLo9RjWcmBAKcRKdF0-32" vertex="1">
          <mxGeometry x="2470" width="540" height="60" as="geometry">
            <mxRectangle width="540" height="60" as="alternateBounds" />
          </mxGeometry>
        </mxCell>
        <mxCell id="yVRLo9RjWcmBAKcRKdF0-41" value="&lt;font style=&quot;font-size: 30px;&quot;&gt;TickTokker&lt;/font&gt;" style="connectable=0;recursiveResize=0;strokeColor=inherit;fillColor=default;align=left;whiteSpace=wrap;html=1;" parent="yVRLo9RjWcmBAKcRKdF0-32" vertex="1">
          <mxGeometry x="3010" width="240" height="60" as="geometry">
            <mxRectangle width="240" height="60" as="alternateBounds" />
          </mxGeometry>
        </mxCell>
        <mxCell id="yVRLo9RjWcmBAKcRKdF0-42" style="connectable=0;recursiveResize=0;strokeColor=inherit;fillColor=none;align=center;whiteSpace=wrap;html=1;" parent="yVRLo9RjWcmBAKcRKdF0-32" vertex="1">
          <mxGeometry x="3250" width="300" height="60" as="geometry">
            <mxRectangle width="300" height="60" as="alternateBounds" />
          </mxGeometry>
        </mxCell>
        <mxCell id="yVRLo9RjWcmBAKcRKdF0-43" style="shape=tableRow;horizontal=0;startSize=0;swimlaneHead=0;swimlaneBody=0;top=0;left=0;bottom=0;right=0;dropTarget=0;collapsible=0;recursiveResize=0;expand=0;fontStyle=0;fillColor=none;strokeColor=inherit;align=right;" parent="yVRLo9RjWcmBAKcRKdF0-20" vertex="1">
          <mxGeometry y="110" width="3550" height="64" as="geometry" />
        </mxCell>
        <mxCell id="yVRLo9RjWcmBAKcRKdF0-57" value="&lt;br&gt;&lt;span style=&quot;color: rgb(0, 0, 0); font-family: Helvetica; font-size: 30px; font-style: normal; font-variant-ligatures: normal; font-variant-caps: normal; font-weight: 400; letter-spacing: normal; orphans: 2; text-align: left; text-indent: 0px; text-transform: none; widows: 2; word-spacing: 0px; -webkit-text-stroke-width: 0px; white-space: normal; background-color: rgb(251, 251, 251); text-decoration-thickness: initial; text-decoration-style: initial; text-decoration-color: initial; display: inline !important; float: none;&quot;&gt;烏合の衆の党和歌山支部&lt;/span&gt;" style="connectable=0;recursiveResize=0;strokeColor=inherit;fillColor=none;align=left;whiteSpace=wrap;html=1;" parent="yVRLo9RjWcmBAKcRKdF0-43" vertex="1">
          <mxGeometry width="460" height="64" as="geometry">
            <mxRectangle width="460" height="64" as="alternateBounds" />
          </mxGeometry>
        </mxCell>
        <mxCell id="yVRLo9RjWcmBAKcRKdF0-47" value="&lt;span style=&quot;font-size: 30px; text-align: center;&quot;&gt;政党支部&lt;/span&gt;" style="connectable=0;recursiveResize=0;strokeColor=inherit;fillColor=none;align=left;whiteSpace=wrap;html=1;" parent="yVRLo9RjWcmBAKcRKdF0-43" vertex="1">
          <mxGeometry x="460" width="220" height="64" as="geometry">
            <mxRectangle width="220" height="64" as="alternateBounds" />
          </mxGeometry>
        </mxCell>
        <mxCell id="yVRLo9RjWcmBAKcRKdF0-135" style="connectable=0;recursiveResize=0;strokeColor=inherit;fillColor=none;align=left;whiteSpace=wrap;html=1;" parent="yVRLo9RjWcmBAKcRKdF0-43" vertex="1">
          <mxGeometry x="680" width="200" height="64" as="geometry">
            <mxRectangle width="200" height="64" as="alternateBounds" />
          </mxGeometry>
        </mxCell>
        <mxCell id="yVRLo9RjWcmBAKcRKdF0-162" value="&lt;font style=&quot;font-size: 30px;&quot;&gt;政党支部　英雄&lt;/font&gt;" style="connectable=0;recursiveResize=0;strokeColor=inherit;fillColor=none;align=left;whiteSpace=wrap;html=1;" parent="yVRLo9RjWcmBAKcRKdF0-43" vertex="1">
          <mxGeometry x="880" width="330" height="64" as="geometry">
            <mxRectangle width="330" height="64" as="alternateBounds" />
          </mxGeometry>
        </mxCell>
        <mxCell id="yVRLo9RjWcmBAKcRKdF0-180" style="connectable=0;recursiveResize=0;strokeColor=inherit;fillColor=default;align=left;whiteSpace=wrap;html=1;" parent="yVRLo9RjWcmBAKcRKdF0-43" vertex="1">
          <mxGeometry x="1210" width="120" height="64" as="geometry">
            <mxRectangle width="120" height="64" as="alternateBounds" />
          </mxGeometry>
        </mxCell>
        <mxCell id="yVRLo9RjWcmBAKcRKdF0-153" value="&lt;span style=&quot;font-size: 30px;&quot;&gt;7.寄付-1.個人&lt;/span&gt;" style="connectable=0;recursiveResize=0;strokeColor=inherit;fillColor=none;align=left;whiteSpace=wrap;html=1;" parent="yVRLo9RjWcmBAKcRKdF0-43" vertex="1">
          <mxGeometry x="1330" width="230" height="64" as="geometry">
            <mxRectangle width="230" height="64" as="alternateBounds" />
          </mxGeometry>
        </mxCell>
        <mxCell id="yVRLo9RjWcmBAKcRKdF0-144" value="&lt;br&gt;&lt;span style=&quot;font-size: 30px;&quot;&gt;11&lt;/span&gt;&lt;div&gt;&lt;br style=&quot;&quot;&gt;&lt;/div&gt;" style="connectable=0;recursiveResize=0;strokeColor=inherit;fillColor=none;align=right;whiteSpace=wrap;html=1;" parent="yVRLo9RjWcmBAKcRKdF0-43" vertex="1">
          <mxGeometry x="1560" width="60" height="64" as="geometry">
            <mxRectangle width="60" height="64" as="alternateBounds" />
          </mxGeometry>
        </mxCell>
        <mxCell id="r01p0lLt0XGwaa7xkesd-10" value="&lt;span style=&quot;font-size: 30px;&quot;&gt;7351&lt;/span&gt;" style="connectable=0;recursiveResize=0;strokeColor=inherit;fillColor=none;align=right;whiteSpace=wrap;html=1;" parent="yVRLo9RjWcmBAKcRKdF0-43" vertex="1">
          <mxGeometry x="1620" width="150" height="64" as="geometry">
            <mxRectangle width="150" height="64" as="alternateBounds" />
          </mxGeometry>
        </mxCell>
        <mxCell id="yVRLo9RjWcmBAKcRKdF0-48" value="&lt;font style=&quot;font-size: 30px;&quot;&gt;個人名太郎&lt;/font&gt;" style="connectable=0;recursiveResize=0;strokeColor=inherit;fillColor=none;align=left;whiteSpace=wrap;html=1;" parent="yVRLo9RjWcmBAKcRKdF0-43" vertex="1">
          <mxGeometry x="1770" width="280" height="64" as="geometry">
            <mxRectangle width="280" height="64" as="alternateBounds" />
          </mxGeometry>
        </mxCell>
        <mxCell id="yVRLo9RjWcmBAKcRKdF0-49" value="&lt;font style=&quot;font-size: 30px;&quot;&gt;3,450,000&lt;/font&gt;" style="connectable=0;recursiveResize=0;strokeColor=inherit;fillColor=none;align=right;whiteSpace=wrap;html=1;" parent="yVRLo9RjWcmBAKcRKdF0-43" vertex="1">
          <mxGeometry x="2050" width="240" height="64" as="geometry">
            <mxRectangle width="240" height="64" as="alternateBounds" />
          </mxGeometry>
        </mxCell>
        <mxCell id="yVRLo9RjWcmBAKcRKdF0-50" value="&lt;font style=&quot;font-size: 30px;&quot;&gt;2022-12-13&lt;/font&gt;" style="connectable=0;recursiveResize=0;strokeColor=inherit;fillColor=none;align=right;whiteSpace=wrap;html=1;" parent="yVRLo9RjWcmBAKcRKdF0-43" vertex="1">
          <mxGeometry x="2290" width="180" height="64" as="geometry">
            <mxRectangle width="180" height="64" as="alternateBounds" />
          </mxGeometry>
        </mxCell>
        <mxCell id="yVRLo9RjWcmBAKcRKdF0-51" value="&lt;span style=&quot;font-size: 30px;&quot;&gt;宮城県架空1市&lt;/span&gt;&lt;span style=&quot;font-size: 30px;&quot;&gt;水田町3丁目4番地9&lt;/span&gt;" style="connectable=0;recursiveResize=0;strokeColor=inherit;fillColor=none;align=left;whiteSpace=wrap;html=1;" parent="yVRLo9RjWcmBAKcRKdF0-43" vertex="1">
          <mxGeometry x="2470" width="540" height="64" as="geometry">
            <mxRectangle width="540" height="64" as="alternateBounds" />
          </mxGeometry>
        </mxCell>
        <mxCell id="yVRLo9RjWcmBAKcRKdF0-52" value="&lt;span style=&quot;font-size: 30px;&quot;&gt;TickTokker&lt;/span&gt;" style="connectable=0;recursiveResize=0;strokeColor=inherit;fillColor=default;align=left;whiteSpace=wrap;html=1;" parent="yVRLo9RjWcmBAKcRKdF0-43" vertex="1">
          <mxGeometry x="3010" width="240" height="64" as="geometry">
            <mxRectangle width="240" height="64" as="alternateBounds" />
          </mxGeometry>
        </mxCell>
        <mxCell id="yVRLo9RjWcmBAKcRKdF0-53" style="connectable=0;recursiveResize=0;strokeColor=inherit;fillColor=none;align=center;whiteSpace=wrap;html=1;" parent="yVRLo9RjWcmBAKcRKdF0-43" vertex="1">
          <mxGeometry x="3250" width="300" height="64" as="geometry">
            <mxRectangle width="300" height="64" as="alternateBounds" />
          </mxGeometry>
        </mxCell>
        <mxCell id="yVRLo9RjWcmBAKcRKdF0-113" style="shape=tableRow;horizontal=0;startSize=0;swimlaneHead=0;swimlaneBody=0;top=0;left=0;bottom=0;right=0;dropTarget=0;collapsible=0;recursiveResize=0;expand=0;fontStyle=0;fillColor=none;strokeColor=inherit;align=right;" parent="yVRLo9RjWcmBAKcRKdF0-20" vertex="1">
          <mxGeometry y="174" width="3550" height="56" as="geometry" />
        </mxCell>
        <mxCell id="yVRLo9RjWcmBAKcRKdF0-116" value="&lt;span style=&quot;font-size: 30px;&quot;&gt;政治団体三郎君を応援する会&lt;/span&gt;" style="connectable=0;recursiveResize=0;strokeColor=inherit;fillColor=none;align=left;whiteSpace=wrap;html=1;" parent="yVRLo9RjWcmBAKcRKdF0-113" vertex="1">
          <mxGeometry width="460" height="56" as="geometry">
            <mxRectangle width="460" height="56" as="alternateBounds" />
          </mxGeometry>
        </mxCell>
        <mxCell id="yVRLo9RjWcmBAKcRKdF0-117" value="&lt;span style=&quot;font-size: 30px;&quot;&gt;その他の団体&lt;/span&gt;" style="connectable=0;recursiveResize=0;strokeColor=inherit;fillColor=none;align=left;whiteSpace=wrap;html=1;" parent="yVRLo9RjWcmBAKcRKdF0-113" vertex="1">
          <mxGeometry x="460" width="220" height="56" as="geometry">
            <mxRectangle width="220" height="56" as="alternateBounds" />
          </mxGeometry>
        </mxCell>
        <mxCell id="yVRLo9RjWcmBAKcRKdF0-136" value="&lt;span style=&quot;font-size: 30px;&quot;&gt;あり&lt;/span&gt;" style="connectable=0;recursiveResize=0;strokeColor=inherit;fillColor=none;align=center;whiteSpace=wrap;html=1;" parent="yVRLo9RjWcmBAKcRKdF0-113" vertex="1">
          <mxGeometry x="680" width="200" height="56" as="geometry">
            <mxRectangle width="200" height="56" as="alternateBounds" />
          </mxGeometry>
        </mxCell>
        <mxCell id="yVRLo9RjWcmBAKcRKdF0-163" value="&lt;span style=&quot;font-size: 30px;&quot;&gt;政治団体　三郎&lt;/span&gt;" style="connectable=0;recursiveResize=0;strokeColor=inherit;fillColor=none;align=left;whiteSpace=wrap;html=1;" parent="yVRLo9RjWcmBAKcRKdF0-113" vertex="1">
          <mxGeometry x="880" width="330" height="56" as="geometry">
            <mxRectangle width="330" height="56" as="alternateBounds" />
          </mxGeometry>
        </mxCell>
        <mxCell id="yVRLo9RjWcmBAKcRKdF0-181" value="&lt;font style=&quot;font-size: 30px;&quot;&gt;現職&lt;/font&gt;" style="connectable=0;recursiveResize=0;strokeColor=inherit;fillColor=default;align=left;whiteSpace=wrap;html=1;" parent="yVRLo9RjWcmBAKcRKdF0-113" vertex="1">
          <mxGeometry x="1210" width="120" height="56" as="geometry">
            <mxRectangle width="120" height="56" as="alternateBounds" />
          </mxGeometry>
        </mxCell>
        <mxCell id="yVRLo9RjWcmBAKcRKdF0-154" value="&lt;span style=&quot;font-size: 30px;&quot;&gt;7.寄付-1.個人&lt;/span&gt;" style="connectable=0;recursiveResize=0;strokeColor=inherit;fillColor=none;align=left;whiteSpace=wrap;html=1;" parent="yVRLo9RjWcmBAKcRKdF0-113" vertex="1">
          <mxGeometry x="1330" width="230" height="56" as="geometry">
            <mxRectangle width="230" height="56" as="alternateBounds" />
          </mxGeometry>
        </mxCell>
        <mxCell id="yVRLo9RjWcmBAKcRKdF0-145" value="&lt;br&gt;&lt;span style=&quot;font-size: 30px;&quot;&gt;11&lt;/span&gt;&lt;div&gt;&lt;br style=&quot;&quot;&gt;&lt;/div&gt;" style="connectable=0;recursiveResize=0;strokeColor=inherit;fillColor=none;align=right;whiteSpace=wrap;html=1;" parent="yVRLo9RjWcmBAKcRKdF0-113" vertex="1">
          <mxGeometry x="1560" width="60" height="56" as="geometry">
            <mxRectangle width="60" height="56" as="alternateBounds" />
          </mxGeometry>
        </mxCell>
        <mxCell id="r01p0lLt0XGwaa7xkesd-11" value="&lt;span style=&quot;font-size: 30px;&quot;&gt;7351&lt;/span&gt;" style="connectable=0;recursiveResize=0;strokeColor=inherit;fillColor=none;align=right;whiteSpace=wrap;html=1;" parent="yVRLo9RjWcmBAKcRKdF0-113" vertex="1">
          <mxGeometry x="1620" width="150" height="56" as="geometry">
            <mxRectangle width="150" height="56" as="alternateBounds" />
          </mxGeometry>
        </mxCell>
        <mxCell id="yVRLo9RjWcmBAKcRKdF0-118" value="&lt;span style=&quot;font-size: 30px;&quot;&gt;個人名太郎&lt;/span&gt;" style="connectable=0;recursiveResize=0;strokeColor=inherit;fillColor=none;align=left;whiteSpace=wrap;html=1;" parent="yVRLo9RjWcmBAKcRKdF0-113" vertex="1">
          <mxGeometry x="1770" width="280" height="56" as="geometry">
            <mxRectangle width="280" height="56" as="alternateBounds" />
          </mxGeometry>
        </mxCell>
        <mxCell id="yVRLo9RjWcmBAKcRKdF0-119" value="&lt;span style=&quot;font-size: 30px;&quot;&gt;1,450,000&lt;/span&gt;" style="connectable=0;recursiveResize=0;strokeColor=inherit;fillColor=none;align=right;whiteSpace=wrap;html=1;" parent="yVRLo9RjWcmBAKcRKdF0-113" vertex="1">
          <mxGeometry x="2050" width="240" height="56" as="geometry">
            <mxRectangle width="240" height="56" as="alternateBounds" />
          </mxGeometry>
        </mxCell>
        <mxCell id="yVRLo9RjWcmBAKcRKdF0-120" value="&lt;span style=&quot;font-size: 30px;&quot;&gt;2022-12-13&lt;/span&gt;" style="connectable=0;recursiveResize=0;strokeColor=inherit;fillColor=none;align=right;whiteSpace=wrap;html=1;" parent="yVRLo9RjWcmBAKcRKdF0-113" vertex="1">
          <mxGeometry x="2290" width="180" height="56" as="geometry">
            <mxRectangle width="180" height="56" as="alternateBounds" />
          </mxGeometry>
        </mxCell>
        <mxCell id="yVRLo9RjWcmBAKcRKdF0-121" value="&lt;span style=&quot;font-size: 30px;&quot;&gt;宮城県架空1市&lt;/span&gt;&lt;span style=&quot;font-size: 30px;&quot;&gt;水田町3丁目4番地9&lt;/span&gt;" style="connectable=0;recursiveResize=0;strokeColor=inherit;fillColor=none;align=left;whiteSpace=wrap;html=1;" parent="yVRLo9RjWcmBAKcRKdF0-113" vertex="1">
          <mxGeometry x="2470" width="540" height="56" as="geometry">
            <mxRectangle width="540" height="56" as="alternateBounds" />
          </mxGeometry>
        </mxCell>
        <mxCell id="yVRLo9RjWcmBAKcRKdF0-122" value="&lt;font style=&quot;font-size: 30px;&quot;&gt;動画制作者&lt;/font&gt;" style="connectable=0;recursiveResize=0;strokeColor=inherit;fillColor=default;align=left;whiteSpace=wrap;html=1;" parent="yVRLo9RjWcmBAKcRKdF0-113" vertex="1">
          <mxGeometry x="3010" width="240" height="56" as="geometry">
            <mxRectangle width="240" height="56" as="alternateBounds" />
          </mxGeometry>
        </mxCell>
        <mxCell id="yVRLo9RjWcmBAKcRKdF0-123" style="connectable=0;recursiveResize=0;strokeColor=inherit;fillColor=none;align=center;whiteSpace=wrap;html=1;" parent="yVRLo9RjWcmBAKcRKdF0-113" vertex="1">
          <mxGeometry x="3250" width="300" height="56" as="geometry">
            <mxRectangle width="300" height="56" as="alternateBounds" />
          </mxGeometry>
        </mxCell>
        <mxCell id="yVRLo9RjWcmBAKcRKdF0-102" style="shape=tableRow;horizontal=0;startSize=0;swimlaneHead=0;swimlaneBody=0;top=0;left=0;bottom=0;right=0;dropTarget=0;collapsible=0;recursiveResize=0;expand=0;fontStyle=0;fillColor=none;strokeColor=inherit;align=right;" parent="yVRLo9RjWcmBAKcRKdF0-20" vertex="1">
          <mxGeometry y="230" width="3550" height="59" as="geometry" />
        </mxCell>
        <mxCell id="yVRLo9RjWcmBAKcRKdF0-105" value="&lt;span style=&quot;font-size: 30px;&quot;&gt;水田町私設応援団1&lt;/span&gt;" style="connectable=0;recursiveResize=0;strokeColor=inherit;fillColor=none;align=left;whiteSpace=wrap;html=1;" parent="yVRLo9RjWcmBAKcRKdF0-102" vertex="1">
          <mxGeometry width="460" height="59" as="geometry">
            <mxRectangle width="460" height="59" as="alternateBounds" />
          </mxGeometry>
        </mxCell>
        <mxCell id="yVRLo9RjWcmBAKcRKdF0-106" value="&lt;font style=&quot;font-size: 30px;&quot;&gt;その他の団体&lt;/font&gt;" style="connectable=0;recursiveResize=0;strokeColor=inherit;fillColor=none;align=left;whiteSpace=wrap;html=1;" parent="yVRLo9RjWcmBAKcRKdF0-102" vertex="1">
          <mxGeometry x="460" width="220" height="59" as="geometry">
            <mxRectangle width="220" height="59" as="alternateBounds" />
          </mxGeometry>
        </mxCell>
        <mxCell id="yVRLo9RjWcmBAKcRKdF0-137" value="" style="connectable=0;recursiveResize=0;strokeColor=inherit;fillColor=none;align=center;whiteSpace=wrap;html=1;" parent="yVRLo9RjWcmBAKcRKdF0-102" vertex="1">
          <mxGeometry x="680" width="200" height="59" as="geometry">
            <mxRectangle width="200" height="59" as="alternateBounds" />
          </mxGeometry>
        </mxCell>
        <mxCell id="yVRLo9RjWcmBAKcRKdF0-164" value="&lt;span style=&quot;font-size: 30px;&quot;&gt;政治団体　三郎&lt;/span&gt;" style="connectable=0;recursiveResize=0;strokeColor=inherit;fillColor=none;align=left;whiteSpace=wrap;html=1;" parent="yVRLo9RjWcmBAKcRKdF0-102" vertex="1">
          <mxGeometry x="880" width="330" height="59" as="geometry">
            <mxRectangle width="330" height="59" as="alternateBounds" />
          </mxGeometry>
        </mxCell>
        <mxCell id="yVRLo9RjWcmBAKcRKdF0-182" value="&lt;span style=&quot;font-size: 30px;&quot;&gt;現職&lt;/span&gt;" style="connectable=0;recursiveResize=0;strokeColor=inherit;fillColor=default;align=left;whiteSpace=wrap;html=1;" parent="yVRLo9RjWcmBAKcRKdF0-102" vertex="1">
          <mxGeometry x="1210" width="120" height="59" as="geometry">
            <mxRectangle width="120" height="59" as="alternateBounds" />
          </mxGeometry>
        </mxCell>
        <mxCell id="yVRLo9RjWcmBAKcRKdF0-155" value="&lt;span style=&quot;font-size: 30px;&quot;&gt;7.寄付-1.個人&lt;/span&gt;" style="connectable=0;recursiveResize=0;strokeColor=inherit;fillColor=none;align=left;whiteSpace=wrap;html=1;" parent="yVRLo9RjWcmBAKcRKdF0-102" vertex="1">
          <mxGeometry x="1330" width="230" height="59" as="geometry">
            <mxRectangle width="230" height="59" as="alternateBounds" />
          </mxGeometry>
        </mxCell>
        <mxCell id="yVRLo9RjWcmBAKcRKdF0-146" value="&lt;br&gt;&lt;span style=&quot;font-size: 30px;&quot;&gt;11&lt;/span&gt;&lt;div&gt;&lt;br style=&quot;&quot;&gt;&lt;/div&gt;" style="connectable=0;recursiveResize=0;strokeColor=inherit;fillColor=none;align=right;whiteSpace=wrap;html=1;" parent="yVRLo9RjWcmBAKcRKdF0-102" vertex="1">
          <mxGeometry x="1560" width="60" height="59" as="geometry">
            <mxRectangle width="60" height="59" as="alternateBounds" />
          </mxGeometry>
        </mxCell>
        <mxCell id="r01p0lLt0XGwaa7xkesd-12" value="&lt;span style=&quot;font-size: 30px;&quot;&gt;7351&lt;/span&gt;" style="connectable=0;recursiveResize=0;strokeColor=inherit;fillColor=none;align=right;whiteSpace=wrap;html=1;" parent="yVRLo9RjWcmBAKcRKdF0-102" vertex="1">
          <mxGeometry x="1620" width="150" height="59" as="geometry">
            <mxRectangle width="150" height="59" as="alternateBounds" />
          </mxGeometry>
        </mxCell>
        <mxCell id="yVRLo9RjWcmBAKcRKdF0-107" value="&lt;span style=&quot;font-size: 30px;&quot;&gt;個人名太郎&lt;/span&gt;" style="connectable=0;recursiveResize=0;strokeColor=inherit;fillColor=none;align=left;whiteSpace=wrap;html=1;" parent="yVRLo9RjWcmBAKcRKdF0-102" vertex="1">
          <mxGeometry x="1770" width="280" height="59" as="geometry">
            <mxRectangle width="280" height="59" as="alternateBounds" />
          </mxGeometry>
        </mxCell>
        <mxCell id="yVRLo9RjWcmBAKcRKdF0-108" value="&lt;span style=&quot;font-size: 30px;&quot;&gt;1,450,000&lt;/span&gt;" style="connectable=0;recursiveResize=0;strokeColor=inherit;fillColor=none;align=right;whiteSpace=wrap;html=1;" parent="yVRLo9RjWcmBAKcRKdF0-102" vertex="1">
          <mxGeometry x="2050" width="240" height="59" as="geometry">
            <mxRectangle width="240" height="59" as="alternateBounds" />
          </mxGeometry>
        </mxCell>
        <mxCell id="yVRLo9RjWcmBAKcRKdF0-109" value="&lt;span style=&quot;font-size: 30px;&quot;&gt;2022-12-13&lt;/span&gt;" style="connectable=0;recursiveResize=0;strokeColor=inherit;fillColor=none;align=right;whiteSpace=wrap;html=1;" parent="yVRLo9RjWcmBAKcRKdF0-102" vertex="1">
          <mxGeometry x="2290" width="180" height="59" as="geometry">
            <mxRectangle width="180" height="59" as="alternateBounds" />
          </mxGeometry>
        </mxCell>
        <mxCell id="yVRLo9RjWcmBAKcRKdF0-110" value="&lt;span style=&quot;font-size: 30px;&quot;&gt;宮城県架空1市&lt;/span&gt;&lt;span style=&quot;font-size: 30px;&quot;&gt;水田町3丁目4番地9&lt;/span&gt;" style="connectable=0;recursiveResize=0;strokeColor=inherit;fillColor=none;align=left;whiteSpace=wrap;html=1;" parent="yVRLo9RjWcmBAKcRKdF0-102" vertex="1">
          <mxGeometry x="2470" width="540" height="59" as="geometry">
            <mxRectangle width="540" height="59" as="alternateBounds" />
          </mxGeometry>
        </mxCell>
        <mxCell id="yVRLo9RjWcmBAKcRKdF0-111" value="&lt;span style=&quot;font-size: 30px;&quot;&gt;動画制作者&lt;/span&gt;" style="connectable=0;recursiveResize=0;strokeColor=inherit;fillColor=default;align=left;whiteSpace=wrap;html=1;" parent="yVRLo9RjWcmBAKcRKdF0-102" vertex="1">
          <mxGeometry x="3010" width="240" height="59" as="geometry">
            <mxRectangle width="240" height="59" as="alternateBounds" />
          </mxGeometry>
        </mxCell>
        <mxCell id="yVRLo9RjWcmBAKcRKdF0-112" style="connectable=0;recursiveResize=0;strokeColor=inherit;fillColor=none;align=center;whiteSpace=wrap;html=1;" parent="yVRLo9RjWcmBAKcRKdF0-102" vertex="1">
          <mxGeometry x="3250" width="300" height="59" as="geometry">
            <mxRectangle width="300" height="59" as="alternateBounds" />
          </mxGeometry>
        </mxCell>
        <mxCell id="yVRLo9RjWcmBAKcRKdF0-91" style="shape=tableRow;horizontal=0;startSize=0;swimlaneHead=0;swimlaneBody=0;top=0;left=0;bottom=0;right=0;dropTarget=0;collapsible=0;recursiveResize=0;expand=0;fontStyle=0;fillColor=none;strokeColor=inherit;align=right;verticalAlign=middle;" parent="yVRLo9RjWcmBAKcRKdF0-20" vertex="1">
          <mxGeometry y="289" width="3550" height="60" as="geometry" />
        </mxCell>
        <mxCell id="yVRLo9RjWcmBAKcRKdF0-94" value="&lt;span style=&quot;color: rgb(0, 0, 0); font-family: Helvetica; font-size: 30px; font-style: normal; font-variant-ligatures: normal; font-variant-caps: normal; font-weight: 400; letter-spacing: normal; orphans: 2; text-align: left; text-indent: 0px; text-transform: none; widows: 2; word-spacing: 0px; -webkit-text-stroke-width: 0px; white-space: normal; text-decoration-thickness: initial; text-decoration-style: initial; text-decoration-color: initial; float: none; display: inline !important;&quot;&gt;架空市を発展する議論をする会1&lt;/span&gt;&lt;div&gt;&lt;br&gt;&lt;/div&gt;" style="connectable=0;recursiveResize=0;strokeColor=inherit;fillColor=none;align=left;whiteSpace=wrap;html=1;" parent="yVRLo9RjWcmBAKcRKdF0-91" vertex="1">
          <mxGeometry width="460" height="60" as="geometry">
            <mxRectangle width="460" height="60" as="alternateBounds" />
          </mxGeometry>
        </mxCell>
        <mxCell id="yVRLo9RjWcmBAKcRKdF0-95" value="&lt;span style=&quot;font-size: 30px;&quot;&gt;その他の団体&lt;/span&gt;" style="connectable=0;recursiveResize=0;strokeColor=inherit;fillColor=none;align=left;whiteSpace=wrap;html=1;" parent="yVRLo9RjWcmBAKcRKdF0-91" vertex="1">
          <mxGeometry x="460" width="220" height="60" as="geometry">
            <mxRectangle width="220" height="60" as="alternateBounds" />
          </mxGeometry>
        </mxCell>
        <mxCell id="yVRLo9RjWcmBAKcRKdF0-138" value="" style="connectable=0;recursiveResize=0;strokeColor=inherit;fillColor=none;align=center;whiteSpace=wrap;html=1;" parent="yVRLo9RjWcmBAKcRKdF0-91" vertex="1">
          <mxGeometry x="680" width="200" height="60" as="geometry">
            <mxRectangle width="200" height="60" as="alternateBounds" />
          </mxGeometry>
        </mxCell>
        <mxCell id="yVRLo9RjWcmBAKcRKdF0-165" value="&lt;span style=&quot;font-size: 30px;&quot;&gt;政治団体　三郎&lt;/span&gt;" style="connectable=0;recursiveResize=0;strokeColor=inherit;fillColor=none;align=left;whiteSpace=wrap;html=1;" parent="yVRLo9RjWcmBAKcRKdF0-91" vertex="1">
          <mxGeometry x="880" width="330" height="60" as="geometry">
            <mxRectangle width="330" height="60" as="alternateBounds" />
          </mxGeometry>
        </mxCell>
        <mxCell id="yVRLo9RjWcmBAKcRKdF0-183" value="&lt;span style=&quot;font-size: 30px;&quot;&gt;現職&lt;/span&gt;" style="connectable=0;recursiveResize=0;strokeColor=inherit;fillColor=default;align=left;whiteSpace=wrap;html=1;" parent="yVRLo9RjWcmBAKcRKdF0-91" vertex="1">
          <mxGeometry x="1210" width="120" height="60" as="geometry">
            <mxRectangle width="120" height="60" as="alternateBounds" />
          </mxGeometry>
        </mxCell>
        <mxCell id="yVRLo9RjWcmBAKcRKdF0-156" value="&lt;span style=&quot;font-size: 30px;&quot;&gt;7.寄付-1.個人&lt;/span&gt;" style="connectable=0;recursiveResize=0;strokeColor=inherit;fillColor=none;align=left;whiteSpace=wrap;html=1;" parent="yVRLo9RjWcmBAKcRKdF0-91" vertex="1">
          <mxGeometry x="1330" width="230" height="60" as="geometry">
            <mxRectangle width="230" height="60" as="alternateBounds" />
          </mxGeometry>
        </mxCell>
        <mxCell id="yVRLo9RjWcmBAKcRKdF0-147" value="&lt;br&gt;&lt;span style=&quot;font-size: 30px;&quot;&gt;11&lt;/span&gt;&lt;div&gt;&lt;br style=&quot;&quot;&gt;&lt;/div&gt;" style="connectable=0;recursiveResize=0;strokeColor=inherit;fillColor=none;align=right;whiteSpace=wrap;html=1;" parent="yVRLo9RjWcmBAKcRKdF0-91" vertex="1">
          <mxGeometry x="1560" width="60" height="60" as="geometry">
            <mxRectangle width="60" height="60" as="alternateBounds" />
          </mxGeometry>
        </mxCell>
        <mxCell id="r01p0lLt0XGwaa7xkesd-13" value="&#xa;&lt;span style=&quot;color: rgb(0, 0, 0); font-family: Helvetica; font-size: 30px; font-style: normal; font-variant-ligatures: normal; font-variant-caps: normal; font-weight: 400; letter-spacing: normal; orphans: 2; text-indent: 0px; text-transform: none; widows: 2; word-spacing: 0px; -webkit-text-stroke-width: 0px; white-space: normal; background-color: rgb(251, 251, 251); text-decoration-thickness: initial; text-decoration-style: initial; text-decoration-color: initial; float: none; display: inline !important;&quot;&gt;7351&lt;/span&gt;&#xa;&#xa;" style="connectable=0;recursiveResize=0;strokeColor=inherit;fillColor=none;align=right;whiteSpace=wrap;html=1;" parent="yVRLo9RjWcmBAKcRKdF0-91" vertex="1">
          <mxGeometry x="1620" width="150" height="60" as="geometry">
            <mxRectangle width="150" height="60" as="alternateBounds" />
          </mxGeometry>
        </mxCell>
        <mxCell id="yVRLo9RjWcmBAKcRKdF0-96" value="&lt;span style=&quot;font-size: 30px;&quot;&gt;個人名太郎&lt;/span&gt;" style="connectable=0;recursiveResize=0;strokeColor=inherit;fillColor=none;align=left;whiteSpace=wrap;html=1;" parent="yVRLo9RjWcmBAKcRKdF0-91" vertex="1">
          <mxGeometry x="1770" width="280" height="60" as="geometry">
            <mxRectangle width="280" height="60" as="alternateBounds" />
          </mxGeometry>
        </mxCell>
        <mxCell id="yVRLo9RjWcmBAKcRKdF0-97" value="&lt;span style=&quot;font-size: 30px;&quot;&gt;1,450,000&lt;/span&gt;" style="connectable=0;recursiveResize=0;strokeColor=inherit;fillColor=none;align=right;whiteSpace=wrap;html=1;" parent="yVRLo9RjWcmBAKcRKdF0-91" vertex="1">
          <mxGeometry x="2050" width="240" height="60" as="geometry">
            <mxRectangle width="240" height="60" as="alternateBounds" />
          </mxGeometry>
        </mxCell>
        <mxCell id="yVRLo9RjWcmBAKcRKdF0-98" value="&lt;span style=&quot;font-size: 30px;&quot;&gt;2022-12-13&lt;/span&gt;" style="connectable=0;recursiveResize=0;strokeColor=inherit;fillColor=none;align=right;whiteSpace=wrap;html=1;" parent="yVRLo9RjWcmBAKcRKdF0-91" vertex="1">
          <mxGeometry x="2290" width="180" height="60" as="geometry">
            <mxRectangle width="180" height="60" as="alternateBounds" />
          </mxGeometry>
        </mxCell>
        <mxCell id="yVRLo9RjWcmBAKcRKdF0-99" value="&lt;span style=&quot;font-size: 30px;&quot;&gt;宮城県架空1市&lt;/span&gt;&lt;span style=&quot;font-size: 30px;&quot;&gt;水田町3丁目4番地9&lt;/span&gt;" style="connectable=0;recursiveResize=0;strokeColor=inherit;fillColor=none;align=left;whiteSpace=wrap;html=1;" parent="yVRLo9RjWcmBAKcRKdF0-91" vertex="1">
          <mxGeometry x="2470" width="540" height="60" as="geometry">
            <mxRectangle width="540" height="60" as="alternateBounds" />
          </mxGeometry>
        </mxCell>
        <mxCell id="yVRLo9RjWcmBAKcRKdF0-100" value="&lt;span style=&quot;font-size: 30px;&quot;&gt;動画制作者&lt;/span&gt;" style="connectable=0;recursiveResize=0;strokeColor=inherit;fillColor=default;align=left;whiteSpace=wrap;html=1;" parent="yVRLo9RjWcmBAKcRKdF0-91" vertex="1">
          <mxGeometry x="3010" width="240" height="60" as="geometry">
            <mxRectangle width="240" height="60" as="alternateBounds" />
          </mxGeometry>
        </mxCell>
        <mxCell id="yVRLo9RjWcmBAKcRKdF0-101" style="connectable=0;recursiveResize=0;strokeColor=inherit;fillColor=none;align=center;whiteSpace=wrap;html=1;" parent="yVRLo9RjWcmBAKcRKdF0-91" vertex="1">
          <mxGeometry x="3250" width="300" height="60" as="geometry">
            <mxRectangle width="300" height="60" as="alternateBounds" />
          </mxGeometry>
        </mxCell>
        <mxCell id="yVRLo9RjWcmBAKcRKdF0-80" style="shape=tableRow;horizontal=0;startSize=0;swimlaneHead=0;swimlaneBody=0;top=0;left=0;bottom=0;right=0;dropTarget=0;collapsible=0;recursiveResize=0;expand=0;fontStyle=0;fillColor=none;strokeColor=inherit;align=right;" parent="yVRLo9RjWcmBAKcRKdF0-20" vertex="1">
          <mxGeometry y="349" width="3550" height="50" as="geometry" />
        </mxCell>
        <mxCell id="yVRLo9RjWcmBAKcRKdF0-83" value="&lt;span style=&quot;font-size: 30px;&quot;&gt;政治団体一郎君を応援する会2&lt;/span&gt;" style="connectable=0;recursiveResize=0;strokeColor=inherit;fillColor=none;align=left;whiteSpace=wrap;html=1;" parent="yVRLo9RjWcmBAKcRKdF0-80" vertex="1">
          <mxGeometry width="460" height="50" as="geometry">
            <mxRectangle width="460" height="50" as="alternateBounds" />
          </mxGeometry>
        </mxCell>
        <mxCell id="yVRLo9RjWcmBAKcRKdF0-84" value="&lt;span style=&quot;font-size: 30px;&quot;&gt;その他の団体&lt;/span&gt;" style="connectable=0;recursiveResize=0;strokeColor=inherit;fillColor=none;align=left;whiteSpace=wrap;html=1;" parent="yVRLo9RjWcmBAKcRKdF0-80" vertex="1">
          <mxGeometry x="460" width="220" height="50" as="geometry">
            <mxRectangle width="220" height="50" as="alternateBounds" />
          </mxGeometry>
        </mxCell>
        <mxCell id="yVRLo9RjWcmBAKcRKdF0-139" value="" style="connectable=0;recursiveResize=0;strokeColor=inherit;fillColor=none;align=center;whiteSpace=wrap;html=1;" parent="yVRLo9RjWcmBAKcRKdF0-80" vertex="1">
          <mxGeometry x="680" width="200" height="50" as="geometry">
            <mxRectangle width="200" height="50" as="alternateBounds" />
          </mxGeometry>
        </mxCell>
        <mxCell id="yVRLo9RjWcmBAKcRKdF0-166" value="&lt;span style=&quot;font-size: 30px;&quot;&gt;政治団体　一郎&lt;/span&gt;" style="connectable=0;recursiveResize=0;strokeColor=inherit;fillColor=none;align=left;whiteSpace=wrap;html=1;" parent="yVRLo9RjWcmBAKcRKdF0-80" vertex="1">
          <mxGeometry x="880" width="330" height="50" as="geometry">
            <mxRectangle width="330" height="50" as="alternateBounds" />
          </mxGeometry>
        </mxCell>
        <mxCell id="yVRLo9RjWcmBAKcRKdF0-184" value="&lt;span style=&quot;font-size: 30px;&quot;&gt;現職&lt;/span&gt;" style="connectable=0;recursiveResize=0;strokeColor=inherit;fillColor=default;align=left;whiteSpace=wrap;html=1;" parent="yVRLo9RjWcmBAKcRKdF0-80" vertex="1">
          <mxGeometry x="1210" width="120" height="50" as="geometry">
            <mxRectangle width="120" height="50" as="alternateBounds" />
          </mxGeometry>
        </mxCell>
        <mxCell id="yVRLo9RjWcmBAKcRKdF0-157" value="&lt;span style=&quot;font-size: 30px;&quot;&gt;7.寄付-1.個人&lt;/span&gt;" style="connectable=0;recursiveResize=0;strokeColor=inherit;fillColor=none;align=left;whiteSpace=wrap;html=1;" parent="yVRLo9RjWcmBAKcRKdF0-80" vertex="1">
          <mxGeometry x="1330" width="230" height="50" as="geometry">
            <mxRectangle width="230" height="50" as="alternateBounds" />
          </mxGeometry>
        </mxCell>
        <mxCell id="yVRLo9RjWcmBAKcRKdF0-148" value="&lt;br&gt;&lt;span style=&quot;font-size: 30px;&quot;&gt;11&lt;/span&gt;&lt;div&gt;&lt;br style=&quot;&quot;&gt;&lt;/div&gt;" style="connectable=0;recursiveResize=0;strokeColor=inherit;fillColor=none;align=right;whiteSpace=wrap;html=1;" parent="yVRLo9RjWcmBAKcRKdF0-80" vertex="1">
          <mxGeometry x="1560" width="60" height="50" as="geometry">
            <mxRectangle width="60" height="50" as="alternateBounds" />
          </mxGeometry>
        </mxCell>
        <mxCell id="r01p0lLt0XGwaa7xkesd-14" value="&#xa;&lt;span style=&quot;color: rgb(0, 0, 0); font-family: Helvetica; font-size: 30px; font-style: normal; font-variant-ligatures: normal; font-variant-caps: normal; font-weight: 400; letter-spacing: normal; orphans: 2; text-indent: 0px; text-transform: none; widows: 2; word-spacing: 0px; -webkit-text-stroke-width: 0px; white-space: normal; background-color: rgb(251, 251, 251); text-decoration-thickness: initial; text-decoration-style: initial; text-decoration-color: initial; float: none; display: inline !important;&quot;&gt;7351&lt;/span&gt;&#xa;&#xa;" style="connectable=0;recursiveResize=0;strokeColor=inherit;fillColor=none;align=right;whiteSpace=wrap;html=1;" parent="yVRLo9RjWcmBAKcRKdF0-80" vertex="1">
          <mxGeometry x="1620" width="150" height="50" as="geometry">
            <mxRectangle width="150" height="50" as="alternateBounds" />
          </mxGeometry>
        </mxCell>
        <mxCell id="yVRLo9RjWcmBAKcRKdF0-85" value="&lt;span style=&quot;font-size: 30px;&quot;&gt;個人名太郎&lt;/span&gt;" style="connectable=0;recursiveResize=0;strokeColor=inherit;fillColor=none;align=left;whiteSpace=wrap;html=1;" parent="yVRLo9RjWcmBAKcRKdF0-80" vertex="1">
          <mxGeometry x="1770" width="280" height="50" as="geometry">
            <mxRectangle width="280" height="50" as="alternateBounds" />
          </mxGeometry>
        </mxCell>
        <mxCell id="yVRLo9RjWcmBAKcRKdF0-86" value="&lt;span style=&quot;font-size: 30px;&quot;&gt;1,450,000&lt;/span&gt;" style="connectable=0;recursiveResize=0;strokeColor=inherit;fillColor=none;align=right;whiteSpace=wrap;html=1;" parent="yVRLo9RjWcmBAKcRKdF0-80" vertex="1">
          <mxGeometry x="2050" width="240" height="50" as="geometry">
            <mxRectangle width="240" height="50" as="alternateBounds" />
          </mxGeometry>
        </mxCell>
        <mxCell id="yVRLo9RjWcmBAKcRKdF0-87" value="&lt;span style=&quot;font-size: 30px;&quot;&gt;2022-12-13&lt;/span&gt;" style="connectable=0;recursiveResize=0;strokeColor=inherit;fillColor=none;align=right;whiteSpace=wrap;html=1;" parent="yVRLo9RjWcmBAKcRKdF0-80" vertex="1">
          <mxGeometry x="2290" width="180" height="50" as="geometry">
            <mxRectangle width="180" height="50" as="alternateBounds" />
          </mxGeometry>
        </mxCell>
        <mxCell id="yVRLo9RjWcmBAKcRKdF0-88" value="&lt;span style=&quot;font-size: 30px;&quot;&gt;宮城県架空1市&lt;/span&gt;&lt;span style=&quot;font-size: 30px;&quot;&gt;水田町3丁目4番地9&lt;/span&gt;" style="connectable=0;recursiveResize=0;strokeColor=inherit;fillColor=none;align=left;whiteSpace=wrap;html=1;" parent="yVRLo9RjWcmBAKcRKdF0-80" vertex="1">
          <mxGeometry x="2470" width="540" height="50" as="geometry">
            <mxRectangle width="540" height="50" as="alternateBounds" />
          </mxGeometry>
        </mxCell>
        <mxCell id="yVRLo9RjWcmBAKcRKdF0-89" value="&lt;span style=&quot;font-size: 30px;&quot;&gt;TickTokker&lt;/span&gt;" style="connectable=0;recursiveResize=0;strokeColor=inherit;fillColor=default;align=left;whiteSpace=wrap;html=1;" parent="yVRLo9RjWcmBAKcRKdF0-80" vertex="1">
          <mxGeometry x="3010" width="240" height="50" as="geometry">
            <mxRectangle width="240" height="50" as="alternateBounds" />
          </mxGeometry>
        </mxCell>
        <mxCell id="yVRLo9RjWcmBAKcRKdF0-90" style="connectable=0;recursiveResize=0;strokeColor=inherit;fillColor=none;align=center;whiteSpace=wrap;html=1;" parent="yVRLo9RjWcmBAKcRKdF0-80" vertex="1">
          <mxGeometry x="3250" width="300" height="50" as="geometry">
            <mxRectangle width="300" height="50" as="alternateBounds" />
          </mxGeometry>
        </mxCell>
        <mxCell id="yVRLo9RjWcmBAKcRKdF0-69" style="shape=tableRow;horizontal=0;startSize=0;swimlaneHead=0;swimlaneBody=0;top=0;left=0;bottom=0;right=0;dropTarget=0;collapsible=0;recursiveResize=0;expand=0;fontStyle=0;fillColor=none;strokeColor=inherit;align=right;" parent="yVRLo9RjWcmBAKcRKdF0-20" vertex="1">
          <mxGeometry y="399" width="3550" height="47" as="geometry" />
        </mxCell>
        <mxCell id="yVRLo9RjWcmBAKcRKdF0-72" value="&lt;span style=&quot;font-size: 30px;&quot;&gt;水田町政治懇談会3&lt;/span&gt;" style="connectable=0;recursiveResize=0;strokeColor=inherit;fillColor=none;align=left;whiteSpace=wrap;html=1;" parent="yVRLo9RjWcmBAKcRKdF0-69" vertex="1">
          <mxGeometry width="460" height="47" as="geometry">
            <mxRectangle width="460" height="47" as="alternateBounds" />
          </mxGeometry>
        </mxCell>
        <mxCell id="yVRLo9RjWcmBAKcRKdF0-73" value="&lt;span style=&quot;font-size: 30px;&quot;&gt;その他の団体&lt;/span&gt;" style="connectable=0;recursiveResize=0;strokeColor=inherit;fillColor=none;align=left;whiteSpace=wrap;html=1;" parent="yVRLo9RjWcmBAKcRKdF0-69" vertex="1">
          <mxGeometry x="460" width="220" height="47" as="geometry">
            <mxRectangle width="220" height="47" as="alternateBounds" />
          </mxGeometry>
        </mxCell>
        <mxCell id="yVRLo9RjWcmBAKcRKdF0-140" value="&lt;span style=&quot;font-size: 30px;&quot;&gt;あり&lt;/span&gt;" style="connectable=0;recursiveResize=0;strokeColor=inherit;fillColor=none;align=center;whiteSpace=wrap;html=1;" parent="yVRLo9RjWcmBAKcRKdF0-69" vertex="1">
          <mxGeometry x="680" width="200" height="47" as="geometry">
            <mxRectangle width="200" height="47" as="alternateBounds" />
          </mxGeometry>
        </mxCell>
        <mxCell id="yVRLo9RjWcmBAKcRKdF0-167" value="&lt;span style=&quot;font-size: 30px;&quot;&gt;政治団体　一郎&lt;/span&gt;" style="connectable=0;recursiveResize=0;strokeColor=inherit;fillColor=none;align=left;whiteSpace=wrap;html=1;" parent="yVRLo9RjWcmBAKcRKdF0-69" vertex="1">
          <mxGeometry x="880" width="330" height="47" as="geometry">
            <mxRectangle width="330" height="47" as="alternateBounds" />
          </mxGeometry>
        </mxCell>
        <mxCell id="yVRLo9RjWcmBAKcRKdF0-185" value="&lt;span style=&quot;font-size: 30px;&quot;&gt;現職&lt;/span&gt;" style="connectable=0;recursiveResize=0;strokeColor=inherit;fillColor=default;align=left;whiteSpace=wrap;html=1;" parent="yVRLo9RjWcmBAKcRKdF0-69" vertex="1">
          <mxGeometry x="1210" width="120" height="47" as="geometry">
            <mxRectangle width="120" height="47" as="alternateBounds" />
          </mxGeometry>
        </mxCell>
        <mxCell id="yVRLo9RjWcmBAKcRKdF0-158" value="&lt;span style=&quot;font-size: 30px;&quot;&gt;7.寄付-1.個人&lt;/span&gt;" style="connectable=0;recursiveResize=0;strokeColor=inherit;fillColor=none;align=left;whiteSpace=wrap;html=1;" parent="yVRLo9RjWcmBAKcRKdF0-69" vertex="1">
          <mxGeometry x="1330" width="230" height="47" as="geometry">
            <mxRectangle width="230" height="47" as="alternateBounds" />
          </mxGeometry>
        </mxCell>
        <mxCell id="yVRLo9RjWcmBAKcRKdF0-149" value="&lt;br&gt;&lt;span style=&quot;font-size: 30px;&quot;&gt;11&lt;/span&gt;&lt;div&gt;&lt;br style=&quot;&quot;&gt;&lt;/div&gt;" style="connectable=0;recursiveResize=0;strokeColor=inherit;fillColor=none;align=right;whiteSpace=wrap;html=1;" parent="yVRLo9RjWcmBAKcRKdF0-69" vertex="1">
          <mxGeometry x="1560" width="60" height="47" as="geometry">
            <mxRectangle width="60" height="47" as="alternateBounds" />
          </mxGeometry>
        </mxCell>
        <mxCell id="r01p0lLt0XGwaa7xkesd-15" value="&#xa;&lt;span style=&quot;color: rgb(0, 0, 0); font-family: Helvetica; font-size: 30px; font-style: normal; font-variant-ligatures: normal; font-variant-caps: normal; font-weight: 400; letter-spacing: normal; orphans: 2; text-indent: 0px; text-transform: none; widows: 2; word-spacing: 0px; -webkit-text-stroke-width: 0px; white-space: normal; background-color: rgb(251, 251, 251); text-decoration-thickness: initial; text-decoration-style: initial; text-decoration-color: initial; float: none; display: inline !important;&quot;&gt;7351&lt;/span&gt;&#xa;&#xa;" style="connectable=0;recursiveResize=0;strokeColor=inherit;fillColor=none;align=right;whiteSpace=wrap;html=1;" parent="yVRLo9RjWcmBAKcRKdF0-69" vertex="1">
          <mxGeometry x="1620" width="150" height="47" as="geometry">
            <mxRectangle width="150" height="47" as="alternateBounds" />
          </mxGeometry>
        </mxCell>
        <mxCell id="yVRLo9RjWcmBAKcRKdF0-74" value="&lt;span style=&quot;font-size: 30px;&quot;&gt;個人名太郎&lt;/span&gt;" style="connectable=0;recursiveResize=0;strokeColor=inherit;fillColor=none;align=left;whiteSpace=wrap;html=1;" parent="yVRLo9RjWcmBAKcRKdF0-69" vertex="1">
          <mxGeometry x="1770" width="280" height="47" as="geometry">
            <mxRectangle width="280" height="47" as="alternateBounds" />
          </mxGeometry>
        </mxCell>
        <mxCell id="yVRLo9RjWcmBAKcRKdF0-75" value="&lt;span style=&quot;font-size: 30px;&quot;&gt;1,450,000&lt;/span&gt;" style="connectable=0;recursiveResize=0;strokeColor=inherit;fillColor=none;align=right;whiteSpace=wrap;html=1;" parent="yVRLo9RjWcmBAKcRKdF0-69" vertex="1">
          <mxGeometry x="2050" width="240" height="47" as="geometry">
            <mxRectangle width="240" height="47" as="alternateBounds" />
          </mxGeometry>
        </mxCell>
        <mxCell id="yVRLo9RjWcmBAKcRKdF0-76" value="&lt;span style=&quot;font-size: 30px;&quot;&gt;2022-12-13&lt;/span&gt;" style="connectable=0;recursiveResize=0;strokeColor=inherit;fillColor=none;align=right;whiteSpace=wrap;html=1;" parent="yVRLo9RjWcmBAKcRKdF0-69" vertex="1">
          <mxGeometry x="2290" width="180" height="47" as="geometry">
            <mxRectangle width="180" height="47" as="alternateBounds" />
          </mxGeometry>
        </mxCell>
        <mxCell id="yVRLo9RjWcmBAKcRKdF0-77" value="&lt;span style=&quot;font-size: 30px;&quot;&gt;宮城県架空1市&lt;/span&gt;&lt;span style=&quot;font-size: 30px;&quot;&gt;水田町3丁目4番地9&lt;/span&gt;" style="connectable=0;recursiveResize=0;strokeColor=inherit;fillColor=none;align=left;whiteSpace=wrap;html=1;" parent="yVRLo9RjWcmBAKcRKdF0-69" vertex="1">
          <mxGeometry x="2470" width="540" height="47" as="geometry">
            <mxRectangle width="540" height="47" as="alternateBounds" />
          </mxGeometry>
        </mxCell>
        <mxCell id="yVRLo9RjWcmBAKcRKdF0-78" value="&lt;span style=&quot;font-size: 30px;&quot;&gt;TickTokker&lt;/span&gt;" style="connectable=0;recursiveResize=0;strokeColor=inherit;fillColor=default;align=left;whiteSpace=wrap;html=1;" parent="yVRLo9RjWcmBAKcRKdF0-69" vertex="1">
          <mxGeometry x="3010" width="240" height="47" as="geometry">
            <mxRectangle width="240" height="47" as="alternateBounds" />
          </mxGeometry>
        </mxCell>
        <mxCell id="yVRLo9RjWcmBAKcRKdF0-79" style="connectable=0;recursiveResize=0;strokeColor=inherit;fillColor=none;align=center;whiteSpace=wrap;html=1;" parent="yVRLo9RjWcmBAKcRKdF0-69" vertex="1">
          <mxGeometry x="3250" width="300" height="47" as="geometry">
            <mxRectangle width="300" height="47" as="alternateBounds" />
          </mxGeometry>
        </mxCell>
        <mxCell id="yVRLo9RjWcmBAKcRKdF0-58" style="shape=tableRow;horizontal=0;startSize=0;swimlaneHead=0;swimlaneBody=0;top=0;left=0;bottom=0;right=0;dropTarget=0;collapsible=0;recursiveResize=0;expand=0;fontStyle=0;fillColor=none;strokeColor=inherit;align=right;" parent="yVRLo9RjWcmBAKcRKdF0-20" vertex="1">
          <mxGeometry y="446" width="3550" height="53" as="geometry" />
        </mxCell>
        <mxCell id="yVRLo9RjWcmBAKcRKdF0-61" value="&lt;span style=&quot;font-size: 30px;&quot;&gt;架空市応援会&lt;/span&gt;" style="connectable=0;recursiveResize=0;strokeColor=inherit;fillColor=none;align=left;whiteSpace=wrap;html=1;" parent="yVRLo9RjWcmBAKcRKdF0-58" vertex="1">
          <mxGeometry width="460" height="53" as="geometry">
            <mxRectangle width="460" height="53" as="alternateBounds" />
          </mxGeometry>
        </mxCell>
        <mxCell id="yVRLo9RjWcmBAKcRKdF0-62" value="&lt;span style=&quot;font-size: 30px;&quot;&gt;その他の団体&lt;/span&gt;" style="connectable=0;recursiveResize=0;strokeColor=inherit;fillColor=none;align=left;whiteSpace=wrap;html=1;" parent="yVRLo9RjWcmBAKcRKdF0-58" vertex="1">
          <mxGeometry x="460" width="220" height="53" as="geometry">
            <mxRectangle width="220" height="53" as="alternateBounds" />
          </mxGeometry>
        </mxCell>
        <mxCell id="yVRLo9RjWcmBAKcRKdF0-141" value="" style="connectable=0;recursiveResize=0;strokeColor=inherit;fillColor=none;align=center;whiteSpace=wrap;html=1;" parent="yVRLo9RjWcmBAKcRKdF0-58" vertex="1">
          <mxGeometry x="680" width="200" height="53" as="geometry">
            <mxRectangle width="200" height="53" as="alternateBounds" />
          </mxGeometry>
        </mxCell>
        <mxCell id="yVRLo9RjWcmBAKcRKdF0-168" value="&lt;span style=&quot;font-size: 30px;&quot;&gt;個人名太郎&lt;/span&gt;" style="connectable=0;recursiveResize=0;strokeColor=inherit;fillColor=none;align=left;whiteSpace=wrap;html=1;" parent="yVRLo9RjWcmBAKcRKdF0-58" vertex="1">
          <mxGeometry x="880" width="330" height="53" as="geometry">
            <mxRectangle width="330" height="53" as="alternateBounds" />
          </mxGeometry>
        </mxCell>
        <mxCell id="yVRLo9RjWcmBAKcRKdF0-186" value="&lt;span style=&quot;font-size: 30px;&quot;&gt;現職&lt;/span&gt;" style="connectable=0;recursiveResize=0;strokeColor=inherit;fillColor=default;align=left;whiteSpace=wrap;html=1;" parent="yVRLo9RjWcmBAKcRKdF0-58" vertex="1">
          <mxGeometry x="1210" width="120" height="53" as="geometry">
            <mxRectangle width="120" height="53" as="alternateBounds" />
          </mxGeometry>
        </mxCell>
        <mxCell id="yVRLo9RjWcmBAKcRKdF0-159" value="&lt;span style=&quot;font-size: 30px;&quot;&gt;7.寄付-1.個人&lt;/span&gt;" style="connectable=0;recursiveResize=0;strokeColor=inherit;fillColor=none;align=left;whiteSpace=wrap;html=1;" parent="yVRLo9RjWcmBAKcRKdF0-58" vertex="1">
          <mxGeometry x="1330" width="230" height="53" as="geometry">
            <mxRectangle width="230" height="53" as="alternateBounds" />
          </mxGeometry>
        </mxCell>
        <mxCell id="yVRLo9RjWcmBAKcRKdF0-150" value="&lt;br&gt;&lt;span style=&quot;font-size: 30px;&quot;&gt;11&lt;/span&gt;&lt;div&gt;&lt;br style=&quot;&quot;&gt;&lt;/div&gt;" style="connectable=0;recursiveResize=0;strokeColor=inherit;fillColor=none;align=right;whiteSpace=wrap;html=1;" parent="yVRLo9RjWcmBAKcRKdF0-58" vertex="1">
          <mxGeometry x="1560" width="60" height="53" as="geometry">
            <mxRectangle width="60" height="53" as="alternateBounds" />
          </mxGeometry>
        </mxCell>
        <mxCell id="r01p0lLt0XGwaa7xkesd-16" value="&#xa;&lt;span style=&quot;color: rgb(0, 0, 0); font-family: Helvetica; font-size: 30px; font-style: normal; font-variant-ligatures: normal; font-variant-caps: normal; font-weight: 400; letter-spacing: normal; orphans: 2; text-indent: 0px; text-transform: none; widows: 2; word-spacing: 0px; -webkit-text-stroke-width: 0px; white-space: normal; background-color: rgb(251, 251, 251); text-decoration-thickness: initial; text-decoration-style: initial; text-decoration-color: initial; float: none; display: inline !important;&quot;&gt;7351&lt;/span&gt;&#xa;&#xa;" style="connectable=0;recursiveResize=0;strokeColor=inherit;fillColor=none;align=right;whiteSpace=wrap;html=1;" parent="yVRLo9RjWcmBAKcRKdF0-58" vertex="1">
          <mxGeometry x="1620" width="150" height="53" as="geometry">
            <mxRectangle width="150" height="53" as="alternateBounds" />
          </mxGeometry>
        </mxCell>
        <mxCell id="yVRLo9RjWcmBAKcRKdF0-63" value="&lt;span style=&quot;font-size: 30px;&quot;&gt;個人名太郎&lt;/span&gt;" style="connectable=0;recursiveResize=0;strokeColor=inherit;fillColor=none;align=left;whiteSpace=wrap;html=1;" parent="yVRLo9RjWcmBAKcRKdF0-58" vertex="1">
          <mxGeometry x="1770" width="280" height="53" as="geometry">
            <mxRectangle width="280" height="53" as="alternateBounds" />
          </mxGeometry>
        </mxCell>
        <mxCell id="yVRLo9RjWcmBAKcRKdF0-64" value="&lt;span style=&quot;font-size: 30px;&quot;&gt;1,450,000&lt;/span&gt;" style="connectable=0;recursiveResize=0;strokeColor=inherit;fillColor=none;align=right;whiteSpace=wrap;html=1;" parent="yVRLo9RjWcmBAKcRKdF0-58" vertex="1">
          <mxGeometry x="2050" width="240" height="53" as="geometry">
            <mxRectangle width="240" height="53" as="alternateBounds" />
          </mxGeometry>
        </mxCell>
        <mxCell id="yVRLo9RjWcmBAKcRKdF0-65" value="&lt;span style=&quot;font-size: 30px;&quot;&gt;2022-12-13&lt;/span&gt;" style="connectable=0;recursiveResize=0;strokeColor=inherit;fillColor=none;align=right;whiteSpace=wrap;html=1;" parent="yVRLo9RjWcmBAKcRKdF0-58" vertex="1">
          <mxGeometry x="2290" width="180" height="53" as="geometry">
            <mxRectangle width="180" height="53" as="alternateBounds" />
          </mxGeometry>
        </mxCell>
        <mxCell id="yVRLo9RjWcmBAKcRKdF0-66" value="&lt;span style=&quot;font-size: 30px;&quot;&gt;宮城県架空1市&lt;/span&gt;&lt;span style=&quot;font-size: 30px;&quot;&gt;水田町3丁目4番地9&lt;/span&gt;" style="connectable=0;recursiveResize=0;strokeColor=inherit;fillColor=none;align=left;whiteSpace=wrap;html=1;" parent="yVRLo9RjWcmBAKcRKdF0-58" vertex="1">
          <mxGeometry x="2470" width="540" height="53" as="geometry">
            <mxRectangle width="540" height="53" as="alternateBounds" />
          </mxGeometry>
        </mxCell>
        <mxCell id="yVRLo9RjWcmBAKcRKdF0-67" value="&lt;span style=&quot;font-size: 30px;&quot;&gt;TickTokker&lt;/span&gt;" style="connectable=0;recursiveResize=0;strokeColor=inherit;fillColor=default;align=left;whiteSpace=wrap;html=1;" parent="yVRLo9RjWcmBAKcRKdF0-58" vertex="1">
          <mxGeometry x="3010" width="240" height="53" as="geometry">
            <mxRectangle width="240" height="53" as="alternateBounds" />
          </mxGeometry>
        </mxCell>
        <mxCell id="yVRLo9RjWcmBAKcRKdF0-68" style="connectable=0;recursiveResize=0;strokeColor=inherit;fillColor=none;align=center;whiteSpace=wrap;html=1;" parent="yVRLo9RjWcmBAKcRKdF0-58" vertex="1">
          <mxGeometry x="3250" width="300" height="53" as="geometry">
            <mxRectangle width="300" height="53" as="alternateBounds" />
          </mxGeometry>
        </mxCell>
        <mxCell id="yVRLo9RjWcmBAKcRKdF0-273" style="shape=tableRow;horizontal=0;startSize=0;swimlaneHead=0;swimlaneBody=0;top=0;left=0;bottom=0;right=0;dropTarget=0;collapsible=0;recursiveResize=0;expand=0;fontStyle=0;fillColor=none;strokeColor=inherit;align=right;" parent="yVRLo9RjWcmBAKcRKdF0-20" vertex="1">
          <mxGeometry y="499" width="3550" height="53" as="geometry" />
        </mxCell>
        <mxCell id="yVRLo9RjWcmBAKcRKdF0-274" value="&lt;font style=&quot;font-size: 30px;&quot;&gt;ごみ拾いを推進する会&lt;/font&gt;" style="connectable=0;recursiveResize=0;strokeColor=inherit;fillColor=none;align=left;whiteSpace=wrap;html=1;" parent="yVRLo9RjWcmBAKcRKdF0-273" vertex="1">
          <mxGeometry width="460" height="53" as="geometry">
            <mxRectangle width="460" height="53" as="alternateBounds" />
          </mxGeometry>
        </mxCell>
        <mxCell id="yVRLo9RjWcmBAKcRKdF0-275" value="&lt;span style=&quot;font-size: 30px;&quot;&gt;その他の団体&lt;/span&gt;" style="connectable=0;recursiveResize=0;strokeColor=inherit;fillColor=none;align=left;whiteSpace=wrap;html=1;" parent="yVRLo9RjWcmBAKcRKdF0-273" vertex="1">
          <mxGeometry x="460" width="220" height="53" as="geometry">
            <mxRectangle width="220" height="53" as="alternateBounds" />
          </mxGeometry>
        </mxCell>
        <mxCell id="yVRLo9RjWcmBAKcRKdF0-276" value="&lt;span style=&quot;font-size: 30px;&quot;&gt;あり&lt;/span&gt;" style="connectable=0;recursiveResize=0;strokeColor=inherit;fillColor=none;align=center;whiteSpace=wrap;html=1;" parent="yVRLo9RjWcmBAKcRKdF0-273" vertex="1">
          <mxGeometry x="680" width="200" height="53" as="geometry">
            <mxRectangle width="200" height="53" as="alternateBounds" />
          </mxGeometry>
        </mxCell>
        <mxCell id="yVRLo9RjWcmBAKcRKdF0-277" value="&lt;span style=&quot;font-size: 30px;&quot;&gt;政治団体　花子&lt;/span&gt;" style="connectable=0;recursiveResize=0;strokeColor=inherit;fillColor=none;align=left;whiteSpace=wrap;html=1;" parent="yVRLo9RjWcmBAKcRKdF0-273" vertex="1">
          <mxGeometry x="880" width="330" height="53" as="geometry">
            <mxRectangle width="330" height="53" as="alternateBounds" />
          </mxGeometry>
        </mxCell>
        <mxCell id="yVRLo9RjWcmBAKcRKdF0-279" value="&lt;span style=&quot;font-size: 30px;&quot;&gt;現職&lt;/span&gt;" style="connectable=0;recursiveResize=0;strokeColor=inherit;fillColor=default;align=left;whiteSpace=wrap;html=1;" parent="yVRLo9RjWcmBAKcRKdF0-273" vertex="1">
          <mxGeometry x="1210" width="120" height="53" as="geometry">
            <mxRectangle width="120" height="53" as="alternateBounds" />
          </mxGeometry>
        </mxCell>
        <mxCell id="yVRLo9RjWcmBAKcRKdF0-280" value="&lt;span style=&quot;font-size: 30px;&quot;&gt;7.寄付-1.個人&lt;/span&gt;" style="connectable=0;recursiveResize=0;strokeColor=inherit;fillColor=none;align=left;whiteSpace=wrap;html=1;" parent="yVRLo9RjWcmBAKcRKdF0-273" vertex="1">
          <mxGeometry x="1330" width="230" height="53" as="geometry">
            <mxRectangle width="230" height="53" as="alternateBounds" />
          </mxGeometry>
        </mxCell>
        <mxCell id="yVRLo9RjWcmBAKcRKdF0-281" value="&lt;br&gt;&lt;span style=&quot;font-size: 30px;&quot;&gt;11&lt;/span&gt;&lt;div&gt;&lt;br style=&quot;&quot;&gt;&lt;/div&gt;" style="connectable=0;recursiveResize=0;strokeColor=inherit;fillColor=none;align=right;whiteSpace=wrap;html=1;" parent="yVRLo9RjWcmBAKcRKdF0-273" vertex="1">
          <mxGeometry x="1560" width="60" height="53" as="geometry">
            <mxRectangle width="60" height="53" as="alternateBounds" />
          </mxGeometry>
        </mxCell>
        <mxCell id="r01p0lLt0XGwaa7xkesd-17" value="&#xa;&lt;span style=&quot;color: rgb(0, 0, 0); font-family: Helvetica; font-size: 30px; font-style: normal; font-variant-ligatures: normal; font-variant-caps: normal; font-weight: 400; letter-spacing: normal; orphans: 2; text-indent: 0px; text-transform: none; widows: 2; word-spacing: 0px; -webkit-text-stroke-width: 0px; white-space: normal; background-color: rgb(251, 251, 251); text-decoration-thickness: initial; text-decoration-style: initial; text-decoration-color: initial; float: none; display: inline !important;&quot;&gt;7351&lt;/span&gt;&#xa;&#xa;" style="connectable=0;recursiveResize=0;strokeColor=inherit;fillColor=none;align=right;whiteSpace=wrap;html=1;" parent="yVRLo9RjWcmBAKcRKdF0-273" vertex="1">
          <mxGeometry x="1620" width="150" height="53" as="geometry">
            <mxRectangle width="150" height="53" as="alternateBounds" />
          </mxGeometry>
        </mxCell>
        <mxCell id="yVRLo9RjWcmBAKcRKdF0-282" value="&lt;span style=&quot;font-size: 30px;&quot;&gt;個人名太郎&lt;/span&gt;" style="connectable=0;recursiveResize=0;strokeColor=inherit;fillColor=none;align=left;whiteSpace=wrap;html=1;" parent="yVRLo9RjWcmBAKcRKdF0-273" vertex="1">
          <mxGeometry x="1770" width="280" height="53" as="geometry">
            <mxRectangle width="280" height="53" as="alternateBounds" />
          </mxGeometry>
        </mxCell>
        <mxCell id="yVRLo9RjWcmBAKcRKdF0-283" value="&lt;span style=&quot;font-size: 30px;&quot;&gt;1,450,000&lt;/span&gt;" style="connectable=0;recursiveResize=0;strokeColor=inherit;fillColor=none;align=right;whiteSpace=wrap;html=1;" parent="yVRLo9RjWcmBAKcRKdF0-273" vertex="1">
          <mxGeometry x="2050" width="240" height="53" as="geometry">
            <mxRectangle width="240" height="53" as="alternateBounds" />
          </mxGeometry>
        </mxCell>
        <mxCell id="yVRLo9RjWcmBAKcRKdF0-284" value="&lt;span style=&quot;font-size: 30px;&quot;&gt;2022-12-13&lt;/span&gt;" style="connectable=0;recursiveResize=0;strokeColor=inherit;fillColor=none;align=right;whiteSpace=wrap;html=1;" parent="yVRLo9RjWcmBAKcRKdF0-273" vertex="1">
          <mxGeometry x="2290" width="180" height="53" as="geometry">
            <mxRectangle width="180" height="53" as="alternateBounds" />
          </mxGeometry>
        </mxCell>
        <mxCell id="yVRLo9RjWcmBAKcRKdF0-285" value="&lt;span style=&quot;font-size: 30px;&quot;&gt;宮城県架空1市&lt;/span&gt;&lt;span style=&quot;font-size: 30px;&quot;&gt;水田町3丁目4番地9&lt;/span&gt;" style="connectable=0;recursiveResize=0;strokeColor=inherit;fillColor=none;align=left;whiteSpace=wrap;html=1;" parent="yVRLo9RjWcmBAKcRKdF0-273" vertex="1">
          <mxGeometry x="2470" width="540" height="53" as="geometry">
            <mxRectangle width="540" height="53" as="alternateBounds" />
          </mxGeometry>
        </mxCell>
        <mxCell id="yVRLo9RjWcmBAKcRKdF0-286" value="&lt;span style=&quot;font-size: 30px;&quot;&gt;動画制作者&lt;/span&gt;" style="connectable=0;recursiveResize=0;strokeColor=inherit;fillColor=default;align=left;whiteSpace=wrap;html=1;" parent="yVRLo9RjWcmBAKcRKdF0-273" vertex="1">
          <mxGeometry x="3010" width="240" height="53" as="geometry">
            <mxRectangle width="240" height="53" as="alternateBounds" />
          </mxGeometry>
        </mxCell>
        <mxCell id="yVRLo9RjWcmBAKcRKdF0-287" style="connectable=0;recursiveResize=0;strokeColor=inherit;fillColor=none;align=center;whiteSpace=wrap;html=1;" parent="yVRLo9RjWcmBAKcRKdF0-273" vertex="1">
          <mxGeometry x="3250" width="300" height="53" as="geometry">
            <mxRectangle width="300" height="53" as="alternateBounds" />
          </mxGeometry>
        </mxCell>
        <mxCell id="yVRLo9RjWcmBAKcRKdF0-258" style="shape=tableRow;horizontal=0;startSize=0;swimlaneHead=0;swimlaneBody=0;top=0;left=0;bottom=0;right=0;dropTarget=0;collapsible=0;recursiveResize=0;expand=0;fontStyle=0;fillColor=none;strokeColor=inherit;align=right;" parent="yVRLo9RjWcmBAKcRKdF0-20" vertex="1">
          <mxGeometry y="552" width="3550" height="58" as="geometry" />
        </mxCell>
        <mxCell id="yVRLo9RjWcmBAKcRKdF0-259" value="&lt;span style=&quot;font-size: 30px;&quot;&gt;声かけを推進する会&lt;/span&gt;" style="connectable=0;recursiveResize=0;strokeColor=inherit;fillColor=none;align=left;whiteSpace=wrap;html=1;" parent="yVRLo9RjWcmBAKcRKdF0-258" vertex="1">
          <mxGeometry width="460" height="58" as="geometry">
            <mxRectangle width="460" height="58" as="alternateBounds" />
          </mxGeometry>
        </mxCell>
        <mxCell id="yVRLo9RjWcmBAKcRKdF0-260" value="&lt;span style=&quot;font-size: 30px;&quot;&gt;その他の団体&lt;/span&gt;" style="connectable=0;recursiveResize=0;strokeColor=inherit;fillColor=none;align=left;whiteSpace=wrap;html=1;" parent="yVRLo9RjWcmBAKcRKdF0-258" vertex="1">
          <mxGeometry x="460" width="220" height="58" as="geometry">
            <mxRectangle width="220" height="58" as="alternateBounds" />
          </mxGeometry>
        </mxCell>
        <mxCell id="yVRLo9RjWcmBAKcRKdF0-261" value="" style="connectable=0;recursiveResize=0;strokeColor=inherit;fillColor=none;align=center;whiteSpace=wrap;html=1;" parent="yVRLo9RjWcmBAKcRKdF0-258" vertex="1">
          <mxGeometry x="680" width="200" height="58" as="geometry">
            <mxRectangle width="200" height="58" as="alternateBounds" />
          </mxGeometry>
        </mxCell>
        <mxCell id="yVRLo9RjWcmBAKcRKdF0-262" value="&lt;span style=&quot;font-size: 30px;&quot;&gt;政治団体　花子&lt;/span&gt;" style="connectable=0;recursiveResize=0;strokeColor=inherit;fillColor=none;align=left;whiteSpace=wrap;html=1;" parent="yVRLo9RjWcmBAKcRKdF0-258" vertex="1">
          <mxGeometry x="880" width="330" height="58" as="geometry">
            <mxRectangle width="330" height="58" as="alternateBounds" />
          </mxGeometry>
        </mxCell>
        <mxCell id="yVRLo9RjWcmBAKcRKdF0-264" value="&lt;span style=&quot;font-size: 30px;&quot;&gt;現職&lt;/span&gt;" style="connectable=0;recursiveResize=0;strokeColor=inherit;fillColor=default;align=left;whiteSpace=wrap;html=1;" parent="yVRLo9RjWcmBAKcRKdF0-258" vertex="1">
          <mxGeometry x="1210" width="120" height="58" as="geometry">
            <mxRectangle width="120" height="58" as="alternateBounds" />
          </mxGeometry>
        </mxCell>
        <mxCell id="yVRLo9RjWcmBAKcRKdF0-265" value="&lt;span style=&quot;font-size: 30px;&quot;&gt;7.寄付-1.個人&lt;/span&gt;" style="connectable=0;recursiveResize=0;strokeColor=inherit;fillColor=none;align=left;whiteSpace=wrap;html=1;" parent="yVRLo9RjWcmBAKcRKdF0-258" vertex="1">
          <mxGeometry x="1330" width="230" height="58" as="geometry">
            <mxRectangle width="230" height="58" as="alternateBounds" />
          </mxGeometry>
        </mxCell>
        <mxCell id="yVRLo9RjWcmBAKcRKdF0-266" value="&lt;br&gt;&lt;span style=&quot;font-size: 30px;&quot;&gt;11&lt;/span&gt;&lt;div&gt;&lt;br style=&quot;&quot;&gt;&lt;/div&gt;" style="connectable=0;recursiveResize=0;strokeColor=inherit;fillColor=none;align=right;whiteSpace=wrap;html=1;" parent="yVRLo9RjWcmBAKcRKdF0-258" vertex="1">
          <mxGeometry x="1560" width="60" height="58" as="geometry">
            <mxRectangle width="60" height="58" as="alternateBounds" />
          </mxGeometry>
        </mxCell>
        <mxCell id="r01p0lLt0XGwaa7xkesd-18" value="&#xa;&lt;span style=&quot;color: rgb(0, 0, 0); font-family: Helvetica; font-size: 30px; font-style: normal; font-variant-ligatures: normal; font-variant-caps: normal; font-weight: 400; letter-spacing: normal; orphans: 2; text-indent: 0px; text-transform: none; widows: 2; word-spacing: 0px; -webkit-text-stroke-width: 0px; white-space: normal; background-color: rgb(251, 251, 251); text-decoration-thickness: initial; text-decoration-style: initial; text-decoration-color: initial; float: none; display: inline !important;&quot;&gt;7351&lt;/span&gt;&#xa;&#xa;" style="connectable=0;recursiveResize=0;strokeColor=inherit;fillColor=none;align=right;whiteSpace=wrap;html=1;" parent="yVRLo9RjWcmBAKcRKdF0-258" vertex="1">
          <mxGeometry x="1620" width="150" height="58" as="geometry">
            <mxRectangle width="150" height="58" as="alternateBounds" />
          </mxGeometry>
        </mxCell>
        <mxCell id="yVRLo9RjWcmBAKcRKdF0-267" value="&#xa;&lt;span style=&quot;color: rgb(0, 0, 0); font-family: Helvetica; font-size: 30px; font-style: normal; font-variant-ligatures: normal; font-variant-caps: normal; font-weight: 400; letter-spacing: normal; orphans: 2; text-align: left; text-indent: 0px; text-transform: none; widows: 2; word-spacing: 0px; -webkit-text-stroke-width: 0px; white-space: normal; background-color: rgb(251, 251, 251); text-decoration-thickness: initial; text-decoration-style: initial; text-decoration-color: initial; display: inline !important; float: none;&quot;&gt;個人名太郎&lt;/span&gt;&#xa;&#xa;" style="connectable=0;recursiveResize=0;strokeColor=inherit;fillColor=none;align=left;whiteSpace=wrap;html=1;" parent="yVRLo9RjWcmBAKcRKdF0-258" vertex="1">
          <mxGeometry x="1770" width="280" height="58" as="geometry">
            <mxRectangle width="280" height="58" as="alternateBounds" />
          </mxGeometry>
        </mxCell>
        <mxCell id="yVRLo9RjWcmBAKcRKdF0-268" value="&lt;span style=&quot;font-size: 30px;&quot;&gt;1,450,000&lt;/span&gt;" style="connectable=0;recursiveResize=0;strokeColor=inherit;fillColor=none;align=right;whiteSpace=wrap;html=1;" parent="yVRLo9RjWcmBAKcRKdF0-258" vertex="1">
          <mxGeometry x="2050" width="240" height="58" as="geometry">
            <mxRectangle width="240" height="58" as="alternateBounds" />
          </mxGeometry>
        </mxCell>
        <mxCell id="yVRLo9RjWcmBAKcRKdF0-269" value="&lt;span style=&quot;font-size: 30px;&quot;&gt;2022-12-13&lt;/span&gt;" style="connectable=0;recursiveResize=0;strokeColor=inherit;fillColor=none;align=right;whiteSpace=wrap;html=1;" parent="yVRLo9RjWcmBAKcRKdF0-258" vertex="1">
          <mxGeometry x="2290" width="180" height="58" as="geometry">
            <mxRectangle width="180" height="58" as="alternateBounds" />
          </mxGeometry>
        </mxCell>
        <mxCell id="yVRLo9RjWcmBAKcRKdF0-270" value="&lt;span style=&quot;font-size: 30px;&quot;&gt;宮城県架空1市&lt;/span&gt;&lt;span style=&quot;font-size: 30px;&quot;&gt;水田町3丁目4番地9&lt;/span&gt;" style="connectable=0;recursiveResize=0;strokeColor=inherit;fillColor=none;align=left;whiteSpace=wrap;html=1;" parent="yVRLo9RjWcmBAKcRKdF0-258" vertex="1">
          <mxGeometry x="2470" width="540" height="58" as="geometry">
            <mxRectangle width="540" height="58" as="alternateBounds" />
          </mxGeometry>
        </mxCell>
        <mxCell id="yVRLo9RjWcmBAKcRKdF0-271" value="&lt;span style=&quot;font-size: 30px;&quot;&gt;動画制作者&lt;/span&gt;" style="connectable=0;recursiveResize=0;strokeColor=inherit;fillColor=default;align=left;whiteSpace=wrap;html=1;" parent="yVRLo9RjWcmBAKcRKdF0-258" vertex="1">
          <mxGeometry x="3010" width="240" height="58" as="geometry">
            <mxRectangle width="240" height="58" as="alternateBounds" />
          </mxGeometry>
        </mxCell>
        <mxCell id="yVRLo9RjWcmBAKcRKdF0-272" value="&lt;font style=&quot;font-size: 30px;&quot;&gt;「遺贈」&lt;/font&gt;" style="connectable=0;recursiveResize=0;strokeColor=inherit;fillColor=none;align=left;whiteSpace=wrap;html=1;" parent="yVRLo9RjWcmBAKcRKdF0-258" vertex="1">
          <mxGeometry x="3250" width="300" height="58" as="geometry">
            <mxRectangle width="300" height="58" as="alternateBounds" />
          </mxGeometry>
        </mxCell>
        <mxCell id="yVRLo9RjWcmBAKcRKdF0-243" style="shape=tableRow;horizontal=0;startSize=0;swimlaneHead=0;swimlaneBody=0;top=0;left=0;bottom=0;right=0;dropTarget=0;collapsible=0;recursiveResize=0;expand=0;fontStyle=0;fillColor=none;strokeColor=inherit;align=right;" parent="yVRLo9RjWcmBAKcRKdF0-20" vertex="1">
          <mxGeometry y="610" width="3550" height="53" as="geometry" />
        </mxCell>
        <mxCell id="yVRLo9RjWcmBAKcRKdF0-244" value="&lt;span style=&quot;font-size: 30px;&quot;&gt;戸別訪問を推進する会&lt;/span&gt;" style="connectable=0;recursiveResize=0;strokeColor=inherit;fillColor=none;align=left;whiteSpace=wrap;html=1;" parent="yVRLo9RjWcmBAKcRKdF0-243" vertex="1">
          <mxGeometry width="460" height="53" as="geometry">
            <mxRectangle width="460" height="53" as="alternateBounds" />
          </mxGeometry>
        </mxCell>
        <mxCell id="yVRLo9RjWcmBAKcRKdF0-245" value="&lt;span style=&quot;font-size: 30px;&quot;&gt;その他の団体&lt;/span&gt;" style="connectable=0;recursiveResize=0;strokeColor=inherit;fillColor=none;align=left;whiteSpace=wrap;html=1;" parent="yVRLo9RjWcmBAKcRKdF0-243" vertex="1">
          <mxGeometry x="460" width="220" height="53" as="geometry">
            <mxRectangle width="220" height="53" as="alternateBounds" />
          </mxGeometry>
        </mxCell>
        <mxCell id="yVRLo9RjWcmBAKcRKdF0-246" value="" style="connectable=0;recursiveResize=0;strokeColor=inherit;fillColor=none;align=center;whiteSpace=wrap;html=1;" parent="yVRLo9RjWcmBAKcRKdF0-243" vertex="1">
          <mxGeometry x="680" width="200" height="53" as="geometry">
            <mxRectangle width="200" height="53" as="alternateBounds" />
          </mxGeometry>
        </mxCell>
        <mxCell id="yVRLo9RjWcmBAKcRKdF0-247" value="&lt;span style=&quot;font-size: 30px;&quot;&gt;政治団体　花子&lt;/span&gt;" style="connectable=0;recursiveResize=0;strokeColor=inherit;fillColor=none;align=left;whiteSpace=wrap;html=1;" parent="yVRLo9RjWcmBAKcRKdF0-243" vertex="1">
          <mxGeometry x="880" width="330" height="53" as="geometry">
            <mxRectangle width="330" height="53" as="alternateBounds" />
          </mxGeometry>
        </mxCell>
        <mxCell id="yVRLo9RjWcmBAKcRKdF0-249" value="&lt;span style=&quot;font-size: 30px;&quot;&gt;現職&lt;/span&gt;" style="connectable=0;recursiveResize=0;strokeColor=inherit;fillColor=default;align=left;whiteSpace=wrap;html=1;" parent="yVRLo9RjWcmBAKcRKdF0-243" vertex="1">
          <mxGeometry x="1210" width="120" height="53" as="geometry">
            <mxRectangle width="120" height="53" as="alternateBounds" />
          </mxGeometry>
        </mxCell>
        <mxCell id="yVRLo9RjWcmBAKcRKdF0-250" value="&lt;span style=&quot;font-size: 30px;&quot;&gt;7.寄付-1.個人&lt;/span&gt;" style="connectable=0;recursiveResize=0;strokeColor=inherit;fillColor=none;align=left;whiteSpace=wrap;html=1;" parent="yVRLo9RjWcmBAKcRKdF0-243" vertex="1">
          <mxGeometry x="1330" width="230" height="53" as="geometry">
            <mxRectangle width="230" height="53" as="alternateBounds" />
          </mxGeometry>
        </mxCell>
        <mxCell id="yVRLo9RjWcmBAKcRKdF0-251" value="&lt;br&gt;&lt;span style=&quot;font-size: 30px;&quot;&gt;11&lt;/span&gt;&lt;div&gt;&lt;br style=&quot;&quot;&gt;&lt;/div&gt;" style="connectable=0;recursiveResize=0;strokeColor=inherit;fillColor=none;align=right;whiteSpace=wrap;html=1;" parent="yVRLo9RjWcmBAKcRKdF0-243" vertex="1">
          <mxGeometry x="1560" width="60" height="53" as="geometry">
            <mxRectangle width="60" height="53" as="alternateBounds" />
          </mxGeometry>
        </mxCell>
        <mxCell id="r01p0lLt0XGwaa7xkesd-19" value="&#xa;&lt;span style=&quot;color: rgb(0, 0, 0); font-family: Helvetica; font-size: 30px; font-style: normal; font-variant-ligatures: normal; font-variant-caps: normal; font-weight: 400; letter-spacing: normal; orphans: 2; text-indent: 0px; text-transform: none; widows: 2; word-spacing: 0px; -webkit-text-stroke-width: 0px; white-space: normal; background-color: rgb(251, 251, 251); text-decoration-thickness: initial; text-decoration-style: initial; text-decoration-color: initial; float: none; display: inline !important;&quot;&gt;7351&lt;/span&gt;&#xa;&#xa;" style="connectable=0;recursiveResize=0;strokeColor=inherit;fillColor=none;align=right;whiteSpace=wrap;html=1;" parent="yVRLo9RjWcmBAKcRKdF0-243" vertex="1">
          <mxGeometry x="1620" width="150" height="53" as="geometry">
            <mxRectangle width="150" height="53" as="alternateBounds" />
          </mxGeometry>
        </mxCell>
        <mxCell id="yVRLo9RjWcmBAKcRKdF0-252" value="&lt;span style=&quot;font-size: 30px;&quot;&gt;個人名太郎&lt;/span&gt;" style="connectable=0;recursiveResize=0;strokeColor=inherit;fillColor=none;align=left;whiteSpace=wrap;html=1;" parent="yVRLo9RjWcmBAKcRKdF0-243" vertex="1">
          <mxGeometry x="1770" width="280" height="53" as="geometry">
            <mxRectangle width="280" height="53" as="alternateBounds" />
          </mxGeometry>
        </mxCell>
        <mxCell id="yVRLo9RjWcmBAKcRKdF0-253" value="&lt;span style=&quot;font-size: 30px;&quot;&gt;1,450,000&lt;/span&gt;" style="connectable=0;recursiveResize=0;strokeColor=inherit;fillColor=none;align=right;whiteSpace=wrap;html=1;" parent="yVRLo9RjWcmBAKcRKdF0-243" vertex="1">
          <mxGeometry x="2050" width="240" height="53" as="geometry">
            <mxRectangle width="240" height="53" as="alternateBounds" />
          </mxGeometry>
        </mxCell>
        <mxCell id="yVRLo9RjWcmBAKcRKdF0-254" value="&lt;span style=&quot;font-size: 30px;&quot;&gt;2022-12-13&lt;/span&gt;" style="connectable=0;recursiveResize=0;strokeColor=inherit;fillColor=none;align=right;whiteSpace=wrap;html=1;" parent="yVRLo9RjWcmBAKcRKdF0-243" vertex="1">
          <mxGeometry x="2290" width="180" height="53" as="geometry">
            <mxRectangle width="180" height="53" as="alternateBounds" />
          </mxGeometry>
        </mxCell>
        <mxCell id="yVRLo9RjWcmBAKcRKdF0-255" value="&lt;span style=&quot;font-size: 30px;&quot;&gt;宮城県架空1市&lt;/span&gt;&lt;span style=&quot;font-size: 30px;&quot;&gt;水田町3丁目4番地9&lt;/span&gt;" style="connectable=0;recursiveResize=0;strokeColor=inherit;fillColor=none;align=left;whiteSpace=wrap;html=1;" parent="yVRLo9RjWcmBAKcRKdF0-243" vertex="1">
          <mxGeometry x="2470" width="540" height="53" as="geometry">
            <mxRectangle width="540" height="53" as="alternateBounds" />
          </mxGeometry>
        </mxCell>
        <mxCell id="yVRLo9RjWcmBAKcRKdF0-256" value="&lt;span style=&quot;font-size: 30px;&quot;&gt;動画制作者&lt;/span&gt;" style="connectable=0;recursiveResize=0;strokeColor=inherit;fillColor=default;align=left;whiteSpace=wrap;html=1;" parent="yVRLo9RjWcmBAKcRKdF0-243" vertex="1">
          <mxGeometry x="3010" width="240" height="53" as="geometry">
            <mxRectangle width="240" height="53" as="alternateBounds" />
          </mxGeometry>
        </mxCell>
        <mxCell id="yVRLo9RjWcmBAKcRKdF0-257" style="connectable=0;recursiveResize=0;strokeColor=inherit;fillColor=none;align=center;whiteSpace=wrap;html=1;" parent="yVRLo9RjWcmBAKcRKdF0-243" vertex="1">
          <mxGeometry x="3250" width="300" height="53" as="geometry">
            <mxRectangle width="300" height="53" as="alternateBounds" />
          </mxGeometry>
        </mxCell>
        <mxCell id="yVRLo9RjWcmBAKcRKdF0-54" value="&lt;span style=&quot;font-size: 30px;&quot;&gt;選択された個人の記載項目詳細&lt;/span&gt;" style="rounded=0;whiteSpace=wrap;html=1;align=left;dashed=1;dashPattern=8 8;verticalAlign=bottom;" parent="cFaB45KztUIKXS-_cTrr-14" vertex="1">
          <mxGeometry x="20" y="851" width="600" height="46" as="geometry" />
        </mxCell>
        <mxCell id="yVRLo9RjWcmBAKcRKdF0-217" value="" style="childLayout=tableLayout;recursiveResize=0;shadow=0;fillColor=none;align=left;" parent="cFaB45KztUIKXS-_cTrr-14" vertex="1">
          <mxGeometry x="40" y="2136" width="1310" height="182" as="geometry" />
        </mxCell>
        <mxCell id="yVRLo9RjWcmBAKcRKdF0-218" value="" style="shape=tableRow;horizontal=0;startSize=0;swimlaneHead=0;swimlaneBody=0;top=0;left=0;bottom=0;right=0;dropTarget=0;collapsible=0;recursiveResize=0;expand=0;fontStyle=0;fillColor=none;strokeColor=inherit;" parent="yVRLo9RjWcmBAKcRKdF0-217" vertex="1">
          <mxGeometry width="1310" height="42" as="geometry" />
        </mxCell>
        <mxCell id="yVRLo9RjWcmBAKcRKdF0-220" value="&lt;span style=&quot;font-size: 30px;&quot;&gt;個人&lt;/span&gt;" style="connectable=0;recursiveResize=0;strokeColor=inherit;fillColor=none;align=center;whiteSpace=wrap;html=1;" parent="yVRLo9RjWcmBAKcRKdF0-218" vertex="1">
          <mxGeometry width="240" height="42" as="geometry">
            <mxRectangle width="240" height="42" as="alternateBounds" />
          </mxGeometry>
        </mxCell>
        <mxCell id="yVRLo9RjWcmBAKcRKdF0-222" value="&lt;span style=&quot;font-size: 30px;&quot;&gt;総計&lt;/span&gt;" style="connectable=0;recursiveResize=0;strokeColor=inherit;fillColor=none;align=center;whiteSpace=wrap;html=1;" parent="yVRLo9RjWcmBAKcRKdF0-218" vertex="1">
          <mxGeometry x="240" width="250" height="42" as="geometry">
            <mxRectangle width="250" height="42" as="alternateBounds" />
          </mxGeometry>
        </mxCell>
        <mxCell id="yVRLo9RjWcmBAKcRKdF0-288" value="&lt;font style=&quot;font-size: 30px;&quot;&gt;判定&lt;/font&gt;" style="connectable=0;recursiveResize=0;strokeColor=inherit;fillColor=none;align=center;whiteSpace=wrap;html=1;" parent="yVRLo9RjWcmBAKcRKdF0-218" vertex="1">
          <mxGeometry x="490" width="250" height="42" as="geometry">
            <mxRectangle width="250" height="42" as="alternateBounds" />
          </mxGeometry>
        </mxCell>
        <mxCell id="yVRLo9RjWcmBAKcRKdF0-292" value="&lt;font style=&quot;font-size: 30px;&quot;&gt;理由&lt;/font&gt;" style="connectable=0;recursiveResize=0;strokeColor=inherit;fillColor=none;align=center;whiteSpace=wrap;html=1;" parent="yVRLo9RjWcmBAKcRKdF0-218" vertex="1">
          <mxGeometry x="740" width="570" height="42" as="geometry">
            <mxRectangle width="570" height="42" as="alternateBounds" />
          </mxGeometry>
        </mxCell>
        <mxCell id="yVRLo9RjWcmBAKcRKdF0-224" style="shape=tableRow;horizontal=0;startSize=0;swimlaneHead=0;swimlaneBody=0;top=0;left=0;bottom=0;right=0;dropTarget=0;collapsible=0;recursiveResize=0;expand=0;fontStyle=0;fillColor=none;strokeColor=inherit;" parent="yVRLo9RjWcmBAKcRKdF0-217" vertex="1">
          <mxGeometry y="42" width="1310" height="46" as="geometry" />
        </mxCell>
        <mxCell id="yVRLo9RjWcmBAKcRKdF0-226" value="&lt;span style=&quot;font-size: 30px;&quot;&gt;総計&lt;/span&gt;" style="connectable=0;recursiveResize=0;strokeColor=inherit;fillColor=none;align=left;whiteSpace=wrap;html=1;" parent="yVRLo9RjWcmBAKcRKdF0-224" vertex="1">
          <mxGeometry width="240" height="46" as="geometry">
            <mxRectangle width="240" height="46" as="alternateBounds" />
          </mxGeometry>
        </mxCell>
        <mxCell id="yVRLo9RjWcmBAKcRKdF0-228" value="&lt;font style=&quot;font-size: 30px;&quot;&gt;16,600,000&lt;/font&gt;" style="connectable=0;recursiveResize=0;strokeColor=inherit;fillColor=none;align=right;whiteSpace=wrap;html=1;" parent="yVRLo9RjWcmBAKcRKdF0-224" vertex="1">
          <mxGeometry x="240" width="250" height="46" as="geometry">
            <mxRectangle width="250" height="46" as="alternateBounds" />
          </mxGeometry>
        </mxCell>
        <mxCell id="yVRLo9RjWcmBAKcRKdF0-289" style="connectable=0;recursiveResize=0;strokeColor=inherit;fillColor=none;align=right;whiteSpace=wrap;html=1;" parent="yVRLo9RjWcmBAKcRKdF0-224" vertex="1">
          <mxGeometry x="490" width="250" height="46" as="geometry">
            <mxRectangle width="250" height="46" as="alternateBounds" />
          </mxGeometry>
        </mxCell>
        <mxCell id="yVRLo9RjWcmBAKcRKdF0-293" style="connectable=0;recursiveResize=0;strokeColor=inherit;fillColor=none;align=right;whiteSpace=wrap;html=1;" parent="yVRLo9RjWcmBAKcRKdF0-224" vertex="1">
          <mxGeometry x="740" width="570" height="46" as="geometry">
            <mxRectangle width="570" height="46" as="alternateBounds" />
          </mxGeometry>
        </mxCell>
        <mxCell id="yVRLo9RjWcmBAKcRKdF0-230" style="shape=tableRow;horizontal=0;startSize=0;swimlaneHead=0;swimlaneBody=0;top=0;left=0;bottom=0;right=0;dropTarget=0;collapsible=0;recursiveResize=0;expand=0;fontStyle=0;fillColor=none;strokeColor=inherit;align=right;" parent="yVRLo9RjWcmBAKcRKdF0-217" vertex="1">
          <mxGeometry y="88" width="1310" height="47" as="geometry" />
        </mxCell>
        <mxCell id="yVRLo9RjWcmBAKcRKdF0-232" value="&lt;span style=&quot;font-size: 30px;&quot;&gt;政党・資金団体&lt;/span&gt;" style="connectable=0;recursiveResize=0;strokeColor=inherit;fillColor=none;align=left;whiteSpace=wrap;html=1;" parent="yVRLo9RjWcmBAKcRKdF0-230" vertex="1">
          <mxGeometry width="240" height="47" as="geometry">
            <mxRectangle width="240" height="47" as="alternateBounds" />
          </mxGeometry>
        </mxCell>
        <mxCell id="yVRLo9RjWcmBAKcRKdF0-234" value="&lt;span style=&quot;font-size: 30px;&quot;&gt;6,450,000&lt;/span&gt;" style="connectable=0;recursiveResize=0;strokeColor=inherit;fillColor=none;align=right;whiteSpace=wrap;html=1;" parent="yVRLo9RjWcmBAKcRKdF0-230" vertex="1">
          <mxGeometry x="240" width="250" height="47" as="geometry">
            <mxRectangle width="250" height="47" as="alternateBounds" />
          </mxGeometry>
        </mxCell>
        <mxCell id="yVRLo9RjWcmBAKcRKdF0-290" style="connectable=0;recursiveResize=0;strokeColor=inherit;fillColor=none;align=right;whiteSpace=wrap;html=1;" parent="yVRLo9RjWcmBAKcRKdF0-230" vertex="1">
          <mxGeometry x="490" width="250" height="47" as="geometry">
            <mxRectangle width="250" height="47" as="alternateBounds" />
          </mxGeometry>
        </mxCell>
        <mxCell id="yVRLo9RjWcmBAKcRKdF0-294" style="connectable=0;recursiveResize=0;strokeColor=inherit;fillColor=none;align=right;whiteSpace=wrap;html=1;" parent="yVRLo9RjWcmBAKcRKdF0-230" vertex="1">
          <mxGeometry x="740" width="570" height="47" as="geometry">
            <mxRectangle width="570" height="47" as="alternateBounds" />
          </mxGeometry>
        </mxCell>
        <mxCell id="yVRLo9RjWcmBAKcRKdF0-236" style="shape=tableRow;horizontal=0;startSize=0;swimlaneHead=0;swimlaneBody=0;top=0;left=0;bottom=0;right=0;dropTarget=0;collapsible=0;recursiveResize=0;expand=0;fontStyle=0;fillColor=none;strokeColor=inherit;align=right;" parent="yVRLo9RjWcmBAKcRKdF0-217" vertex="1">
          <mxGeometry y="135" width="1310" height="47" as="geometry" />
        </mxCell>
        <mxCell id="yVRLo9RjWcmBAKcRKdF0-238" value="&lt;span style=&quot;font-size: 30px;&quot;&gt;政党以外&lt;/span&gt;" style="connectable=0;recursiveResize=0;strokeColor=inherit;fillColor=none;align=left;whiteSpace=wrap;html=1;" parent="yVRLo9RjWcmBAKcRKdF0-236" vertex="1">
          <mxGeometry width="240" height="47" as="geometry">
            <mxRectangle width="240" height="47" as="alternateBounds" />
          </mxGeometry>
        </mxCell>
        <mxCell id="yVRLo9RjWcmBAKcRKdF0-240" value="&lt;span style=&quot;font-size: 30px;&quot;&gt;10,150,000&lt;/span&gt;" style="connectable=0;recursiveResize=0;strokeColor=inherit;fillColor=none;align=right;whiteSpace=wrap;html=1;" parent="yVRLo9RjWcmBAKcRKdF0-236" vertex="1">
          <mxGeometry x="240" width="250" height="47" as="geometry">
            <mxRectangle width="250" height="47" as="alternateBounds" />
          </mxGeometry>
        </mxCell>
        <mxCell id="yVRLo9RjWcmBAKcRKdF0-291" value="&lt;font color=&quot;#ff0000&quot; style=&quot;font-size: 30px;&quot;&gt;違反&lt;/font&gt;" style="connectable=0;recursiveResize=0;strokeColor=inherit;fillColor=none;align=center;whiteSpace=wrap;html=1;" parent="yVRLo9RjWcmBAKcRKdF0-236" vertex="1">
          <mxGeometry x="490" width="250" height="47" as="geometry">
            <mxRectangle width="250" height="47" as="alternateBounds" />
          </mxGeometry>
        </mxCell>
        <mxCell id="yVRLo9RjWcmBAKcRKdF0-295" value="&lt;font color=&quot;#ff0000&quot; style=&quot;font-size: 30px;&quot;&gt;政党・資金団体以外は計1,000万円まで&lt;/font&gt;" style="connectable=0;recursiveResize=0;strokeColor=inherit;fillColor=none;align=left;whiteSpace=wrap;html=1;" parent="yVRLo9RjWcmBAKcRKdF0-236" vertex="1">
          <mxGeometry x="740" width="570" height="47" as="geometry">
            <mxRectangle width="570" height="47" as="alternateBounds" />
          </mxGeometry>
        </mxCell>
        <mxCell id="yVRLo9RjWcmBAKcRKdF0-242" value="&lt;span style=&quot;font-size: 30px;&quot;&gt;選択された個人の記載項目総計&lt;/span&gt;" style="rounded=0;whiteSpace=wrap;html=1;align=left;dashed=1;dashPattern=8 8;verticalAlign=bottom;" parent="cFaB45KztUIKXS-_cTrr-14" vertex="1">
          <mxGeometry x="30" y="2081" width="600" height="46" as="geometry" />
        </mxCell>
        <mxCell id="yVRLo9RjWcmBAKcRKdF0-296" value="&lt;span style=&quot;font-size: 30px;&quot;&gt;選択された個人の代表者別総計※代表者に同姓同名が含まれる場合は判定に間違いがある&lt;/span&gt;" style="rounded=0;whiteSpace=wrap;html=1;align=left;dashed=1;dashPattern=8 8;verticalAlign=bottom;" parent="cFaB45KztUIKXS-_cTrr-14" vertex="1">
          <mxGeometry x="30" y="2361" width="1440" height="46" as="geometry" />
        </mxCell>
        <mxCell id="yVRLo9RjWcmBAKcRKdF0-298" value="" style="childLayout=tableLayout;recursiveResize=0;shadow=0;fillColor=none;align=left;" parent="cFaB45KztUIKXS-_cTrr-14" vertex="1">
          <mxGeometry x="40" y="2426" width="1310" height="182" as="geometry" />
        </mxCell>
        <mxCell id="yVRLo9RjWcmBAKcRKdF0-299" value="" style="shape=tableRow;horizontal=0;startSize=0;swimlaneHead=0;swimlaneBody=0;top=0;left=0;bottom=0;right=0;dropTarget=0;collapsible=0;recursiveResize=0;expand=0;fontStyle=0;fillColor=none;strokeColor=inherit;" parent="yVRLo9RjWcmBAKcRKdF0-298" vertex="1">
          <mxGeometry width="1310" height="42" as="geometry" />
        </mxCell>
        <mxCell id="yVRLo9RjWcmBAKcRKdF0-301" value="&lt;span style=&quot;font-size: 30px;&quot;&gt;代表者&lt;/span&gt;" style="connectable=0;recursiveResize=0;strokeColor=inherit;fillColor=none;align=center;whiteSpace=wrap;html=1;" parent="yVRLo9RjWcmBAKcRKdF0-299" vertex="1">
          <mxGeometry width="240" height="42" as="geometry">
            <mxRectangle width="240" height="42" as="alternateBounds" />
          </mxGeometry>
        </mxCell>
        <mxCell id="yVRLo9RjWcmBAKcRKdF0-302" value="&lt;span style=&quot;font-size: 30px;&quot;&gt;総計&lt;/span&gt;" style="connectable=0;recursiveResize=0;strokeColor=inherit;fillColor=none;align=center;whiteSpace=wrap;html=1;" parent="yVRLo9RjWcmBAKcRKdF0-299" vertex="1">
          <mxGeometry x="240" width="250" height="42" as="geometry">
            <mxRectangle width="250" height="42" as="alternateBounds" />
          </mxGeometry>
        </mxCell>
        <mxCell id="yVRLo9RjWcmBAKcRKdF0-303" value="&lt;font style=&quot;font-size: 30px;&quot;&gt;判定&lt;/font&gt;" style="connectable=0;recursiveResize=0;strokeColor=inherit;fillColor=none;align=center;whiteSpace=wrap;html=1;" parent="yVRLo9RjWcmBAKcRKdF0-299" vertex="1">
          <mxGeometry x="490" width="250" height="42" as="geometry">
            <mxRectangle width="250" height="42" as="alternateBounds" />
          </mxGeometry>
        </mxCell>
        <mxCell id="yVRLo9RjWcmBAKcRKdF0-304" value="&lt;font style=&quot;font-size: 30px;&quot;&gt;理由&lt;/font&gt;" style="connectable=0;recursiveResize=0;strokeColor=inherit;fillColor=none;align=center;whiteSpace=wrap;html=1;" parent="yVRLo9RjWcmBAKcRKdF0-299" vertex="1">
          <mxGeometry x="740" width="570" height="42" as="geometry">
            <mxRectangle width="570" height="42" as="alternateBounds" />
          </mxGeometry>
        </mxCell>
        <mxCell id="yVRLo9RjWcmBAKcRKdF0-305" style="shape=tableRow;horizontal=0;startSize=0;swimlaneHead=0;swimlaneBody=0;top=0;left=0;bottom=0;right=0;dropTarget=0;collapsible=0;recursiveResize=0;expand=0;fontStyle=0;fillColor=none;strokeColor=inherit;" parent="yVRLo9RjWcmBAKcRKdF0-298" vertex="1">
          <mxGeometry y="42" width="1310" height="46" as="geometry" />
        </mxCell>
        <mxCell id="yVRLo9RjWcmBAKcRKdF0-307" value="&lt;span style=&quot;font-size: 30px;&quot;&gt;政治団体　三郎&lt;/span&gt;" style="connectable=0;recursiveResize=0;strokeColor=inherit;fillColor=none;align=left;whiteSpace=wrap;html=1;" parent="yVRLo9RjWcmBAKcRKdF0-305" vertex="1">
          <mxGeometry width="240" height="46" as="geometry">
            <mxRectangle width="240" height="46" as="alternateBounds" />
          </mxGeometry>
        </mxCell>
        <mxCell id="yVRLo9RjWcmBAKcRKdF0-308" value="&lt;span style=&quot;font-size: 30px;&quot;&gt;4,350,000&lt;/span&gt;" style="connectable=0;recursiveResize=0;strokeColor=inherit;fillColor=none;align=right;whiteSpace=wrap;html=1;" parent="yVRLo9RjWcmBAKcRKdF0-305" vertex="1">
          <mxGeometry x="240" width="250" height="46" as="geometry">
            <mxRectangle width="250" height="46" as="alternateBounds" />
          </mxGeometry>
        </mxCell>
        <mxCell id="yVRLo9RjWcmBAKcRKdF0-309" value="&lt;span style=&quot;font-size: 30px;&quot;&gt;&lt;font color=&quot;#ff0000&quot;&gt;違反?&lt;/font&gt;&lt;/span&gt;" style="connectable=0;recursiveResize=0;strokeColor=inherit;fillColor=none;align=center;whiteSpace=wrap;html=1;" parent="yVRLo9RjWcmBAKcRKdF0-305" vertex="1">
          <mxGeometry x="490" width="250" height="46" as="geometry">
            <mxRectangle width="250" height="46" as="alternateBounds" />
          </mxGeometry>
        </mxCell>
        <mxCell id="yVRLo9RjWcmBAKcRKdF0-310" value="&lt;span style=&quot;font-size: 30px;&quot;&gt;&lt;font color=&quot;#ff0000&quot;&gt;同一人には150万円まで&lt;/font&gt;&lt;/span&gt;" style="connectable=0;recursiveResize=0;strokeColor=inherit;fillColor=none;align=left;whiteSpace=wrap;html=1;" parent="yVRLo9RjWcmBAKcRKdF0-305" vertex="1">
          <mxGeometry x="740" width="570" height="46" as="geometry">
            <mxRectangle width="570" height="46" as="alternateBounds" />
          </mxGeometry>
        </mxCell>
        <mxCell id="yVRLo9RjWcmBAKcRKdF0-311" style="shape=tableRow;horizontal=0;startSize=0;swimlaneHead=0;swimlaneBody=0;top=0;left=0;bottom=0;right=0;dropTarget=0;collapsible=0;recursiveResize=0;expand=0;fontStyle=0;fillColor=none;strokeColor=inherit;align=center;" parent="yVRLo9RjWcmBAKcRKdF0-298" vertex="1">
          <mxGeometry y="88" width="1310" height="47" as="geometry" />
        </mxCell>
        <mxCell id="yVRLo9RjWcmBAKcRKdF0-313" value="&lt;span style=&quot;font-size: 30px;&quot;&gt;政治団体　一郎&lt;/span&gt;" style="connectable=0;recursiveResize=0;strokeColor=inherit;fillColor=none;align=left;whiteSpace=wrap;html=1;" parent="yVRLo9RjWcmBAKcRKdF0-311" vertex="1">
          <mxGeometry width="240" height="47" as="geometry">
            <mxRectangle width="240" height="47" as="alternateBounds" />
          </mxGeometry>
        </mxCell>
        <mxCell id="yVRLo9RjWcmBAKcRKdF0-314" value="&lt;span style=&quot;font-size: 30px;&quot;&gt;2,900,000&lt;/span&gt;" style="connectable=0;recursiveResize=0;strokeColor=inherit;fillColor=none;align=right;whiteSpace=wrap;html=1;" parent="yVRLo9RjWcmBAKcRKdF0-311" vertex="1">
          <mxGeometry x="240" width="250" height="47" as="geometry">
            <mxRectangle width="250" height="47" as="alternateBounds" />
          </mxGeometry>
        </mxCell>
        <mxCell id="yVRLo9RjWcmBAKcRKdF0-315" value="&lt;span style=&quot;font-size: 30px;&quot;&gt;&lt;font color=&quot;#ff0000&quot;&gt;違反?&lt;/font&gt;&lt;/span&gt;" style="connectable=0;recursiveResize=0;strokeColor=inherit;fillColor=none;align=center;whiteSpace=wrap;html=1;" parent="yVRLo9RjWcmBAKcRKdF0-311" vertex="1">
          <mxGeometry x="490" width="250" height="47" as="geometry">
            <mxRectangle width="250" height="47" as="alternateBounds" />
          </mxGeometry>
        </mxCell>
        <mxCell id="yVRLo9RjWcmBAKcRKdF0-316" value="&lt;span style=&quot;font-size: 30px;&quot;&gt;&lt;font color=&quot;#ff0000&quot;&gt;同一人には150万円まで&lt;/font&gt;&lt;/span&gt;" style="connectable=0;recursiveResize=0;strokeColor=inherit;fillColor=none;align=left;whiteSpace=wrap;html=1;" parent="yVRLo9RjWcmBAKcRKdF0-311" vertex="1">
          <mxGeometry x="740" width="570" height="47" as="geometry">
            <mxRectangle width="570" height="47" as="alternateBounds" />
          </mxGeometry>
        </mxCell>
        <mxCell id="yVRLo9RjWcmBAKcRKdF0-317" style="shape=tableRow;horizontal=0;startSize=0;swimlaneHead=0;swimlaneBody=0;top=0;left=0;bottom=0;right=0;dropTarget=0;collapsible=0;recursiveResize=0;expand=0;fontStyle=0;fillColor=none;strokeColor=inherit;align=right;" parent="yVRLo9RjWcmBAKcRKdF0-298" vertex="1">
          <mxGeometry y="135" width="1310" height="47" as="geometry" />
        </mxCell>
        <mxCell id="yVRLo9RjWcmBAKcRKdF0-319" value="&lt;span style=&quot;font-size: 30px;&quot;&gt;政治団体　花子&lt;/span&gt;" style="connectable=0;recursiveResize=0;strokeColor=inherit;fillColor=none;align=left;whiteSpace=wrap;html=1;" parent="yVRLo9RjWcmBAKcRKdF0-317" vertex="1">
          <mxGeometry width="240" height="47" as="geometry">
            <mxRectangle width="240" height="47" as="alternateBounds" />
          </mxGeometry>
        </mxCell>
        <mxCell id="yVRLo9RjWcmBAKcRKdF0-320" value="&lt;span style=&quot;font-size: 30px;&quot;&gt;2,900,000&lt;/span&gt;" style="connectable=0;recursiveResize=0;strokeColor=inherit;fillColor=none;align=right;whiteSpace=wrap;html=1;" parent="yVRLo9RjWcmBAKcRKdF0-317" vertex="1">
          <mxGeometry x="240" width="250" height="47" as="geometry">
            <mxRectangle width="250" height="47" as="alternateBounds" />
          </mxGeometry>
        </mxCell>
        <mxCell id="yVRLo9RjWcmBAKcRKdF0-321" value="&lt;font color=&quot;#ff0000&quot; style=&quot;font-size: 30px;&quot;&gt;違反?&lt;/font&gt;" style="connectable=0;recursiveResize=0;strokeColor=inherit;fillColor=none;align=center;whiteSpace=wrap;html=1;" parent="yVRLo9RjWcmBAKcRKdF0-317" vertex="1">
          <mxGeometry x="490" width="250" height="47" as="geometry">
            <mxRectangle width="250" height="47" as="alternateBounds" />
          </mxGeometry>
        </mxCell>
        <mxCell id="yVRLo9RjWcmBAKcRKdF0-322" value="&lt;font color=&quot;#ff0000&quot; style=&quot;font-size: 30px;&quot;&gt;同一人には150万円まで&lt;/font&gt;" style="connectable=0;recursiveResize=0;strokeColor=inherit;fillColor=none;align=left;whiteSpace=wrap;html=1;" parent="yVRLo9RjWcmBAKcRKdF0-317" vertex="1">
          <mxGeometry x="740" width="570" height="47" as="geometry">
            <mxRectangle width="570" height="47" as="alternateBounds" />
          </mxGeometry>
        </mxCell>
        <mxCell id="yVRLo9RjWcmBAKcRKdF0-323" value="&lt;span style=&quot;font-size: 30px;&quot;&gt;寄付制限から外された「遺贈」&lt;/span&gt;" style="rounded=0;whiteSpace=wrap;html=1;align=left;dashed=1;dashPattern=8 8;verticalAlign=bottom;" parent="cFaB45KztUIKXS-_cTrr-14" vertex="1">
          <mxGeometry x="20" y="1671" width="440" height="46" as="geometry" />
        </mxCell>
        <mxCell id="yVRLo9RjWcmBAKcRKdF0-324" value="&lt;span style=&quot;font-size: 30px;&quot;&gt;1&lt;/span&gt;" style="rounded=0;whiteSpace=wrap;html=1;align=right;fillColor=#CCCCCC;" parent="cFaB45KztUIKXS-_cTrr-14" vertex="1">
          <mxGeometry x="480" y="1670" width="80" height="48" as="geometry" />
        </mxCell>
        <mxCell id="yVRLo9RjWcmBAKcRKdF0-325" value="&lt;span style=&quot;font-size: 30px;&quot;&gt;件&lt;/span&gt;" style="rounded=0;whiteSpace=wrap;html=1;align=left;dashed=1;dashPattern=8 8;verticalAlign=bottom;" parent="cFaB45KztUIKXS-_cTrr-14" vertex="1">
          <mxGeometry x="574" y="1671" width="70" height="46" as="geometry" />
        </mxCell>
        <mxCell id="r01p0lLt0XGwaa7xkesd-21" value="&lt;div style=&quot;&quot;&gt;&lt;font style=&quot;font-size: 30px;&quot;&gt;スクロール&lt;/font&gt;&lt;/div&gt;" style="rounded=0;whiteSpace=wrap;html=1;align=left;verticalAlign=top;fillColor=#FFFFCC;" parent="cFaB45KztUIKXS-_cTrr-14" vertex="1">
          <mxGeometry x="30" y="1583" width="1468" height="48" as="geometry" />
        </mxCell>
        <mxCell id="r01p0lLt0XGwaa7xkesd-22" value="&lt;div style=&quot;&quot;&gt;&lt;br&gt;&lt;/div&gt;" style="rounded=0;whiteSpace=wrap;html=1;align=left;verticalAlign=top;fillColor=#FFFF66;" parent="cFaB45KztUIKXS-_cTrr-14" vertex="1">
          <mxGeometry x="234" y="1592" width="290" height="29" as="geometry" />
        </mxCell>
        <mxCell id="r01p0lLt0XGwaa7xkesd-23" value="&lt;font style=&quot;font-size: 30px;&quot;&gt;宮城県架空市&lt;/font&gt;&lt;span style=&quot;font-size: 30px;&quot;&gt;&lt;br&gt;&lt;/span&gt;" style="rounded=0;whiteSpace=wrap;html=1;align=left;verticalAlign=top;" parent="cFaB45KztUIKXS-_cTrr-14" vertex="1">
          <mxGeometry x="360" y="220" width="650" height="80" as="geometry" />
        </mxCell>
        <mxCell id="r01p0lLt0XGwaa7xkesd-24" value="&lt;span style=&quot;font-size: 30px;&quot;&gt;検索結果&lt;/span&gt;" style="rounded=0;whiteSpace=wrap;html=1;align=left;dashed=1;dashPattern=8 8;verticalAlign=bottom;" parent="cFaB45KztUIKXS-_cTrr-14" vertex="1">
          <mxGeometry x="30" y="416" width="310" height="46" as="geometry" />
        </mxCell>
        <mxCell id="r01p0lLt0XGwaa7xkesd-25" value="&lt;span style=&quot;font-size: 30px;&quot;&gt;検索&lt;/span&gt;" style="rounded=1;whiteSpace=wrap;html=1;" parent="cFaB45KztUIKXS-_cTrr-14" vertex="1">
          <mxGeometry x="1293" y="380" width="210" height="51" as="geometry" />
        </mxCell>
        <mxCell id="r01p0lLt0XGwaa7xkesd-26" value="&lt;span style=&quot;font-size: 30px;&quot;&gt;関連者の氏名&lt;/span&gt;&lt;div&gt;&lt;span style=&quot;font-size: 30px;&quot;&gt;または住所&lt;/span&gt;&lt;/div&gt;" style="rounded=0;whiteSpace=wrap;html=1;align=right;dashed=1;dashPattern=8 8;verticalAlign=bottom;" parent="cFaB45KztUIKXS-_cTrr-14" vertex="1">
          <mxGeometry x="29" y="219" width="310" height="81" as="geometry" />
        </mxCell>
        <mxCell id="r01p0lLt0XGwaa7xkesd-27" value="&lt;span style=&quot;font-size: 30px;&quot;&gt;最初&lt;/span&gt;" style="rounded=1;whiteSpace=wrap;html=1;" parent="cFaB45KztUIKXS-_cTrr-14" vertex="1">
          <mxGeometry x="390" y="750" width="110" height="51" as="geometry" />
        </mxCell>
        <mxCell id="r01p0lLt0XGwaa7xkesd-28" value="&lt;span style=&quot;font-size: 30px;&quot;&gt;最後&lt;/span&gt;" style="rounded=1;whiteSpace=wrap;html=1;" parent="cFaB45KztUIKXS-_cTrr-14" vertex="1">
          <mxGeometry x="1420" y="750" width="110" height="51" as="geometry" />
        </mxCell>
        <mxCell id="r01p0lLt0XGwaa7xkesd-29" value="&lt;span style=&quot;font-size: 30px;&quot;&gt;1&lt;/span&gt;" style="rounded=1;whiteSpace=wrap;html=1;" parent="cFaB45KztUIKXS-_cTrr-14" vertex="1">
          <mxGeometry x="648" y="750" width="110" height="51" as="geometry" />
        </mxCell>
        <mxCell id="r01p0lLt0XGwaa7xkesd-30" value="&lt;span style=&quot;font-size: 30px;&quot;&gt;2&lt;/span&gt;" style="rounded=1;whiteSpace=wrap;html=1;" parent="cFaB45KztUIKXS-_cTrr-14" vertex="1">
          <mxGeometry x="776" y="750" width="110" height="51" as="geometry" />
        </mxCell>
        <mxCell id="r01p0lLt0XGwaa7xkesd-31" value="&lt;span style=&quot;font-size: 30px;&quot;&gt;3&lt;/span&gt;" style="rounded=1;whiteSpace=wrap;html=1;" parent="cFaB45KztUIKXS-_cTrr-14" vertex="1">
          <mxGeometry x="905" y="751" width="110" height="51" as="geometry" />
        </mxCell>
        <mxCell id="r01p0lLt0XGwaa7xkesd-32" value="&lt;span style=&quot;font-size: 30px;&quot;&gt;4&lt;/span&gt;" style="rounded=1;whiteSpace=wrap;html=1;" parent="cFaB45KztUIKXS-_cTrr-14" vertex="1">
          <mxGeometry x="1034" y="751" width="110" height="51" as="geometry" />
        </mxCell>
        <mxCell id="r01p0lLt0XGwaa7xkesd-33" value="&lt;span style=&quot;font-size: 30px;&quot;&gt;5&lt;/span&gt;" style="rounded=1;whiteSpace=wrap;html=1;" parent="cFaB45KztUIKXS-_cTrr-14" vertex="1">
          <mxGeometry x="1163" y="751" width="110" height="51" as="geometry" />
        </mxCell>
        <mxCell id="r01p0lLt0XGwaa7xkesd-34" value="&lt;span style=&quot;font-size: 30px;&quot;&gt;&amp;gt;&amp;gt;&lt;/span&gt;" style="rounded=1;whiteSpace=wrap;html=1;" parent="cFaB45KztUIKXS-_cTrr-14" vertex="1">
          <mxGeometry x="1291" y="751" width="110" height="51" as="geometry" />
        </mxCell>
        <mxCell id="r01p0lLt0XGwaa7xkesd-35" value="&lt;span style=&quot;font-size: 30px;&quot;&gt;&amp;lt;&amp;lt;&lt;/span&gt;" style="rounded=1;whiteSpace=wrap;html=1;" parent="cFaB45KztUIKXS-_cTrr-14" vertex="1">
          <mxGeometry x="519" y="751" width="110" height="51" as="geometry" />
        </mxCell>
        <mxCell id="r01p0lLt0XGwaa7xkesd-36" value="&lt;div style=&quot;&quot;&gt;&lt;font style=&quot;font-size: 30px;&quot;&gt;スクロール&lt;/font&gt;&lt;/div&gt;" style="rounded=0;whiteSpace=wrap;html=1;align=left;verticalAlign=top;fillColor=#FFFFCC;rotation=90;" parent="cFaB45KztUIKXS-_cTrr-14" vertex="1">
          <mxGeometry x="1666" y="555" width="199" height="49" as="geometry" />
        </mxCell>
        <mxCell id="r01p0lLt0XGwaa7xkesd-37" value="" style="shape=table;startSize=0;container=1;collapsible=0;childLayout=tableLayout;fontSize=16;" parent="cFaB45KztUIKXS-_cTrr-14" vertex="1">
          <mxGeometry x="24" y="480.5" width="1716" height="200" as="geometry" />
        </mxCell>
        <mxCell id="r01p0lLt0XGwaa7xkesd-38" value="" style="shape=tableRow;horizontal=0;startSize=0;swimlaneHead=0;swimlaneBody=0;strokeColor=inherit;top=0;left=0;bottom=0;right=0;collapsible=0;dropTarget=0;fillColor=none;points=[[0,0.5],[1,0.5]];portConstraint=eastwest;fontSize=16;" parent="r01p0lLt0XGwaa7xkesd-37" vertex="1">
          <mxGeometry width="1716" height="40" as="geometry" />
        </mxCell>
        <mxCell id="r01p0lLt0XGwaa7xkesd-39" value="" style="shape=partialRectangle;html=1;whiteSpace=wrap;connectable=0;strokeColor=inherit;overflow=hidden;fillColor=none;top=0;left=0;bottom=0;right=0;pointerEvents=1;fontSize=16;" parent="r01p0lLt0XGwaa7xkesd-38" vertex="1">
          <mxGeometry width="50" height="40" as="geometry">
            <mxRectangle width="50" height="40" as="alternateBounds" />
          </mxGeometry>
        </mxCell>
        <mxCell id="r01p0lLt0XGwaa7xkesd-40" value="&lt;font style=&quot;font-size: 30px;&quot;&gt;関連者コード&lt;/font&gt;" style="shape=partialRectangle;html=1;whiteSpace=wrap;connectable=0;strokeColor=inherit;overflow=hidden;fillColor=none;top=0;left=0;bottom=0;right=0;pointerEvents=1;fontSize=16;" parent="r01p0lLt0XGwaa7xkesd-38" vertex="1">
          <mxGeometry x="50" width="190" height="40" as="geometry">
            <mxRectangle width="190" height="40" as="alternateBounds" />
          </mxGeometry>
        </mxCell>
        <mxCell id="r01p0lLt0XGwaa7xkesd-41" value="&lt;font style=&quot;font-size: 30px;&quot;&gt;委員会名&lt;/font&gt;" style="shape=partialRectangle;html=1;whiteSpace=wrap;connectable=0;strokeColor=inherit;overflow=hidden;fillColor=none;top=0;left=0;bottom=0;right=0;pointerEvents=1;fontSize=16;" parent="r01p0lLt0XGwaa7xkesd-38" vertex="1">
          <mxGeometry x="240" width="496" height="40" as="geometry">
            <mxRectangle width="496" height="40" as="alternateBounds" />
          </mxGeometry>
        </mxCell>
        <mxCell id="r01p0lLt0XGwaa7xkesd-42" value="&lt;font style=&quot;font-size: 30px;&quot;&gt;区分&lt;/font&gt;" style="shape=partialRectangle;html=1;whiteSpace=wrap;connectable=0;strokeColor=inherit;overflow=hidden;fillColor=none;top=0;left=0;bottom=0;right=0;pointerEvents=1;fontSize=16;" parent="r01p0lLt0XGwaa7xkesd-38" vertex="1">
          <mxGeometry x="736" width="190" height="40" as="geometry">
            <mxRectangle width="190" height="40" as="alternateBounds" />
          </mxGeometry>
        </mxCell>
        <mxCell id="r01p0lLt0XGwaa7xkesd-43" value="&lt;font style=&quot;font-size: 30px;&quot;&gt;住所&lt;/font&gt;" style="shape=partialRectangle;html=1;whiteSpace=wrap;connectable=0;strokeColor=inherit;overflow=hidden;fillColor=none;top=0;left=0;bottom=0;right=0;pointerEvents=1;fontSize=16;" parent="r01p0lLt0XGwaa7xkesd-38" vertex="1">
          <mxGeometry x="926" width="540" height="40" as="geometry">
            <mxRectangle width="540" height="40" as="alternateBounds" />
          </mxGeometry>
        </mxCell>
        <mxCell id="r01p0lLt0XGwaa7xkesd-44" value="&lt;font style=&quot;font-size: 30px;&quot;&gt;金額&lt;/font&gt;" style="shape=partialRectangle;html=1;whiteSpace=wrap;connectable=0;strokeColor=inherit;overflow=hidden;fillColor=none;top=0;left=0;bottom=0;right=0;pointerEvents=1;fontSize=16;" parent="r01p0lLt0XGwaa7xkesd-38" vertex="1">
          <mxGeometry x="1466" width="250" height="40" as="geometry">
            <mxRectangle width="250" height="40" as="alternateBounds" />
          </mxGeometry>
        </mxCell>
        <mxCell id="r01p0lLt0XGwaa7xkesd-45" value="" style="shape=tableRow;horizontal=0;startSize=0;swimlaneHead=0;swimlaneBody=0;strokeColor=inherit;top=0;left=0;bottom=0;right=0;collapsible=0;dropTarget=0;fillColor=none;points=[[0,0.5],[1,0.5]];portConstraint=eastwest;fontSize=16;" parent="r01p0lLt0XGwaa7xkesd-37" vertex="1">
          <mxGeometry y="40" width="1716" height="40" as="geometry" />
        </mxCell>
        <mxCell id="r01p0lLt0XGwaa7xkesd-46" value="" style="shape=partialRectangle;html=1;whiteSpace=wrap;connectable=0;strokeColor=inherit;overflow=hidden;fillColor=none;top=0;left=0;bottom=0;right=0;pointerEvents=1;fontSize=16;" parent="r01p0lLt0XGwaa7xkesd-45" vertex="1">
          <mxGeometry width="50" height="40" as="geometry">
            <mxRectangle width="50" height="40" as="alternateBounds" />
          </mxGeometry>
        </mxCell>
        <mxCell id="r01p0lLt0XGwaa7xkesd-47" value="&lt;font style=&quot;font-size: 30px;&quot;&gt;1122&lt;/font&gt;" style="shape=partialRectangle;html=1;whiteSpace=wrap;connectable=0;strokeColor=inherit;overflow=hidden;fillColor=none;top=0;left=0;bottom=0;right=0;pointerEvents=1;fontSize=16;" parent="r01p0lLt0XGwaa7xkesd-45" vertex="1">
          <mxGeometry x="50" width="190" height="40" as="geometry">
            <mxRectangle width="190" height="40" as="alternateBounds" />
          </mxGeometry>
        </mxCell>
        <mxCell id="r01p0lLt0XGwaa7xkesd-48" value="&lt;span style=&quot;font-size: 30px;&quot;&gt;パーティ参加　太郎&lt;/span&gt;" style="shape=partialRectangle;html=1;whiteSpace=wrap;connectable=0;strokeColor=inherit;overflow=hidden;fillColor=none;top=0;left=0;bottom=0;right=0;pointerEvents=1;fontSize=16;align=left;" parent="r01p0lLt0XGwaa7xkesd-45" vertex="1">
          <mxGeometry x="240" width="496" height="40" as="geometry">
            <mxRectangle width="496" height="40" as="alternateBounds" />
          </mxGeometry>
        </mxCell>
        <mxCell id="r01p0lLt0XGwaa7xkesd-49" value="&lt;font style=&quot;font-size: 30px;&quot;&gt;個人&lt;/font&gt;" style="shape=partialRectangle;html=1;whiteSpace=wrap;connectable=0;strokeColor=inherit;overflow=hidden;fillColor=none;top=0;left=0;bottom=0;right=0;pointerEvents=1;fontSize=16;" parent="r01p0lLt0XGwaa7xkesd-45" vertex="1">
          <mxGeometry x="736" width="190" height="40" as="geometry">
            <mxRectangle width="190" height="40" as="alternateBounds" />
          </mxGeometry>
        </mxCell>
        <mxCell id="r01p0lLt0XGwaa7xkesd-50" value="&lt;font style=&quot;font-size: 30px;&quot;&gt;宮城県架空市A町&lt;/font&gt;" style="shape=partialRectangle;html=1;whiteSpace=wrap;connectable=0;strokeColor=inherit;overflow=hidden;fillColor=none;top=0;left=0;bottom=0;right=0;pointerEvents=1;fontSize=16;align=left;" parent="r01p0lLt0XGwaa7xkesd-45" vertex="1">
          <mxGeometry x="926" width="540" height="40" as="geometry">
            <mxRectangle width="540" height="40" as="alternateBounds" />
          </mxGeometry>
        </mxCell>
        <mxCell id="r01p0lLt0XGwaa7xkesd-51" value="&lt;font style=&quot;font-size: 30px;&quot;&gt;125,000,000&lt;/font&gt;" style="shape=partialRectangle;html=1;whiteSpace=wrap;connectable=0;strokeColor=inherit;overflow=hidden;fillColor=none;top=0;left=0;bottom=0;right=0;pointerEvents=1;fontSize=16;align=right;" parent="r01p0lLt0XGwaa7xkesd-45" vertex="1">
          <mxGeometry x="1466" width="250" height="40" as="geometry">
            <mxRectangle width="250" height="40" as="alternateBounds" />
          </mxGeometry>
        </mxCell>
        <mxCell id="r01p0lLt0XGwaa7xkesd-52" value="" style="shape=tableRow;horizontal=0;startSize=0;swimlaneHead=0;swimlaneBody=0;strokeColor=inherit;top=0;left=0;bottom=0;right=0;collapsible=0;dropTarget=0;fillColor=none;points=[[0,0.5],[1,0.5]];portConstraint=eastwest;fontSize=16;align=left;" parent="r01p0lLt0XGwaa7xkesd-37" vertex="1">
          <mxGeometry y="80" width="1716" height="40" as="geometry" />
        </mxCell>
        <mxCell id="r01p0lLt0XGwaa7xkesd-53" value="" style="shape=partialRectangle;html=1;whiteSpace=wrap;connectable=0;strokeColor=inherit;overflow=hidden;fillColor=none;top=0;left=0;bottom=0;right=0;pointerEvents=1;fontSize=16;" parent="r01p0lLt0XGwaa7xkesd-52" vertex="1">
          <mxGeometry width="50" height="40" as="geometry">
            <mxRectangle width="50" height="40" as="alternateBounds" />
          </mxGeometry>
        </mxCell>
        <mxCell id="r01p0lLt0XGwaa7xkesd-54" value="&lt;font style=&quot;font-size: 30px;&quot;&gt;3344&lt;/font&gt;" style="shape=partialRectangle;html=1;whiteSpace=wrap;connectable=0;strokeColor=inherit;overflow=hidden;fillColor=none;top=0;left=0;bottom=0;right=0;pointerEvents=1;fontSize=16;" parent="r01p0lLt0XGwaa7xkesd-52" vertex="1">
          <mxGeometry x="50" width="190" height="40" as="geometry">
            <mxRectangle width="190" height="40" as="alternateBounds" />
          </mxGeometry>
        </mxCell>
        <mxCell id="r01p0lLt0XGwaa7xkesd-55" value="&lt;font style=&quot;font-size: 30px;&quot;&gt;代表者　次郎&lt;br&gt;&lt;/font&gt;" style="shape=partialRectangle;html=1;whiteSpace=wrap;connectable=0;strokeColor=inherit;overflow=hidden;fillColor=none;top=0;left=0;bottom=0;right=0;pointerEvents=1;fontSize=16;align=left;" parent="r01p0lLt0XGwaa7xkesd-52" vertex="1">
          <mxGeometry x="240" width="496" height="40" as="geometry">
            <mxRectangle width="496" height="40" as="alternateBounds" />
          </mxGeometry>
        </mxCell>
        <mxCell id="r01p0lLt0XGwaa7xkesd-56" value="&lt;span style=&quot;font-size: 30px;&quot;&gt;個人&lt;/span&gt;" style="shape=partialRectangle;html=1;whiteSpace=wrap;connectable=0;strokeColor=inherit;overflow=hidden;fillColor=none;top=0;left=0;bottom=0;right=0;pointerEvents=1;fontSize=16;" parent="r01p0lLt0XGwaa7xkesd-52" vertex="1">
          <mxGeometry x="736" width="190" height="40" as="geometry">
            <mxRectangle width="190" height="40" as="alternateBounds" />
          </mxGeometry>
        </mxCell>
        <mxCell id="r01p0lLt0XGwaa7xkesd-57" value="&lt;span style=&quot;font-size: 30px;&quot;&gt;宮城県&lt;/span&gt;&lt;span style=&quot;font-size: 30px;&quot;&gt;架空市B町&lt;/span&gt;" style="shape=partialRectangle;html=1;whiteSpace=wrap;connectable=0;strokeColor=inherit;overflow=hidden;fillColor=none;top=0;left=0;bottom=0;right=0;pointerEvents=1;fontSize=16;align=left;" parent="r01p0lLt0XGwaa7xkesd-52" vertex="1">
          <mxGeometry x="926" width="540" height="40" as="geometry">
            <mxRectangle width="540" height="40" as="alternateBounds" />
          </mxGeometry>
        </mxCell>
        <mxCell id="r01p0lLt0XGwaa7xkesd-58" value="&lt;span style=&quot;font-size: 30px;&quot;&gt;7,000,000&lt;/span&gt;" style="shape=partialRectangle;html=1;whiteSpace=wrap;connectable=0;strokeColor=inherit;overflow=hidden;fillColor=none;top=0;left=0;bottom=0;right=0;pointerEvents=1;fontSize=16;align=right;" parent="r01p0lLt0XGwaa7xkesd-52" vertex="1">
          <mxGeometry x="1466" width="250" height="40" as="geometry">
            <mxRectangle width="250" height="40" as="alternateBounds" />
          </mxGeometry>
        </mxCell>
        <mxCell id="r01p0lLt0XGwaa7xkesd-59" style="shape=tableRow;horizontal=0;startSize=0;swimlaneHead=0;swimlaneBody=0;strokeColor=inherit;top=0;left=0;bottom=0;right=0;collapsible=0;dropTarget=0;fillColor=none;points=[[0,0.5],[1,0.5]];portConstraint=eastwest;fontSize=16;" parent="r01p0lLt0XGwaa7xkesd-37" vertex="1">
          <mxGeometry y="120" width="1716" height="40" as="geometry" />
        </mxCell>
        <mxCell id="r01p0lLt0XGwaa7xkesd-60" style="shape=partialRectangle;html=1;whiteSpace=wrap;connectable=0;strokeColor=inherit;overflow=hidden;fillColor=none;top=0;left=0;bottom=0;right=0;pointerEvents=1;fontSize=16;" parent="r01p0lLt0XGwaa7xkesd-59" vertex="1">
          <mxGeometry width="50" height="40" as="geometry">
            <mxRectangle width="50" height="40" as="alternateBounds" />
          </mxGeometry>
        </mxCell>
        <mxCell id="r01p0lLt0XGwaa7xkesd-61" value="&lt;font style=&quot;font-size: 30px;&quot;&gt;4455&lt;/font&gt;" style="shape=partialRectangle;html=1;whiteSpace=wrap;connectable=0;strokeColor=inherit;overflow=hidden;fillColor=none;top=0;left=0;bottom=0;right=0;pointerEvents=1;fontSize=16;" parent="r01p0lLt0XGwaa7xkesd-59" vertex="1">
          <mxGeometry x="50" width="190" height="40" as="geometry">
            <mxRectangle width="190" height="40" as="alternateBounds" />
          </mxGeometry>
        </mxCell>
        <mxCell id="r01p0lLt0XGwaa7xkesd-62" value="&lt;font style=&quot;font-size: 30px;&quot;&gt;個人名太郎&lt;br&gt;&lt;/font&gt;" style="shape=partialRectangle;html=1;whiteSpace=wrap;connectable=0;strokeColor=inherit;overflow=hidden;fillColor=none;top=0;left=0;bottom=0;right=0;pointerEvents=1;fontSize=16;align=left;" parent="r01p0lLt0XGwaa7xkesd-59" vertex="1">
          <mxGeometry x="240" width="496" height="40" as="geometry">
            <mxRectangle width="496" height="40" as="alternateBounds" />
          </mxGeometry>
        </mxCell>
        <mxCell id="r01p0lLt0XGwaa7xkesd-63" value="&lt;span style=&quot;font-size: 30px;&quot;&gt;個人&lt;/span&gt;" style="shape=partialRectangle;html=1;whiteSpace=wrap;connectable=0;strokeColor=inherit;overflow=hidden;fillColor=none;top=0;left=0;bottom=0;right=0;pointerEvents=1;fontSize=16;" parent="r01p0lLt0XGwaa7xkesd-59" vertex="1">
          <mxGeometry x="736" width="190" height="40" as="geometry">
            <mxRectangle width="190" height="40" as="alternateBounds" />
          </mxGeometry>
        </mxCell>
        <mxCell id="r01p0lLt0XGwaa7xkesd-64" value="&lt;span style=&quot;font-size: 30px;&quot;&gt;宮城県&lt;/span&gt;&lt;span style=&quot;font-size: 30px;&quot;&gt;架空市C町&lt;/span&gt;" style="shape=partialRectangle;html=1;whiteSpace=wrap;connectable=0;strokeColor=inherit;overflow=hidden;fillColor=none;top=0;left=0;bottom=0;right=0;pointerEvents=1;fontSize=16;align=left;" parent="r01p0lLt0XGwaa7xkesd-59" vertex="1">
          <mxGeometry x="926" width="540" height="40" as="geometry">
            <mxRectangle width="540" height="40" as="alternateBounds" />
          </mxGeometry>
        </mxCell>
        <mxCell id="r01p0lLt0XGwaa7xkesd-65" value="&lt;span style=&quot;font-size: 30px;&quot;&gt;30,000&lt;/span&gt;" style="shape=partialRectangle;html=1;whiteSpace=wrap;connectable=0;strokeColor=inherit;overflow=hidden;fillColor=none;top=0;left=0;bottom=0;right=0;pointerEvents=1;fontSize=16;align=right;" parent="r01p0lLt0XGwaa7xkesd-59" vertex="1">
          <mxGeometry x="1466" width="250" height="40" as="geometry">
            <mxRectangle width="250" height="40" as="alternateBounds" />
          </mxGeometry>
        </mxCell>
        <mxCell id="r01p0lLt0XGwaa7xkesd-66" style="shape=tableRow;horizontal=0;startSize=0;swimlaneHead=0;swimlaneBody=0;strokeColor=inherit;top=0;left=0;bottom=0;right=0;collapsible=0;dropTarget=0;fillColor=none;points=[[0,0.5],[1,0.5]];portConstraint=eastwest;fontSize=16;" parent="r01p0lLt0XGwaa7xkesd-37" vertex="1">
          <mxGeometry y="160" width="1716" height="40" as="geometry" />
        </mxCell>
        <mxCell id="r01p0lLt0XGwaa7xkesd-67" style="shape=partialRectangle;html=1;whiteSpace=wrap;connectable=0;strokeColor=inherit;overflow=hidden;fillColor=none;top=0;left=0;bottom=0;right=0;pointerEvents=1;fontSize=16;" parent="r01p0lLt0XGwaa7xkesd-66" vertex="1">
          <mxGeometry width="50" height="40" as="geometry">
            <mxRectangle width="50" height="40" as="alternateBounds" />
          </mxGeometry>
        </mxCell>
        <mxCell id="r01p0lLt0XGwaa7xkesd-68" value="&lt;font style=&quot;font-size: 30px;&quot;&gt;5566&lt;/font&gt;" style="shape=partialRectangle;html=1;whiteSpace=wrap;connectable=0;strokeColor=inherit;overflow=hidden;fillColor=none;top=0;left=0;bottom=0;right=0;pointerEvents=1;fontSize=16;" parent="r01p0lLt0XGwaa7xkesd-66" vertex="1">
          <mxGeometry x="50" width="190" height="40" as="geometry">
            <mxRectangle width="190" height="40" as="alternateBounds" />
          </mxGeometry>
        </mxCell>
        <mxCell id="r01p0lLt0XGwaa7xkesd-69" value="&lt;span style=&quot;font-size: 30px;&quot;&gt;機関誌購読　花子&lt;/span&gt;" style="shape=partialRectangle;html=1;whiteSpace=wrap;connectable=0;strokeColor=inherit;overflow=hidden;fillColor=none;top=0;left=0;bottom=0;right=0;pointerEvents=1;fontSize=16;align=left;" parent="r01p0lLt0XGwaa7xkesd-66" vertex="1">
          <mxGeometry x="240" width="496" height="40" as="geometry">
            <mxRectangle width="496" height="40" as="alternateBounds" />
          </mxGeometry>
        </mxCell>
        <mxCell id="r01p0lLt0XGwaa7xkesd-70" value="&lt;span style=&quot;font-size: 30px;&quot;&gt;個人&lt;/span&gt;" style="shape=partialRectangle;html=1;whiteSpace=wrap;connectable=0;strokeColor=inherit;overflow=hidden;fillColor=none;top=0;left=0;bottom=0;right=0;pointerEvents=1;fontSize=16;" parent="r01p0lLt0XGwaa7xkesd-66" vertex="1">
          <mxGeometry x="736" width="190" height="40" as="geometry">
            <mxRectangle width="190" height="40" as="alternateBounds" />
          </mxGeometry>
        </mxCell>
        <mxCell id="r01p0lLt0XGwaa7xkesd-71" value="&lt;div style=&quot;&quot;&gt;&lt;span style=&quot;font-size: 30px; background-color: initial;&quot;&gt;宮城県&lt;/span&gt;&lt;span style=&quot;font-size: 30px;&quot;&gt;架空市A町&lt;/span&gt;&lt;br&gt;&lt;/div&gt;" style="shape=partialRectangle;html=1;whiteSpace=wrap;connectable=0;strokeColor=inherit;overflow=hidden;fillColor=none;top=0;left=0;bottom=0;right=0;pointerEvents=1;fontSize=16;align=left;" parent="r01p0lLt0XGwaa7xkesd-66" vertex="1">
          <mxGeometry x="926" width="540" height="40" as="geometry">
            <mxRectangle width="540" height="40" as="alternateBounds" />
          </mxGeometry>
        </mxCell>
        <mxCell id="r01p0lLt0XGwaa7xkesd-72" value="&lt;span style=&quot;font-size: 30px;&quot;&gt;900,000&lt;/span&gt;" style="shape=partialRectangle;html=1;whiteSpace=wrap;connectable=0;strokeColor=inherit;overflow=hidden;fillColor=none;top=0;left=0;bottom=0;right=0;pointerEvents=1;fontSize=16;align=right;" parent="r01p0lLt0XGwaa7xkesd-66" vertex="1">
          <mxGeometry x="1466" width="250" height="40" as="geometry">
            <mxRectangle width="250" height="40" as="alternateBounds" />
          </mxGeometry>
        </mxCell>
        <mxCell id="r01p0lLt0XGwaa7xkesd-73" value="&lt;font style=&quot;font-size: 84px;&quot;&gt;○&lt;/font&gt;" style="text;html=1;strokeColor=none;fillColor=none;align=center;verticalAlign=middle;whiteSpace=wrap;rounded=0;fontSize=60;" parent="cFaB45KztUIKXS-_cTrr-14" vertex="1">
          <mxGeometry x="25" y="521" width="60" height="30" as="geometry" />
        </mxCell>
        <mxCell id="r01p0lLt0XGwaa7xkesd-74" value="&lt;font style=&quot;font-size: 84px;&quot;&gt;○&lt;/font&gt;" style="text;html=1;strokeColor=none;fillColor=none;align=center;verticalAlign=middle;whiteSpace=wrap;rounded=0;fontSize=60;" parent="cFaB45KztUIKXS-_cTrr-14" vertex="1">
          <mxGeometry x="25" y="560" width="60" height="30" as="geometry" />
        </mxCell>
        <mxCell id="r01p0lLt0XGwaa7xkesd-75" value="&lt;font style=&quot;font-size: 84px;&quot;&gt;○&lt;/font&gt;" style="text;html=1;strokeColor=none;fillColor=none;align=center;verticalAlign=middle;whiteSpace=wrap;rounded=0;fontSize=60;" parent="cFaB45KztUIKXS-_cTrr-14" vertex="1">
          <mxGeometry x="24" y="600" width="60" height="30" as="geometry" />
        </mxCell>
        <mxCell id="r01p0lLt0XGwaa7xkesd-76" value="&lt;font style=&quot;font-size: 48px;&quot;&gt;●&lt;/font&gt;" style="text;html=1;strokeColor=none;fillColor=none;align=center;verticalAlign=middle;whiteSpace=wrap;rounded=0;fontSize=48;" parent="cFaB45KztUIKXS-_cTrr-14" vertex="1">
          <mxGeometry x="24" y="602" width="60" height="30" as="geometry" />
        </mxCell>
        <mxCell id="r01p0lLt0XGwaa7xkesd-77" value="&lt;font style=&quot;font-size: 84px;&quot;&gt;○&lt;/font&gt;" style="text;html=1;strokeColor=none;fillColor=none;align=center;verticalAlign=middle;whiteSpace=wrap;rounded=0;fontSize=60;" parent="cFaB45KztUIKXS-_cTrr-14" vertex="1">
          <mxGeometry x="25" y="640" width="60" height="30" as="geometry" />
        </mxCell>
        <mxCell id="r01p0lLt0XGwaa7xkesd-78" value="&lt;span style=&quot;font-size: 30px;&quot;&gt;関連者区分&lt;/span&gt;" style="rounded=0;whiteSpace=wrap;html=1;align=right;dashed=1;dashPattern=8 8;verticalAlign=bottom;" parent="cFaB45KztUIKXS-_cTrr-14" vertex="1">
          <mxGeometry x="27" y="316" width="310" height="46" as="geometry" />
        </mxCell>
        <mxCell id="r01p0lLt0XGwaa7xkesd-79" value="&lt;span style=&quot;font-size: 30px;&quot;&gt;☑個人&lt;/span&gt;" style="rounded=0;whiteSpace=wrap;html=1;align=left;dashed=1;dashPattern=8 8;verticalAlign=bottom;" parent="cFaB45KztUIKXS-_cTrr-14" vertex="1">
          <mxGeometry x="360" y="317" width="220" height="46" as="geometry" />
        </mxCell>
        <mxCell id="r01p0lLt0XGwaa7xkesd-80" value="&lt;span style=&quot;font-size: 30px;&quot;&gt;☑法人&lt;/span&gt;" style="rounded=0;whiteSpace=wrap;html=1;align=left;dashed=1;dashPattern=8 8;verticalAlign=bottom;fontColor=#808080;" parent="cFaB45KztUIKXS-_cTrr-14" vertex="1">
          <mxGeometry x="600" y="317" width="310" height="46" as="geometry" />
        </mxCell>
        <mxCell id="r01p0lLt0XGwaa7xkesd-81" value="&lt;span style=&quot;font-size: 30px;&quot;&gt;☑政治団体&lt;/span&gt;" style="rounded=0;whiteSpace=wrap;html=1;align=left;dashed=1;dashPattern=8 8;verticalAlign=bottom;fontColor=#808080;" parent="cFaB45KztUIKXS-_cTrr-14" vertex="1">
          <mxGeometry x="940" y="317" width="310" height="46" as="geometry" />
        </mxCell>
        <mxCell id="r01p0lLt0XGwaa7xkesd-82" value="&lt;div style=&quot;&quot;&gt;&lt;font style=&quot;font-size: 30px;&quot;&gt;スクロール&lt;/font&gt;&lt;/div&gt;" style="rounded=0;whiteSpace=wrap;html=1;align=left;verticalAlign=top;fillColor=#FFFFCC;" parent="cFaB45KztUIKXS-_cTrr-14" vertex="1">
          <mxGeometry x="22" y="682" width="1498" height="48" as="geometry" />
        </mxCell>
        <mxCell id="r01p0lLt0XGwaa7xkesd-83" value="&lt;div style=&quot;&quot;&gt;&lt;br&gt;&lt;/div&gt;" style="rounded=0;whiteSpace=wrap;html=1;align=left;verticalAlign=top;fillColor=#FFFF66;" parent="cFaB45KztUIKXS-_cTrr-14" vertex="1">
          <mxGeometry x="222" y="691" width="290" height="29" as="geometry" />
        </mxCell>
        <mxCell id="r01p0lLt0XGwaa7xkesd-84" value="&lt;span style=&quot;font-size: 30px;&quot;&gt;関連者検索条件&lt;/span&gt;" style="rounded=0;whiteSpace=wrap;html=1;align=left;dashed=1;dashPattern=8 8;verticalAlign=bottom;" parent="cFaB45KztUIKXS-_cTrr-14" vertex="1">
          <mxGeometry x="27" y="141" width="310" height="46" as="geometry" />
        </mxCell>
        <mxCell id="r01p0lLt0XGwaa7xkesd-86" value="&lt;span style=&quot;font-size: 30px;&quot;&gt;検証保存タイトル&lt;/span&gt;" style="rounded=0;whiteSpace=wrap;html=1;align=right;dashed=1;dashPattern=8 8;verticalAlign=bottom;" parent="cFaB45KztUIKXS-_cTrr-14" vertex="1">
          <mxGeometry x="27" y="2676" width="310" height="46" as="geometry" />
        </mxCell>
        <mxCell id="r01p0lLt0XGwaa7xkesd-87" value="&lt;span style=&quot;font-size: 30px;&quot;&gt;の&lt;/span&gt;" style="rounded=0;whiteSpace=wrap;html=1;align=left;dashed=1;dashPattern=8 8;verticalAlign=bottom;" parent="cFaB45KztUIKXS-_cTrr-14" vertex="1">
          <mxGeometry x="715" y="2679.5" width="110" height="43" as="geometry" />
        </mxCell>
        <mxCell id="r01p0lLt0XGwaa7xkesd-88" value="&lt;span style=&quot;font-size: 30px;&quot;&gt;個人名太郎&lt;/span&gt;" style="rounded=0;whiteSpace=wrap;html=1;align=left;fillColor=#CCCCCC;" parent="cFaB45KztUIKXS-_cTrr-14" vertex="1">
          <mxGeometry x="360" y="2678" width="330" height="48" as="geometry" />
        </mxCell>
        <mxCell id="r01p0lLt0XGwaa7xkesd-89" value="&lt;span style=&quot;font-size: 30px;&quot;&gt;2024-01-01&lt;/span&gt;" style="rounded=0;whiteSpace=wrap;html=1;align=right;fillColor=#CCCCCC;" parent="cFaB45KztUIKXS-_cTrr-14" vertex="1">
          <mxGeometry x="860" y="2678" width="330" height="48" as="geometry" />
        </mxCell>
        <mxCell id="r01p0lLt0XGwaa7xkesd-90" value="&lt;span style=&quot;font-size: 30px;&quot;&gt;の個人寄付上限額検証&lt;/span&gt;" style="rounded=0;whiteSpace=wrap;html=1;align=left;dashed=1;dashPattern=8 8;verticalAlign=bottom;" parent="cFaB45KztUIKXS-_cTrr-14" vertex="1">
          <mxGeometry x="1215" y="2679.5" width="315" height="43" as="geometry" />
        </mxCell>
        <mxCell id="r01p0lLt0XGwaa7xkesd-91" value="&lt;span style=&quot;font-size: 30px;&quot;&gt;保存&lt;/span&gt;" style="rounded=1;whiteSpace=wrap;html=1;" parent="cFaB45KztUIKXS-_cTrr-14" vertex="1">
          <mxGeometry x="1323" y="2769" width="210" height="60" as="geometry" />
        </mxCell>
        <mxCell id="r01p0lLt0XGwaa7xkesd-92" value="&lt;span style=&quot;font-size: 30px;&quot;&gt;閉じる&lt;/span&gt;" style="rounded=1;whiteSpace=wrap;html=1;" parent="cFaB45KztUIKXS-_cTrr-14" vertex="1">
          <mxGeometry x="1073" y="2769" width="210" height="60" as="geometry" />
        </mxCell>
        <mxCell id="eQ_sDDYcvK8hK_vIIU2B-0" value="" style="childLayout=tableLayout;recursiveResize=0;shadow=0;fillColor=none;align=left;" parent="cFaB45KztUIKXS-_cTrr-14" vertex="1">
          <mxGeometry x="40" y="1729" width="3800" height="108" as="geometry" />
        </mxCell>
        <mxCell id="eQ_sDDYcvK8hK_vIIU2B-1" value="" style="shape=tableRow;horizontal=0;startSize=0;swimlaneHead=0;swimlaneBody=0;top=0;left=0;bottom=0;right=0;dropTarget=0;collapsible=0;recursiveResize=0;expand=0;fontStyle=0;fillColor=none;strokeColor=inherit;" parent="eQ_sDDYcvK8hK_vIIU2B-0" vertex="1">
          <mxGeometry width="3800" height="50" as="geometry" />
        </mxCell>
        <mxCell id="eQ_sDDYcvK8hK_vIIU2B-2" value="&lt;span style=&quot;font-size: 30px;&quot;&gt;収支報告書&lt;/span&gt;" style="connectable=0;recursiveResize=0;strokeColor=inherit;fillColor=none;align=center;whiteSpace=wrap;html=1;" parent="eQ_sDDYcvK8hK_vIIU2B-1" vertex="1">
          <mxGeometry width="460" height="50" as="geometry">
            <mxRectangle width="460" height="50" as="alternateBounds" />
          </mxGeometry>
        </mxCell>
        <mxCell id="eQ_sDDYcvK8hK_vIIU2B-3" value="&lt;font style=&quot;font-size: 30px;&quot;&gt;団体区分&lt;/font&gt;" style="connectable=0;recursiveResize=0;strokeColor=inherit;fillColor=none;align=center;whiteSpace=wrap;html=1;" parent="eQ_sDDYcvK8hK_vIIU2B-1" vertex="1">
          <mxGeometry x="460" width="220" height="50" as="geometry">
            <mxRectangle width="220" height="50" as="alternateBounds" />
          </mxGeometry>
        </mxCell>
        <mxCell id="eQ_sDDYcvK8hK_vIIU2B-4" value="&lt;font style=&quot;font-size: 30px;&quot;&gt;資金管理指定&lt;/font&gt;" style="connectable=0;recursiveResize=0;strokeColor=inherit;fillColor=none;align=center;whiteSpace=wrap;html=1;" parent="eQ_sDDYcvK8hK_vIIU2B-1" vertex="1">
          <mxGeometry x="680" width="200" height="50" as="geometry">
            <mxRectangle width="200" height="50" as="alternateBounds" />
          </mxGeometry>
        </mxCell>
        <mxCell id="eQ_sDDYcvK8hK_vIIU2B-5" value="&lt;font style=&quot;font-size: 30px;&quot;&gt;代表者&lt;/font&gt;" style="connectable=0;recursiveResize=0;strokeColor=inherit;fillColor=none;align=center;whiteSpace=wrap;html=1;" parent="eQ_sDDYcvK8hK_vIIU2B-1" vertex="1">
          <mxGeometry x="880" width="330" height="50" as="geometry">
            <mxRectangle width="330" height="50" as="alternateBounds" />
          </mxGeometry>
        </mxCell>
        <mxCell id="eQ_sDDYcvK8hK_vIIU2B-6" value="&lt;font style=&quot;font-size: 30px;&quot;&gt;支援政治家&lt;/font&gt;" style="connectable=0;recursiveResize=0;strokeColor=inherit;fillColor=none;align=center;whiteSpace=wrap;html=1;" parent="eQ_sDDYcvK8hK_vIIU2B-1" vertex="1">
          <mxGeometry x="1210" width="250" height="50" as="geometry">
            <mxRectangle width="250" height="50" as="alternateBounds" />
          </mxGeometry>
        </mxCell>
        <mxCell id="eQ_sDDYcvK8hK_vIIU2B-7" value="&lt;font style=&quot;font-size: 30px;&quot;&gt;公職&lt;/font&gt;" style="connectable=0;recursiveResize=0;strokeColor=inherit;fillColor=default;align=center;whiteSpace=wrap;html=1;" parent="eQ_sDDYcvK8hK_vIIU2B-1" vertex="1">
          <mxGeometry x="1460" width="120" height="50" as="geometry">
            <mxRectangle width="120" height="50" as="alternateBounds" />
          </mxGeometry>
        </mxCell>
        <mxCell id="eQ_sDDYcvK8hK_vIIU2B-8" value="&lt;font style=&quot;font-size: 30px;&quot;&gt;様式区分&lt;/font&gt;" style="connectable=0;recursiveResize=0;strokeColor=inherit;fillColor=none;align=center;whiteSpace=wrap;html=1;" parent="eQ_sDDYcvK8hK_vIIU2B-1" vertex="1">
          <mxGeometry x="1580" width="230" height="50" as="geometry">
            <mxRectangle width="230" height="50" as="alternateBounds" />
          </mxGeometry>
        </mxCell>
        <mxCell id="eQ_sDDYcvK8hK_vIIU2B-9" value="&lt;font style=&quot;font-size: 30px;&quot;&gt;行&lt;/font&gt;" style="connectable=0;recursiveResize=0;strokeColor=inherit;fillColor=none;align=center;whiteSpace=wrap;html=1;" parent="eQ_sDDYcvK8hK_vIIU2B-1" vertex="1">
          <mxGeometry x="1810" width="60" height="50" as="geometry">
            <mxRectangle width="60" height="50" as="alternateBounds" />
          </mxGeometry>
        </mxCell>
        <mxCell id="eQ_sDDYcvK8hK_vIIU2B-10" value="&lt;span style=&quot;font-size: 30px;&quot;&gt;コード&lt;/span&gt;" style="connectable=0;recursiveResize=0;strokeColor=inherit;fillColor=none;align=center;whiteSpace=wrap;html=1;" parent="eQ_sDDYcvK8hK_vIIU2B-1" vertex="1">
          <mxGeometry x="1870" width="150" height="50" as="geometry">
            <mxRectangle width="150" height="50" as="alternateBounds" />
          </mxGeometry>
        </mxCell>
        <mxCell id="eQ_sDDYcvK8hK_vIIU2B-11" value="&lt;br&gt;&lt;div&gt;&lt;span style=&quot;font-size: 30px;&quot;&gt;寄付者の氏名&lt;/span&gt;&lt;/div&gt;" style="connectable=0;recursiveResize=0;strokeColor=inherit;fillColor=none;align=center;whiteSpace=wrap;html=1;" parent="eQ_sDDYcvK8hK_vIIU2B-1" vertex="1">
          <mxGeometry x="2020" width="280" height="50" as="geometry">
            <mxRectangle width="280" height="50" as="alternateBounds" />
          </mxGeometry>
        </mxCell>
        <mxCell id="eQ_sDDYcvK8hK_vIIU2B-12" value="&lt;font style=&quot;font-size: 30px;&quot;&gt;金額&lt;/font&gt;" style="connectable=0;recursiveResize=0;strokeColor=inherit;fillColor=none;align=center;whiteSpace=wrap;html=1;" parent="eQ_sDDYcvK8hK_vIIU2B-1" vertex="1">
          <mxGeometry x="2300" width="240" height="50" as="geometry">
            <mxRectangle width="240" height="50" as="alternateBounds" />
          </mxGeometry>
        </mxCell>
        <mxCell id="eQ_sDDYcvK8hK_vIIU2B-13" value="&lt;font style=&quot;font-size: 30px;&quot;&gt;年月日&lt;/font&gt;" style="connectable=0;recursiveResize=0;strokeColor=inherit;fillColor=none;align=center;whiteSpace=wrap;html=1;" parent="eQ_sDDYcvK8hK_vIIU2B-1" vertex="1">
          <mxGeometry x="2540" width="180" height="50" as="geometry">
            <mxRectangle width="180" height="50" as="alternateBounds" />
          </mxGeometry>
        </mxCell>
        <mxCell id="eQ_sDDYcvK8hK_vIIU2B-14" value="&lt;font style=&quot;font-size: 30px;&quot;&gt;住所&lt;/font&gt;" style="connectable=0;recursiveResize=0;strokeColor=inherit;fillColor=none;align=center;whiteSpace=wrap;html=1;" parent="eQ_sDDYcvK8hK_vIIU2B-1" vertex="1">
          <mxGeometry x="2720" width="540" height="50" as="geometry">
            <mxRectangle width="540" height="50" as="alternateBounds" />
          </mxGeometry>
        </mxCell>
        <mxCell id="eQ_sDDYcvK8hK_vIIU2B-15" value="&lt;font style=&quot;font-size: 30px;&quot;&gt;(職業)&lt;/font&gt;" style="connectable=0;recursiveResize=0;strokeColor=inherit;fillColor=default;align=center;whiteSpace=wrap;html=1;" parent="eQ_sDDYcvK8hK_vIIU2B-1" vertex="1">
          <mxGeometry x="3260" width="240" height="50" as="geometry">
            <mxRectangle width="240" height="50" as="alternateBounds" />
          </mxGeometry>
        </mxCell>
        <mxCell id="eQ_sDDYcvK8hK_vIIU2B-16" value="&lt;font style=&quot;font-size: 30px;&quot;&gt;備考&lt;/font&gt;" style="connectable=0;recursiveResize=0;strokeColor=inherit;fillColor=none;align=center;whiteSpace=wrap;html=1;" parent="eQ_sDDYcvK8hK_vIIU2B-1" vertex="1">
          <mxGeometry x="3500" width="300" height="50" as="geometry">
            <mxRectangle width="300" height="50" as="alternateBounds" />
          </mxGeometry>
        </mxCell>
        <mxCell id="eQ_sDDYcvK8hK_vIIU2B-161" style="shape=tableRow;horizontal=0;startSize=0;swimlaneHead=0;swimlaneBody=0;top=0;left=0;bottom=0;right=0;dropTarget=0;collapsible=0;recursiveResize=0;expand=0;fontStyle=0;fillColor=none;strokeColor=inherit;align=right;" parent="eQ_sDDYcvK8hK_vIIU2B-0" vertex="1">
          <mxGeometry y="50" width="3800" height="58" as="geometry" />
        </mxCell>
        <mxCell id="eQ_sDDYcvK8hK_vIIU2B-162" value="&lt;span style=&quot;font-size: 30px;&quot;&gt;声かけを推進する会&lt;/span&gt;" style="connectable=0;recursiveResize=0;strokeColor=inherit;fillColor=none;align=left;whiteSpace=wrap;html=1;" parent="eQ_sDDYcvK8hK_vIIU2B-161" vertex="1">
          <mxGeometry width="460" height="58" as="geometry">
            <mxRectangle width="460" height="58" as="alternateBounds" />
          </mxGeometry>
        </mxCell>
        <mxCell id="eQ_sDDYcvK8hK_vIIU2B-163" value="&lt;span style=&quot;font-size: 30px;&quot;&gt;その他の団体&lt;/span&gt;" style="connectable=0;recursiveResize=0;strokeColor=inherit;fillColor=none;align=left;whiteSpace=wrap;html=1;" parent="eQ_sDDYcvK8hK_vIIU2B-161" vertex="1">
          <mxGeometry x="460" width="220" height="58" as="geometry">
            <mxRectangle width="220" height="58" as="alternateBounds" />
          </mxGeometry>
        </mxCell>
        <mxCell id="eQ_sDDYcvK8hK_vIIU2B-164" value="" style="connectable=0;recursiveResize=0;strokeColor=inherit;fillColor=none;align=center;whiteSpace=wrap;html=1;" parent="eQ_sDDYcvK8hK_vIIU2B-161" vertex="1">
          <mxGeometry x="680" width="200" height="58" as="geometry">
            <mxRectangle width="200" height="58" as="alternateBounds" />
          </mxGeometry>
        </mxCell>
        <mxCell id="eQ_sDDYcvK8hK_vIIU2B-165" value="&lt;span style=&quot;font-size: 30px;&quot;&gt;政治団体　花子&lt;/span&gt;" style="connectable=0;recursiveResize=0;strokeColor=inherit;fillColor=none;align=left;whiteSpace=wrap;html=1;" parent="eQ_sDDYcvK8hK_vIIU2B-161" vertex="1">
          <mxGeometry x="880" width="330" height="58" as="geometry">
            <mxRectangle width="330" height="58" as="alternateBounds" />
          </mxGeometry>
        </mxCell>
        <mxCell id="eQ_sDDYcvK8hK_vIIU2B-166" value="&lt;span style=&quot;font-size: 30px;&quot;&gt;政治団体　花子&lt;/span&gt;" style="connectable=0;recursiveResize=0;strokeColor=inherit;fillColor=none;align=left;whiteSpace=wrap;html=1;" parent="eQ_sDDYcvK8hK_vIIU2B-161" vertex="1">
          <mxGeometry x="1210" width="250" height="58" as="geometry">
            <mxRectangle width="250" height="58" as="alternateBounds" />
          </mxGeometry>
        </mxCell>
        <mxCell id="eQ_sDDYcvK8hK_vIIU2B-167" value="&lt;span style=&quot;font-size: 30px;&quot;&gt;現職&lt;/span&gt;" style="connectable=0;recursiveResize=0;strokeColor=inherit;fillColor=default;align=left;whiteSpace=wrap;html=1;" parent="eQ_sDDYcvK8hK_vIIU2B-161" vertex="1">
          <mxGeometry x="1460" width="120" height="58" as="geometry">
            <mxRectangle width="120" height="58" as="alternateBounds" />
          </mxGeometry>
        </mxCell>
        <mxCell id="eQ_sDDYcvK8hK_vIIU2B-168" value="&lt;span style=&quot;font-size: 30px;&quot;&gt;7.寄付-1.個人&lt;/span&gt;" style="connectable=0;recursiveResize=0;strokeColor=inherit;fillColor=none;align=left;whiteSpace=wrap;html=1;" parent="eQ_sDDYcvK8hK_vIIU2B-161" vertex="1">
          <mxGeometry x="1580" width="230" height="58" as="geometry">
            <mxRectangle width="230" height="58" as="alternateBounds" />
          </mxGeometry>
        </mxCell>
        <mxCell id="eQ_sDDYcvK8hK_vIIU2B-169" value="&lt;br&gt;&lt;span style=&quot;font-size: 30px;&quot;&gt;11&lt;/span&gt;&lt;div&gt;&lt;br style=&quot;&quot;&gt;&lt;/div&gt;" style="connectable=0;recursiveResize=0;strokeColor=inherit;fillColor=none;align=right;whiteSpace=wrap;html=1;" parent="eQ_sDDYcvK8hK_vIIU2B-161" vertex="1">
          <mxGeometry x="1810" width="60" height="58" as="geometry">
            <mxRectangle width="60" height="58" as="alternateBounds" />
          </mxGeometry>
        </mxCell>
        <mxCell id="eQ_sDDYcvK8hK_vIIU2B-170" value="&#xa;&lt;span style=&quot;color: rgb(0, 0, 0); font-family: Helvetica; font-size: 30px; font-style: normal; font-variant-ligatures: normal; font-variant-caps: normal; font-weight: 400; letter-spacing: normal; orphans: 2; text-indent: 0px; text-transform: none; widows: 2; word-spacing: 0px; -webkit-text-stroke-width: 0px; white-space: normal; background-color: rgb(251, 251, 251); text-decoration-thickness: initial; text-decoration-style: initial; text-decoration-color: initial; float: none; display: inline !important;&quot;&gt;7351&lt;/span&gt;&#xa;&#xa;" style="connectable=0;recursiveResize=0;strokeColor=inherit;fillColor=none;align=right;whiteSpace=wrap;html=1;" parent="eQ_sDDYcvK8hK_vIIU2B-161" vertex="1">
          <mxGeometry x="1870" width="150" height="58" as="geometry">
            <mxRectangle width="150" height="58" as="alternateBounds" />
          </mxGeometry>
        </mxCell>
        <mxCell id="eQ_sDDYcvK8hK_vIIU2B-171" value="&#xa;&lt;span style=&quot;color: rgb(0, 0, 0); font-family: Helvetica; font-size: 30px; font-style: normal; font-variant-ligatures: normal; font-variant-caps: normal; font-weight: 400; letter-spacing: normal; orphans: 2; text-align: left; text-indent: 0px; text-transform: none; widows: 2; word-spacing: 0px; -webkit-text-stroke-width: 0px; white-space: normal; background-color: rgb(251, 251, 251); text-decoration-thickness: initial; text-decoration-style: initial; text-decoration-color: initial; display: inline !important; float: none;&quot;&gt;個人名太郎&lt;/span&gt;&#xa;&#xa;" style="connectable=0;recursiveResize=0;strokeColor=inherit;fillColor=none;align=left;whiteSpace=wrap;html=1;" parent="eQ_sDDYcvK8hK_vIIU2B-161" vertex="1">
          <mxGeometry x="2020" width="280" height="58" as="geometry">
            <mxRectangle width="280" height="58" as="alternateBounds" />
          </mxGeometry>
        </mxCell>
        <mxCell id="eQ_sDDYcvK8hK_vIIU2B-172" value="&lt;span style=&quot;font-size: 30px;&quot;&gt;1,450,000&lt;/span&gt;" style="connectable=0;recursiveResize=0;strokeColor=inherit;fillColor=none;align=right;whiteSpace=wrap;html=1;" parent="eQ_sDDYcvK8hK_vIIU2B-161" vertex="1">
          <mxGeometry x="2300" width="240" height="58" as="geometry">
            <mxRectangle width="240" height="58" as="alternateBounds" />
          </mxGeometry>
        </mxCell>
        <mxCell id="eQ_sDDYcvK8hK_vIIU2B-173" value="&lt;span style=&quot;font-size: 30px;&quot;&gt;2022-12-13&lt;/span&gt;" style="connectable=0;recursiveResize=0;strokeColor=inherit;fillColor=none;align=right;whiteSpace=wrap;html=1;" parent="eQ_sDDYcvK8hK_vIIU2B-161" vertex="1">
          <mxGeometry x="2540" width="180" height="58" as="geometry">
            <mxRectangle width="180" height="58" as="alternateBounds" />
          </mxGeometry>
        </mxCell>
        <mxCell id="eQ_sDDYcvK8hK_vIIU2B-174" value="&lt;span style=&quot;font-size: 30px;&quot;&gt;宮城県架空1市&lt;/span&gt;&lt;span style=&quot;font-size: 30px;&quot;&gt;水田町3丁目4番地9&lt;/span&gt;" style="connectable=0;recursiveResize=0;strokeColor=inherit;fillColor=none;align=left;whiteSpace=wrap;html=1;" parent="eQ_sDDYcvK8hK_vIIU2B-161" vertex="1">
          <mxGeometry x="2720" width="540" height="58" as="geometry">
            <mxRectangle width="540" height="58" as="alternateBounds" />
          </mxGeometry>
        </mxCell>
        <mxCell id="eQ_sDDYcvK8hK_vIIU2B-175" value="&lt;span style=&quot;font-size: 30px;&quot;&gt;動画制作者&lt;/span&gt;" style="connectable=0;recursiveResize=0;strokeColor=inherit;fillColor=default;align=left;whiteSpace=wrap;html=1;" parent="eQ_sDDYcvK8hK_vIIU2B-161" vertex="1">
          <mxGeometry x="3260" width="240" height="58" as="geometry">
            <mxRectangle width="240" height="58" as="alternateBounds" />
          </mxGeometry>
        </mxCell>
        <mxCell id="eQ_sDDYcvK8hK_vIIU2B-176" value="&lt;font style=&quot;font-size: 30px;&quot;&gt;「遺贈」&lt;/font&gt;" style="connectable=0;recursiveResize=0;strokeColor=inherit;fillColor=none;align=left;whiteSpace=wrap;html=1;" parent="eQ_sDDYcvK8hK_vIIU2B-161" vertex="1">
          <mxGeometry x="3500" width="300" height="58" as="geometry">
            <mxRectangle width="300" height="58" as="alternateBounds" />
          </mxGeometry>
        </mxCell>
        <mxCell id="eQ_sDDYcvK8hK_vIIU2B-193" value="" style="childLayout=tableLayout;recursiveResize=0;shadow=0;fillColor=none;align=left;" parent="cFaB45KztUIKXS-_cTrr-14" vertex="1">
          <mxGeometry x="40" y="1940" width="3840" height="103" as="geometry" />
        </mxCell>
        <mxCell id="eQ_sDDYcvK8hK_vIIU2B-194" value="" style="shape=tableRow;horizontal=0;startSize=0;swimlaneHead=0;swimlaneBody=0;top=0;left=0;bottom=0;right=0;dropTarget=0;collapsible=0;recursiveResize=0;expand=0;fontStyle=0;fillColor=none;strokeColor=inherit;" parent="eQ_sDDYcvK8hK_vIIU2B-193" vertex="1">
          <mxGeometry width="3840" height="50" as="geometry" />
        </mxCell>
        <mxCell id="eQ_sDDYcvK8hK_vIIU2B-389" style="connectable=0;recursiveResize=0;strokeColor=inherit;fillColor=none;align=center;whiteSpace=wrap;html=1;" parent="eQ_sDDYcvK8hK_vIIU2B-194" vertex="1">
          <mxGeometry width="90" height="50" as="geometry">
            <mxRectangle width="90" height="50" as="alternateBounds" />
          </mxGeometry>
        </mxCell>
        <mxCell id="eQ_sDDYcvK8hK_vIIU2B-195" value="&lt;span style=&quot;font-size: 30px;&quot;&gt;収支報告書&lt;/span&gt;" style="connectable=0;recursiveResize=0;strokeColor=inherit;fillColor=none;align=center;whiteSpace=wrap;html=1;" parent="eQ_sDDYcvK8hK_vIIU2B-194" vertex="1">
          <mxGeometry x="90" width="450" height="50" as="geometry">
            <mxRectangle width="450" height="50" as="alternateBounds" />
          </mxGeometry>
        </mxCell>
        <mxCell id="eQ_sDDYcvK8hK_vIIU2B-196" value="&lt;font style=&quot;font-size: 30px;&quot;&gt;団体区分&lt;/font&gt;" style="connectable=0;recursiveResize=0;strokeColor=inherit;fillColor=none;align=center;whiteSpace=wrap;html=1;" parent="eQ_sDDYcvK8hK_vIIU2B-194" vertex="1">
          <mxGeometry x="540" width="230" height="50" as="geometry">
            <mxRectangle width="230" height="50" as="alternateBounds" />
          </mxGeometry>
        </mxCell>
        <mxCell id="eQ_sDDYcvK8hK_vIIU2B-197" value="&lt;font style=&quot;font-size: 30px;&quot;&gt;資金管理指定&lt;/font&gt;" style="connectable=0;recursiveResize=0;strokeColor=inherit;fillColor=none;align=center;whiteSpace=wrap;html=1;" parent="eQ_sDDYcvK8hK_vIIU2B-194" vertex="1">
          <mxGeometry x="770" width="190" height="50" as="geometry">
            <mxRectangle width="190" height="50" as="alternateBounds" />
          </mxGeometry>
        </mxCell>
        <mxCell id="eQ_sDDYcvK8hK_vIIU2B-198" value="&lt;font style=&quot;font-size: 30px;&quot;&gt;代表者&lt;/font&gt;" style="connectable=0;recursiveResize=0;strokeColor=inherit;fillColor=none;align=center;whiteSpace=wrap;html=1;" parent="eQ_sDDYcvK8hK_vIIU2B-194" vertex="1">
          <mxGeometry x="960" width="330" height="50" as="geometry">
            <mxRectangle width="330" height="50" as="alternateBounds" />
          </mxGeometry>
        </mxCell>
        <mxCell id="eQ_sDDYcvK8hK_vIIU2B-199" value="&lt;font style=&quot;font-size: 30px;&quot;&gt;支援政治家&lt;/font&gt;" style="connectable=0;recursiveResize=0;strokeColor=inherit;fillColor=default;align=center;whiteSpace=wrap;html=1;" parent="eQ_sDDYcvK8hK_vIIU2B-194" vertex="1">
          <mxGeometry x="1290" width="250" height="50" as="geometry">
            <mxRectangle width="250" height="50" as="alternateBounds" />
          </mxGeometry>
        </mxCell>
        <mxCell id="eQ_sDDYcvK8hK_vIIU2B-200" value="&lt;font style=&quot;font-size: 30px;&quot;&gt;公職&lt;/font&gt;" style="connectable=0;recursiveResize=0;strokeColor=inherit;fillColor=default;align=center;whiteSpace=wrap;html=1;" parent="eQ_sDDYcvK8hK_vIIU2B-194" vertex="1">
          <mxGeometry x="1540" width="130" height="50" as="geometry">
            <mxRectangle width="130" height="50" as="alternateBounds" />
          </mxGeometry>
        </mxCell>
        <mxCell id="eQ_sDDYcvK8hK_vIIU2B-201" value="&lt;font style=&quot;font-size: 30px;&quot;&gt;様式区分&lt;/font&gt;" style="connectable=0;recursiveResize=0;strokeColor=inherit;fillColor=none;align=center;whiteSpace=wrap;html=1;" parent="eQ_sDDYcvK8hK_vIIU2B-194" vertex="1">
          <mxGeometry x="1670" width="230" height="50" as="geometry">
            <mxRectangle width="230" height="50" as="alternateBounds" />
          </mxGeometry>
        </mxCell>
        <mxCell id="eQ_sDDYcvK8hK_vIIU2B-202" value="&lt;font style=&quot;font-size: 30px;&quot;&gt;行&lt;/font&gt;" style="connectable=0;recursiveResize=0;strokeColor=inherit;fillColor=none;align=center;whiteSpace=wrap;html=1;" parent="eQ_sDDYcvK8hK_vIIU2B-194" vertex="1">
          <mxGeometry x="1900" width="50" height="50" as="geometry">
            <mxRectangle width="50" height="50" as="alternateBounds" />
          </mxGeometry>
        </mxCell>
        <mxCell id="eQ_sDDYcvK8hK_vIIU2B-203" value="&lt;span style=&quot;font-size: 30px;&quot;&gt;コード&lt;/span&gt;" style="connectable=0;recursiveResize=0;strokeColor=inherit;fillColor=none;align=center;whiteSpace=wrap;html=1;" parent="eQ_sDDYcvK8hK_vIIU2B-194" vertex="1">
          <mxGeometry x="1950" width="150" height="50" as="geometry">
            <mxRectangle width="150" height="50" as="alternateBounds" />
          </mxGeometry>
        </mxCell>
        <mxCell id="eQ_sDDYcvK8hK_vIIU2B-204" value="&lt;br&gt;&lt;div&gt;&lt;span style=&quot;font-size: 30px;&quot;&gt;寄付者の氏名&lt;/span&gt;&lt;/div&gt;" style="connectable=0;recursiveResize=0;strokeColor=inherit;fillColor=none;align=center;whiteSpace=wrap;html=1;" parent="eQ_sDDYcvK8hK_vIIU2B-194" vertex="1">
          <mxGeometry x="2100" width="280" height="50" as="geometry">
            <mxRectangle width="280" height="50" as="alternateBounds" />
          </mxGeometry>
        </mxCell>
        <mxCell id="eQ_sDDYcvK8hK_vIIU2B-205" value="&lt;font style=&quot;font-size: 30px;&quot;&gt;金額&lt;/font&gt;" style="connectable=0;recursiveResize=0;strokeColor=inherit;fillColor=none;align=center;whiteSpace=wrap;html=1;" parent="eQ_sDDYcvK8hK_vIIU2B-194" vertex="1">
          <mxGeometry x="2380" width="240" height="50" as="geometry">
            <mxRectangle width="240" height="50" as="alternateBounds" />
          </mxGeometry>
        </mxCell>
        <mxCell id="eQ_sDDYcvK8hK_vIIU2B-206" value="&lt;font style=&quot;font-size: 30px;&quot;&gt;年月日&lt;/font&gt;" style="connectable=0;recursiveResize=0;strokeColor=inherit;fillColor=none;align=center;whiteSpace=wrap;html=1;" parent="eQ_sDDYcvK8hK_vIIU2B-194" vertex="1">
          <mxGeometry x="2620" width="180" height="50" as="geometry">
            <mxRectangle width="180" height="50" as="alternateBounds" />
          </mxGeometry>
        </mxCell>
        <mxCell id="eQ_sDDYcvK8hK_vIIU2B-207" value="&lt;font style=&quot;font-size: 30px;&quot;&gt;住所&lt;/font&gt;" style="connectable=0;recursiveResize=0;strokeColor=inherit;fillColor=none;align=center;whiteSpace=wrap;html=1;" parent="eQ_sDDYcvK8hK_vIIU2B-194" vertex="1">
          <mxGeometry x="2800" width="530" height="50" as="geometry">
            <mxRectangle width="530" height="50" as="alternateBounds" />
          </mxGeometry>
        </mxCell>
        <mxCell id="eQ_sDDYcvK8hK_vIIU2B-208" value="&lt;font style=&quot;font-size: 30px;&quot;&gt;(職業)&lt;/font&gt;" style="connectable=0;recursiveResize=0;strokeColor=inherit;fillColor=default;align=center;whiteSpace=wrap;html=1;" parent="eQ_sDDYcvK8hK_vIIU2B-194" vertex="1">
          <mxGeometry x="3330" width="250" height="50" as="geometry">
            <mxRectangle width="250" height="50" as="alternateBounds" />
          </mxGeometry>
        </mxCell>
        <mxCell id="eQ_sDDYcvK8hK_vIIU2B-209" value="&lt;font style=&quot;font-size: 30px;&quot;&gt;備考&lt;/font&gt;" style="connectable=0;recursiveResize=0;strokeColor=inherit;fillColor=none;align=center;whiteSpace=wrap;html=1;" parent="eQ_sDDYcvK8hK_vIIU2B-194" vertex="1">
          <mxGeometry x="3580" width="260" height="50" as="geometry">
            <mxRectangle width="260" height="50" as="alternateBounds" />
          </mxGeometry>
        </mxCell>
        <mxCell id="eQ_sDDYcvK8hK_vIIU2B-322" style="shape=tableRow;horizontal=0;startSize=0;swimlaneHead=0;swimlaneBody=0;top=0;left=0;bottom=0;right=0;dropTarget=0;collapsible=0;recursiveResize=0;expand=0;fontStyle=0;fillColor=none;strokeColor=inherit;align=right;" parent="eQ_sDDYcvK8hK_vIIU2B-193" vertex="1">
          <mxGeometry y="50" width="3840" height="53" as="geometry" />
        </mxCell>
        <mxCell id="eQ_sDDYcvK8hK_vIIU2B-390" value="&lt;span style=&quot;font-size: 30px;&quot;&gt;☑&lt;/span&gt;" style="connectable=0;recursiveResize=0;strokeColor=inherit;fillColor=#CCCCCC;align=center;whiteSpace=wrap;html=1;" parent="eQ_sDDYcvK8hK_vIIU2B-322" vertex="1">
          <mxGeometry width="90" height="53" as="geometry">
            <mxRectangle width="90" height="53" as="alternateBounds" />
          </mxGeometry>
        </mxCell>
        <mxCell id="eQ_sDDYcvK8hK_vIIU2B-323" value="&lt;span style=&quot;font-size: 30px;&quot;&gt;架空市応援会&lt;/span&gt;" style="connectable=0;recursiveResize=0;strokeColor=inherit;fillColor=#CCCCCC;align=left;whiteSpace=wrap;html=1;" parent="eQ_sDDYcvK8hK_vIIU2B-322" vertex="1">
          <mxGeometry x="90" width="450" height="53" as="geometry">
            <mxRectangle width="450" height="53" as="alternateBounds" />
          </mxGeometry>
        </mxCell>
        <mxCell id="eQ_sDDYcvK8hK_vIIU2B-324" value="&lt;span style=&quot;font-size: 30px;&quot;&gt;その他の団体&lt;/span&gt;" style="connectable=0;recursiveResize=0;strokeColor=inherit;fillColor=#CCCCCC;align=left;whiteSpace=wrap;html=1;" parent="eQ_sDDYcvK8hK_vIIU2B-322" vertex="1">
          <mxGeometry x="540" width="230" height="53" as="geometry">
            <mxRectangle width="230" height="53" as="alternateBounds" />
          </mxGeometry>
        </mxCell>
        <mxCell id="eQ_sDDYcvK8hK_vIIU2B-325" value="" style="connectable=0;recursiveResize=0;strokeColor=inherit;fillColor=#CCCCCC;align=center;whiteSpace=wrap;html=1;" parent="eQ_sDDYcvK8hK_vIIU2B-322" vertex="1">
          <mxGeometry x="770" width="190" height="53" as="geometry">
            <mxRectangle width="190" height="53" as="alternateBounds" />
          </mxGeometry>
        </mxCell>
        <mxCell id="eQ_sDDYcvK8hK_vIIU2B-326" value="&lt;span style=&quot;font-size: 30px;&quot;&gt;個人名太郎&lt;/span&gt;" style="connectable=0;recursiveResize=0;strokeColor=inherit;fillColor=#CCCCCC;align=left;whiteSpace=wrap;html=1;" parent="eQ_sDDYcvK8hK_vIIU2B-322" vertex="1">
          <mxGeometry x="960" width="330" height="53" as="geometry">
            <mxRectangle width="330" height="53" as="alternateBounds" />
          </mxGeometry>
        </mxCell>
        <mxCell id="eQ_sDDYcvK8hK_vIIU2B-327" value="&lt;span style=&quot;font-size: 30px;&quot;&gt;個人名太郎&lt;/span&gt;" style="connectable=0;recursiveResize=0;strokeColor=inherit;fillColor=#CCCCCC;align=left;whiteSpace=wrap;html=1;" parent="eQ_sDDYcvK8hK_vIIU2B-322" vertex="1">
          <mxGeometry x="1290" width="250" height="53" as="geometry">
            <mxRectangle width="250" height="53" as="alternateBounds" />
          </mxGeometry>
        </mxCell>
        <mxCell id="eQ_sDDYcvK8hK_vIIU2B-328" value="&lt;span style=&quot;font-size: 30px;&quot;&gt;現職&lt;/span&gt;" style="connectable=0;recursiveResize=0;strokeColor=inherit;fillColor=#CCCCCC;align=left;whiteSpace=wrap;html=1;" parent="eQ_sDDYcvK8hK_vIIU2B-322" vertex="1">
          <mxGeometry x="1540" width="130" height="53" as="geometry">
            <mxRectangle width="130" height="53" as="alternateBounds" />
          </mxGeometry>
        </mxCell>
        <mxCell id="eQ_sDDYcvK8hK_vIIU2B-329" value="&lt;span style=&quot;font-size: 30px;&quot;&gt;7.寄付-1.個人&lt;/span&gt;" style="connectable=0;recursiveResize=0;strokeColor=inherit;fillColor=#CCCCCC;align=left;whiteSpace=wrap;html=1;" parent="eQ_sDDYcvK8hK_vIIU2B-322" vertex="1">
          <mxGeometry x="1670" width="230" height="53" as="geometry">
            <mxRectangle width="230" height="53" as="alternateBounds" />
          </mxGeometry>
        </mxCell>
        <mxCell id="eQ_sDDYcvK8hK_vIIU2B-330" value="&lt;br&gt;&lt;span style=&quot;font-size: 30px;&quot;&gt;11&lt;/span&gt;&lt;div&gt;&lt;br style=&quot;&quot;&gt;&lt;/div&gt;" style="connectable=0;recursiveResize=0;strokeColor=inherit;fillColor=#CCCCCC;align=right;whiteSpace=wrap;html=1;" parent="eQ_sDDYcvK8hK_vIIU2B-322" vertex="1">
          <mxGeometry x="1900" width="50" height="53" as="geometry">
            <mxRectangle width="50" height="53" as="alternateBounds" />
          </mxGeometry>
        </mxCell>
        <mxCell id="eQ_sDDYcvK8hK_vIIU2B-331" value="&lt;span style=&quot;background-color: rgb(204, 204, 204);&quot;&gt;&lt;br&gt;&lt;span style=&quot;color: rgb(0, 0, 0); font-family: Helvetica; font-size: 30px; font-style: normal; font-variant-ligatures: normal; font-variant-caps: normal; font-weight: 400; letter-spacing: normal; orphans: 2; text-indent: 0px; text-transform: none; widows: 2; word-spacing: 0px; -webkit-text-stroke-width: 0px; white-space: normal; text-decoration-thickness: initial; text-decoration-style: initial; text-decoration-color: initial; float: none; display: inline !important;&quot;&gt;7351&lt;/span&gt;&lt;br&gt;&lt;/span&gt;" style="connectable=0;recursiveResize=0;strokeColor=inherit;fillColor=#CCCCCC;align=right;whiteSpace=wrap;html=1;" parent="eQ_sDDYcvK8hK_vIIU2B-322" vertex="1">
          <mxGeometry x="1950" width="150" height="53" as="geometry">
            <mxRectangle width="150" height="53" as="alternateBounds" />
          </mxGeometry>
        </mxCell>
        <mxCell id="eQ_sDDYcvK8hK_vIIU2B-332" value="&lt;span style=&quot;font-size: 30px;&quot;&gt;個人名太郎&lt;/span&gt;" style="connectable=0;recursiveResize=0;strokeColor=inherit;fillColor=#CCCCCC;align=left;whiteSpace=wrap;html=1;" parent="eQ_sDDYcvK8hK_vIIU2B-322" vertex="1">
          <mxGeometry x="2100" width="280" height="53" as="geometry">
            <mxRectangle width="280" height="53" as="alternateBounds" />
          </mxGeometry>
        </mxCell>
        <mxCell id="eQ_sDDYcvK8hK_vIIU2B-333" value="&lt;span style=&quot;font-size: 30px;&quot;&gt;1,450,000&lt;/span&gt;" style="connectable=0;recursiveResize=0;strokeColor=inherit;fillColor=#CCCCCC;align=right;whiteSpace=wrap;html=1;" parent="eQ_sDDYcvK8hK_vIIU2B-322" vertex="1">
          <mxGeometry x="2380" width="240" height="53" as="geometry">
            <mxRectangle width="240" height="53" as="alternateBounds" />
          </mxGeometry>
        </mxCell>
        <mxCell id="eQ_sDDYcvK8hK_vIIU2B-334" value="&lt;span style=&quot;font-size: 30px;&quot;&gt;2022-12-13&lt;/span&gt;" style="connectable=0;recursiveResize=0;strokeColor=inherit;fillColor=#CCCCCC;align=right;whiteSpace=wrap;html=1;" parent="eQ_sDDYcvK8hK_vIIU2B-322" vertex="1">
          <mxGeometry x="2620" width="180" height="53" as="geometry">
            <mxRectangle width="180" height="53" as="alternateBounds" />
          </mxGeometry>
        </mxCell>
        <mxCell id="eQ_sDDYcvK8hK_vIIU2B-335" value="&lt;span style=&quot;font-size: 30px;&quot;&gt;宮城県架空1市&lt;/span&gt;&lt;span style=&quot;font-size: 30px;&quot;&gt;水田町3丁目4番地9&lt;/span&gt;" style="connectable=0;recursiveResize=0;strokeColor=inherit;fillColor=#CCCCCC;align=left;whiteSpace=wrap;html=1;" parent="eQ_sDDYcvK8hK_vIIU2B-322" vertex="1">
          <mxGeometry x="2800" width="530" height="53" as="geometry">
            <mxRectangle width="530" height="53" as="alternateBounds" />
          </mxGeometry>
        </mxCell>
        <mxCell id="eQ_sDDYcvK8hK_vIIU2B-336" value="&lt;span style=&quot;font-size: 30px;&quot;&gt;TickTokker&lt;/span&gt;" style="connectable=0;recursiveResize=0;strokeColor=inherit;fillColor=#CCCCCC;align=left;whiteSpace=wrap;html=1;" parent="eQ_sDDYcvK8hK_vIIU2B-322" vertex="1">
          <mxGeometry x="3330" width="250" height="53" as="geometry">
            <mxRectangle width="250" height="53" as="alternateBounds" />
          </mxGeometry>
        </mxCell>
        <mxCell id="eQ_sDDYcvK8hK_vIIU2B-337" style="connectable=0;recursiveResize=0;strokeColor=inherit;fillColor=#CCCCCC;align=center;whiteSpace=wrap;html=1;" parent="eQ_sDDYcvK8hK_vIIU2B-322" vertex="1">
          <mxGeometry x="3580" width="260" height="53" as="geometry">
            <mxRectangle width="260" height="53" as="alternateBounds" />
          </mxGeometry>
        </mxCell>
        <mxCell id="eQ_sDDYcvK8hK_vIIU2B-386" value="&lt;span style=&quot;font-size: 30px;&quot;&gt;寄付制限から外された特定寄付&lt;/span&gt;" style="rounded=0;whiteSpace=wrap;html=1;align=left;dashed=1;dashPattern=8 8;verticalAlign=bottom;" parent="cFaB45KztUIKXS-_cTrr-14" vertex="1">
          <mxGeometry x="20" y="1871" width="440" height="46" as="geometry" />
        </mxCell>
        <mxCell id="eQ_sDDYcvK8hK_vIIU2B-387" value="&lt;span style=&quot;font-size: 30px;&quot;&gt;1&lt;/span&gt;" style="rounded=0;whiteSpace=wrap;html=1;align=right;fillColor=#CCCCCC;" parent="cFaB45KztUIKXS-_cTrr-14" vertex="1">
          <mxGeometry x="480" y="1870" width="80" height="48" as="geometry" />
        </mxCell>
        <mxCell id="eQ_sDDYcvK8hK_vIIU2B-388" value="&lt;span style=&quot;font-size: 30px;&quot;&gt;件&lt;/span&gt;" style="rounded=0;whiteSpace=wrap;html=1;align=left;dashed=1;dashPattern=8 8;verticalAlign=bottom;" parent="cFaB45KztUIKXS-_cTrr-14" vertex="1">
          <mxGeometry x="574" y="1871" width="70" height="46" as="geometry" />
        </mxCell>
      </root>
    </mxGraphModel>
  </diagram>
</mxfile>
